<svg width="159" height="44" viewBox="0 0 159 44" fill="none" xmlns="http://www.w3.org/2000/svg">
<path d="M36.0449 7.95799C37.111 6.8728 38.1771 5.78749 39.5532 5.05564C39.4975 6.16376 39.7685 7.18978 40.3832 8.11322C43.2571 12.4336 41.4343 16.2376 36.5779 17.541L36.4417 17.5775C34.6409 18.0611 32.8285 18.5478 30.9197 18.4162C30.3199 18.3746 29.7979 18.7185 29.8296 19.3161C29.865 19.9949 30.5892 19.9441 31.0209 19.8844C34.5457 19.3953 37.9641 18.5742 40.7616 16.1936C41.0908 15.9136 41.3547 15.5574 41.6371 15.1762C41.7742 14.9912 41.9158 14.8001 42.0712 14.6091C42.7512 16.4864 42.659 18.3724 41.9375 20.0529C41.458 21.1693 40.1732 21.8892 39.0235 22.4305C35.9272 23.8905 32.6079 24.416 29.2062 24.3962C28.463 24.3919 27.5817 24.4267 27.4992 25.098C27.3817 26.0466 28.3865 26.0286 29.0538 26.003C33.1903 25.842 37.2729 25.4902 40.7088 22.7621C40.9188 22.5953 41.0737 22.3977 41.2356 22.1911C41.412 21.966 41.5969 21.7301 41.8708 21.5114C42.1815 23.1882 41.8382 24.7487 41.4991 26.2906C41.4686 26.4292 41.4381 26.5677 41.4081 26.7061C40.479 31.0011 38.3783 31.4077 33.5424 31.5688C31.8707 31.6245 29.5381 30.8653 28.125 30.4053C27.6366 30.2463 27.2578 30.123 27.0544 30.0816C26.8841 30.0469 26.7365 30.017 26.6043 29.9903L26.5981 29.989C26.1198 29.8922 25.8437 29.8364 25.4184 29.7398C24.8595 29.6135 24.3031 29.597 24.1212 30.2471C23.9695 30.7896 24.462 31.0506 24.8128 31.2365C24.8664 31.2649 24.9168 31.2916 24.961 31.3172C27.7818 32.9536 30.888 33.5593 34.1184 33.6889C35.498 33.7444 36.7631 33.3956 38.2314 32.6027C36.0824 37.8524 32.877 41.4973 27.5723 43.1391C24.6236 44.052 21.6244 44.3306 18.732 43.5242C14.5247 42.3514 13.4398 39.8911 14.8287 35.7544C15.208 34.6261 15.6021 33.4549 16.3804 32.4807C16.7547 32.0126 16.7853 31.4445 16.546 30.8806C16.6195 30.8075 16.6862 30.6975 16.7531 30.5873C16.962 30.2428 17.1721 29.8965 17.5955 30.6694C17.8157 31.0715 18.0406 31.4718 18.2655 31.8721C19.7434 34.5023 21.2223 37.1344 21.3652 40.2786C21.9841 37.2696 20.6456 34.8789 19.3024 32.4799C18.8686 31.7051 18.4343 30.9293 18.0653 30.1316C18.0843 30.1466 18.1032 30.1615 18.1222 30.1765C20.0367 32.3735 22.3987 33.99 24.764 35.6087C24.952 35.7373 25.1401 35.866 25.3279 35.995C26.6649 36.9131 28.1347 37.4706 29.6731 37.882C30.6555 38.1444 31.6649 37.8971 32.3014 37.2873C30.7045 37.603 29.2225 37.4069 27.844 36.7223C24.535 35.0796 21.5837 32.9355 18.9423 30.3527C18.8535 30.2658 18.7589 30.1846 18.6666 30.1053C18.2205 29.722 17.8259 29.383 18.3759 28.6649C18.4695 28.5429 18.5549 28.4167 18.6387 28.2928C19.0601 27.6697 19.4398 27.1084 20.6086 27.4633C24.5969 28.6739 28.707 29.3508 32.8907 29.1946C34.7432 29.1252 36.6637 28.9705 38.0911 27.4749C37.2218 27.8841 36.3131 28.3103 35.3867 28.4213C30.4387 29.0128 25.6119 28.0641 20.7938 27.0948C20.2726 26.9898 19.942 26.8229 20.3744 26.2373C20.5698 25.9721 20.7517 25.6961 20.9335 25.4204C21.2165 24.9912 21.4992 24.5624 21.832 24.1755C22.6606 23.211 23.5333 22.6183 25.0476 22.6397C28.1276 22.6837 31.2419 22.4967 34.2677 21.7839C36.1325 21.3449 38.0206 20.8815 39.7296 19.4184C34.189 21.3144 25.405 22.6811 23.7549 21.968C24.1043 21.5321 24.4552 21.0965 24.8065 20.6605C25.7452 19.4953 26.6862 18.3273 27.606 17.1428C27.9091 16.7525 28.2606 16.5693 28.7182 16.5173C29.1393 16.4693 29.5611 16.4264 29.9829 16.3835C30.8359 16.2969 31.689 16.2102 32.5356 16.081C34.5443 15.7743 36.5531 15.4036 38.2842 14.2578C38.3215 14.2331 38.3593 14.2085 38.3974 14.1836C38.947 13.8247 39.564 13.4218 39.5633 12.5095C37.3286 14.7504 34.5479 15.1206 31.7582 15.4921C30.7962 15.6201 29.8331 15.7484 28.8911 15.9535C30.1555 14.3078 31.5156 12.7991 32.8816 11.2952C33.3269 10.8046 33.7819 10.9788 34.2756 11.1678C34.333 11.1898 34.391 11.212 34.4495 11.2334C36.2103 11.8767 37.4189 11.4645 38.3795 9.83692C36.8686 11.1179 35.3645 11.0605 33.7298 10.369C33.8379 10.2442 33.9373 10.1227 34.0329 10.0058C34.2324 9.76182 34.4155 9.53781 34.6275 9.34567C35.117 8.90256 35.5809 8.43029 36.0449 7.95799Z" fill="#C2FAF0"/>
<path d="M16.303 30.7129L17.3653 29.1724C16.4072 29.1326 15.4561 29.0654 14.5119 28.9986C10.6171 28.7233 6.84002 28.4563 3.17518 30.1587C4.79338 28.5075 6.85287 28.375 9.08053 28.2316C9.73366 28.1895 10.4012 28.1466 11.0764 28.0641C6.80962 26.2353 4.27159 23.3973 3.95154 18.9513C4.29836 19.2891 4.37965 19.7322 4.46118 20.1766C4.50086 20.3929 4.54059 20.6095 4.61101 20.8145C6.14624 25.2932 9.57812 27.3533 13.9902 28.1519C14.6926 28.279 15.4082 28.3328 16.1236 28.3866C16.4251 28.4092 16.7265 28.4319 17.0268 28.46C17.082 28.4652 17.1397 28.4745 17.198 28.4838C17.4542 28.525 17.724 28.5682 17.862 28.2802C17.9963 28.0011 17.7839 27.8114 17.6017 27.6485C17.551 27.6032 17.5025 27.5599 17.4646 27.5174C15.3052 25.0924 13.5853 22.3805 12.0952 19.5138C10.9132 17.2398 10.0183 14.8812 10.0561 12.2374C11.2826 18.2031 14.604 23.0404 18.24 27.8147C18.6177 27.3785 18.9374 26.9306 19.2485 26.4948C19.7101 25.848 20.1529 25.2277 20.7384 24.7113C21.2483 24.2615 20.9659 23.7572 20.7012 23.2845C20.631 23.1591 20.5621 23.036 20.5095 22.9167C19.0324 19.5635 17.6797 16.1592 17.0474 12.543C16.6562 10.3041 16.5361 8.0145 17.6527 5.87027C16.6906 10.3454 18.0534 14.4938 19.4135 18.634L19.4481 18.7394C19.7024 19.5135 20.0057 20.2716 20.309 21.0298C20.5454 21.6208 20.7818 22.2119 20.9952 22.8106C21.2427 23.5056 21.4971 23.8043 21.9551 22.9963C22.4537 22.1164 23.1238 21.3753 23.7928 20.6355C24.0105 20.3948 24.2281 20.1542 24.4396 19.909C25.1546 19.0801 25.0617 18.242 24.7803 17.3123C23.7986 14.0722 23.3389 10.772 23.7717 7.39147L23.7733 7.37891C23.8752 6.584 23.9814 5.75549 24.6991 5.07926C23.731 9.08034 24.4134 12.913 25.0952 16.7418C25.1466 17.0303 25.1979 17.3187 25.2486 17.6073C25.3923 18.4262 25.8283 18.1524 26.1152 17.8215C27.0249 16.7728 27.9128 15.7051 28.8007 14.6374C29.2342 14.1161 29.6676 13.5948 30.1037 13.0758C30.3844 12.7411 30.3644 12.3781 30.343 11.9889C30.3399 11.9345 30.3369 11.8795 30.3347 11.824C30.2382 9.42424 30.2486 7.04 32.3154 4.90087C31.176 7.29133 30.7165 9.51547 30.8978 12.1692C33.6325 9.3255 36.2438 6.71404 39.2304 4.52432C39.2307 4.52414 39.2309 4.52395 39.2312 4.52376C38.4571 4.72299 37.7845 4.39764 37.352 3.86372C36.8656 3.26338 36.2555 2.84566 35.6453 2.4278C35.3924 2.25466 35.1394 2.08147 34.8953 1.89527C32.5178 0.0836441 30.4409 1.68033 29.6243 3.56669C29.0155 4.97455 28.6347 6.48355 28.4811 8.02816C28.4418 8.42461 28.4055 8.82139 28.3692 9.2182C28.3 9.97556 28.2307 10.733 28.1404 11.4882C28.0859 11.9471 27.8584 12.3462 27.314 12.3616C26.7646 12.3774 26.5277 11.014 26.5387 10.7542C26.6022 9.19644 27.0439 7.7245 27.6559 6.30789C28.4406 4.49309 29.2564 2.69043 30.1096 0.906933C30.3701 0.363109 30.2533 0.339292 29.7515 0.237025L29.6963 0.225744C27.3572 -0.253126 25.087 0.106177 22.8115 0.594546C22.4198 0.678326 22.3351 0.915698 22.2139 1.25573L22.1961 1.30575C21.1279 4.2751 21.0972 7.30183 21.6104 10.3631C21.7579 11.2424 21.9249 12.1183 22.092 12.9943L22.0921 12.995C22.2237 13.6852 22.3553 14.3755 22.4774 15.0674C22.4932 15.1567 22.5139 15.2507 22.535 15.3469C22.6566 15.9008 22.794 16.5267 22.1148 16.7271C21.4662 16.9182 21.3022 16.3738 21.1534 15.88C21.1173 15.7602 21.0821 15.6433 21.041 15.5407C20.2508 13.5633 20.0896 11.4772 20.0145 9.37955C19.9043 6.30941 20.4019 3.32122 21.3491 0.246163C19.2489 1.51287 17.1948 2.51817 15.0569 3.29855C14.2292 3.60075 13.9967 4.0339 13.8658 4.76736C13.0772 9.17957 13.8889 13.2884 16.1837 17.1254C16.2491 17.2348 16.3169 17.3429 16.3846 17.4509C16.6593 17.8887 16.9335 18.3258 17.0474 18.851C17.1498 19.3221 16.9413 19.7204 16.5842 19.8211C16.3176 19.8959 15.9012 19.9295 15.5915 19.4858C15.0115 18.6547 14.5793 17.7931 14.3618 16.812C13.4984 12.914 13.113 8.96239 13.0299 4.97882C13.0287 4.9253 13.0305 4.87077 13.0323 4.81659C13.0395 4.59881 13.0464 4.38679 12.8598 4.27004C12.6227 4.12173 12.52 4.2794 12.4173 4.43704C12.373 4.50513 12.3287 4.57321 12.2735 4.61663C10.67 5.87729 9.31913 7.36856 7.97103 8.90111C6.05166 11.0835 5.54498 12.847 6.65445 15.4101C7.8264 18.1158 9.50929 20.4883 11.517 22.6309C12.0357 23.1846 13.3796 24.8334 12.5684 25.3236C11.7571 25.8138 8.37588 22.469 7.21554 20.5513C5.86426 18.3188 4.79222 15.948 3.95121 13.0715C1.51575 17.9118 -0.385945 22.4684 0.0670895 27.6903C0.397876 31.5066 2.10808 34.3564 5.75796 35.7473C8.78935 36.9025 11.5613 35.6516 13.8337 32.8814C13.927 32.7677 14.0187 32.6529 14.1101 32.5384C14.7171 31.7784 15.3126 31.0327 16.303 30.7129Z" fill="#C2FAF0"/>
<mask id="path-2-outside-1" maskUnits="userSpaceOnUse" x="29" y="11" width="130" height="24" fill="black">
<rect fill="white" x="29" y="11" width="130" height="24"/>
<path d="M33.2479 33.9412C32.1456 33.6667 31.3287 33.1078 30.7972 32.2647C30.2657 31.4216 30 30.2451 30 28.7353C30 27.4216 30.187 25.8726 30.561 24.0882C30.8563 22.6569 31.3582 20.951 32.0668 18.9706C32.7951 16.9706 33.5333 15.3137 34.2813 14C34.734 13.2353 35.1277 12.7059 35.4623 12.4118C35.797 12.1176 36.1218 11.9902 36.4367 12.0294C36.8698 12.1078 37.2142 12.2941 37.4701 12.5882C37.726 12.8627 37.854 13.1667 37.854 13.5C37.854 13.8922 37.6866 14.1961 37.352 14.4118C37.1945 14.5882 36.978 14.9412 36.7024 15.4706C36.4269 15.9804 36.2497 16.3039 36.171 16.4412L35.4623 17.7647C34.7734 19.7255 34.2616 21.2353 33.927 22.2941C33.612 23.3529 33.3561 24.4706 33.1593 25.6471C32.805 27.2745 32.5983 28.2451 32.5393 28.5588C32.4999 28.8529 32.4802 29.2647 32.4802 29.7941C32.5393 29.9118 32.618 30.0686 32.7164 30.2647C32.8148 30.4412 32.9034 30.5784 32.9821 30.6765C33.0609 30.7549 33.1495 30.8039 33.2479 30.8235C33.6022 30.9804 33.927 31.0588 34.2222 31.0588C34.5766 31.0588 34.9702 30.9412 35.4033 30.7059C35.482 30.549 35.5903 30.4314 35.7281 30.3529C35.8856 30.2549 35.984 30.1961 36.0233 30.1765C36.0627 30.2353 36.0922 30.2647 36.1119 30.2647C36.171 30.2647 36.2202 30.1961 36.2595 30.0588V30.0294C36.2595 29.9314 36.3481 29.7941 36.5253 29.6176C36.7221 29.5392 36.9879 29.2941 37.3225 28.8824C37.6768 28.451 37.9918 28.0098 38.2673 27.5588C38.5626 27.0882 38.7102 26.7941 38.7102 26.6765C38.7102 26.5784 38.7594 26.4706 38.8579 26.3529C38.976 26.2353 39.0547 26.1569 39.0941 26.1176C39.2318 25.9804 39.5763 25.3824 40.1275 24.3235C40.6983 23.2647 41.2199 22.2451 41.6924 21.2647C41.9876 20.3039 42.3912 18.951 42.9029 17.2059C43.4344 15.4608 43.7494 14.3431 43.8478 13.8529C43.8871 13.598 43.9462 13.3824 44.0249 13.2059C44.1037 13.0294 44.1529 12.9118 44.1726 12.8529C44.33 12.7353 44.4974 12.6765 44.6745 12.6765C44.9895 12.6765 45.3142 12.7843 45.6489 13C45.9835 13.1961 46.1803 13.3137 46.2394 13.3529C46.3378 13.4706 46.387 13.6373 46.387 13.8529C46.387 14.0882 46.2984 14.5784 46.1213 15.3235C46.0229 15.7157 45.8949 16.3039 45.7374 17.0882C45.4225 18.3235 45.0485 19.4902 44.6155 20.5882C44.1824 21.6863 43.6214 23.0098 42.9325 24.5588C42.8537 24.7353 42.7652 24.9314 42.6667 25.1471C42.5683 25.3431 42.4699 25.5686 42.3715 25.8235V26C42.1353 26.1373 41.9483 26.3431 41.8105 26.6176C41.7514 26.7157 41.6727 26.8529 41.5743 27.0294C41.4955 27.1863 41.4069 27.2941 41.3085 27.3529C41.2495 27.5294 41.1904 27.6765 41.1314 27.7941C41.092 27.9118 41.0625 27.9902 41.0428 28.0294C41.0231 28.1471 40.9345 28.2549 40.7771 28.3529C40.6196 28.451 40.5212 28.5098 40.4818 28.5294C40.4031 28.5686 40.344 28.6569 40.3046 28.7941C40.2653 28.9314 40.2259 29.0196 40.1865 29.0588C39.5173 30.0588 38.661 31.0196 37.6178 31.9412C36.5745 32.8627 35.6592 33.4706 34.8718 33.7647C34.4781 33.9216 34.1337 34 33.8384 34C33.5825 34 33.3857 33.9804 33.2479 33.9412Z"/>
<path d="M43.9419 31.3824C43.6663 31.1667 43.4498 30.9608 43.2923 30.7647C43.1348 30.5686 43.0856 30.2941 43.1447 29.9412C43.2037 29.2745 43.3514 28.5 43.5876 27.6176L43.7352 27.0294C43.7943 26.5 44.0994 25.4608 44.6505 23.9118C45.2214 22.3431 45.6938 21.2843 46.0678 20.7353C46.2646 20.5392 46.5992 20.4412 47.0717 20.4412C47.4653 20.4412 47.7409 20.5196 47.8984 20.6765C48.0559 20.7941 48.1346 20.9902 48.1346 21.2647C48.1346 21.7157 47.8492 22.5098 47.2783 23.6471L46.9831 24.2647C46.8453 24.5196 46.7272 24.7549 46.6288 24.9706C46.55 25.1863 46.5599 25.2843 46.6583 25.2647C46.8748 24.8922 47.3965 24.3824 48.2232 23.7353C49.0696 23.0882 49.6503 22.6863 49.9652 22.5294C50.103 22.451 50.2802 22.3726 50.4967 22.2941C50.7132 22.2157 50.8609 22.1569 50.9396 22.1177C51.2939 21.9412 51.6974 21.8529 52.1502 21.8529C52.4651 21.8529 52.7308 21.902 52.9474 22C53.1836 22.0784 53.3411 22.2059 53.4198 22.3824C53.4395 22.5196 53.4887 22.6275 53.5674 22.7059C53.6658 22.7843 53.7347 22.8333 53.7741 22.8529C53.8332 22.8529 53.8725 22.8824 53.8922 22.9412C53.9119 22.9804 53.9217 23.0098 53.9217 23.0294C53.9217 23.1863 53.7839 23.3922 53.5084 23.6471C53.2328 23.8824 52.9474 24.0098 52.6521 24.0294C52.4356 24.049 52.2092 24.098 51.973 24.1765C51.7368 24.2549 51.5006 24.3529 51.2644 24.4706L50.4967 24.9118C49.8274 25.2451 49.2566 25.5784 48.7842 25.9118C48.3314 26.2255 47.8689 26.6373 47.3965 27.1471C47.298 27.2451 47.1504 27.3824 46.9536 27.5588C46.7764 27.7353 46.6189 27.9412 46.4811 28.1765C46.3433 28.3137 46.1957 28.6765 46.0382 29.2647C45.9005 29.8333 45.8316 30.1863 45.8316 30.3235C45.8119 30.3824 45.7725 30.5 45.7135 30.6765C45.6544 30.8529 45.5658 31.0098 45.4477 31.1471C45.2706 31.3627 45.1229 31.5196 45.0048 31.6176C44.8867 31.7157 44.7588 31.7647 44.621 31.7647C44.4241 31.7647 44.1978 31.6373 43.9419 31.3824Z"/>
<path d="M56.2352 31.7647C55.8808 31.8431 55.3494 31.7255 54.6407 31.4118C53.9518 31.0784 53.4892 30.7843 53.253 30.5294C53.1546 30.3922 53.1054 30.2843 53.1054 30.2059C53.1054 30.1275 53.1349 30.0588 53.194 30C53.253 29.9412 53.3317 29.9118 53.4302 29.9118C53.5483 29.9118 53.6861 29.8137 53.8435 29.6176C54.001 29.4216 54.0994 29.1275 54.1388 28.7353C54.1585 28.5 54.2077 28.2745 54.2864 28.0588C54.3652 27.8235 54.4045 27.6667 54.4045 27.5882C54.4242 27.5294 54.4439 27.3726 54.4636 27.1177C54.503 26.8431 54.562 26.6078 54.6407 26.4118C54.7588 25.902 54.9458 25.1863 55.2017 24.2647C55.4773 23.3235 55.7037 22.6177 55.8808 22.1471C55.9202 21.7941 56.1269 21.2549 56.5009 20.5294C56.8749 19.5294 57.4851 18.1078 58.3315 16.2647C59.1976 14.4216 59.7291 13.3726 59.9259 13.1177C60.0834 13 60.2802 12.9412 60.5165 12.9412C60.9495 12.9412 61.294 13.0686 61.5499 13.3235C61.6089 13.3824 61.6877 13.4804 61.7861 13.6176C61.9042 13.7353 61.9928 13.8529 62.0518 13.9706C62.1109 14.0882 62.1404 14.1961 62.1404 14.2941C62.1404 14.451 62.0715 14.6078 61.9337 14.7647L61.1365 16.0294C61.0184 16.3824 60.7625 16.9706 60.3688 17.7941C59.8177 18.9314 59.3649 20 59.0106 21C58.8728 21.3137 58.7252 21.6765 58.5677 22.0882C58.4299 22.5 58.3315 22.7353 58.2725 22.7941C58.2134 23.0882 58.1051 23.3824 57.9477 23.6765C57.7902 24.0098 57.6721 24.3824 57.5934 24.7941L58.6563 23.7647C59.4633 22.902 60.172 22.2647 60.7822 21.8529C61.3924 21.4216 61.9435 21.2059 62.4356 21.2059C62.849 21.2059 63.3018 21.3627 63.7939 21.6765C64.286 21.9902 64.6107 22.3333 64.7682 22.7059C64.9257 23.0784 65.0044 23.5392 65.0044 24.0882C65.0044 24.6569 64.9159 25.2353 64.7387 25.8235C64.5615 26.4118 64.3056 26.9216 63.971 27.3529C63.7742 27.7059 63.5183 28.0588 63.2033 28.4118C62.9081 28.7451 62.6423 29 62.4061 29.1765C61.8747 29.6667 61.5302 29.9706 61.3727 30.0882C61.1562 30.2451 60.9495 30.3824 60.7527 30.5C60.5755 30.598 60.359 30.6863 60.1031 30.7647C59.7291 31.0196 59.2173 31.2255 58.5677 31.3824C57.9378 31.5196 57.1603 31.6471 56.2352 31.7647ZM56.9733 29.5294C57.2095 29.5294 57.4949 29.4902 57.8296 29.4118C58.1642 29.3333 58.4693 29.1961 58.7449 29C59.985 28.3725 60.9101 27.6373 61.5203 26.7941C62.1502 25.951 62.4652 25.1569 62.4652 24.4118C62.4652 23.9412 62.3274 23.7059 62.0518 23.7059C61.6188 23.7059 60.8314 24.2745 59.6897 25.4118C59.1582 25.902 58.6071 26.4804 58.0362 27.1471L57.5934 27.6471C57.5146 27.7647 57.3965 27.9216 57.239 28.1176C57.0816 28.3137 56.993 28.4706 56.9733 28.5882C56.8946 28.9412 56.8552 29.1863 56.8552 29.3235C56.8552 29.4608 56.8946 29.5294 56.9733 29.5294Z"/>
<path d="M66.6678 31.5588C66.6088 31.4412 66.4414 31.2843 66.1659 31.0882C65.8903 30.8922 65.7525 30.7745 65.7525 30.7353C65.7525 30.6569 65.7033 30.549 65.6049 30.4118C65.5261 30.2549 65.4474 30.1176 65.3687 30C65.2112 29.8431 65.3195 29.3333 65.6935 28.4706C66.0674 27.6078 66.5694 26.5882 67.1993 25.4118C67.3174 25.2941 67.465 25.0882 67.6422 24.7941C67.839 24.5 67.967 24.3333 68.026 24.2941C68.026 24.2157 68.0555 24.1471 68.1146 24.0882C68.1736 24.0098 68.2425 23.9706 68.3213 23.9706L68.5575 23.5C68.6362 23.3235 69.0201 22.902 69.709 22.2353C70.398 21.5686 70.9393 21.1177 71.3329 20.8824C71.7069 20.6275 72.1105 20.5 72.5435 20.5C73.0159 20.5 73.4195 20.6373 73.7541 20.9118L74.5513 21.5882C75.1418 22.0784 75.4765 22.3627 75.5552 22.4412L76.6477 23.4118L76.1457 24.8824C75.9686 25.4118 75.88 25.9118 75.88 26.3824C75.88 27.1275 76.0867 27.8235 76.5 28.4706C76.5984 28.6863 76.7264 28.8529 76.8839 28.9706C77.061 29.0882 77.2874 29.1667 77.563 29.2059C77.996 29.2843 78.2125 29.5 78.2125 29.8529C78.2125 30.2843 78.1338 30.6078 77.9763 30.8235C77.8189 31.0392 77.6319 31.1765 77.4153 31.2353C77.1004 31.2745 76.8839 31.2941 76.7658 31.2941C76.1949 31.2941 75.6733 31.1471 75.2009 30.8529C74.7285 30.5588 74.3151 30.0588 73.9608 29.3529C73.882 29.2353 73.7738 29.0196 73.636 28.7059C73.5179 28.3922 73.449 28.1765 73.4293 28.0588C73.2915 28.2549 73.0651 28.5098 72.7502 28.8235C70.7227 30.8627 69.0791 31.8824 67.8193 31.8824C67.3863 31.8824 67.0024 31.7745 66.6678 31.5588ZM68.2918 29.1176C68.6067 29.1569 69.2169 28.8039 70.1224 28.0588C70.2208 27.9804 70.3291 27.8922 70.4472 27.7941C70.5653 27.6765 70.6932 27.5588 70.831 27.4412C71.3822 26.9902 71.8054 26.6176 72.1006 26.3235C72.4156 26.0098 72.7305 25.6373 73.0455 25.2059L73.695 24.1471C73.4982 23.7157 73.321 23.4314 73.1636 23.2941C73.0061 23.1373 72.8486 23.0588 72.6912 23.0588C72.2975 23.0588 71.8054 23.4118 71.2148 24.1177C70.6243 24.8039 69.9157 25.8529 69.089 27.2647C68.8724 27.6176 68.6953 27.9902 68.5575 28.3824C68.4197 28.7549 68.3311 29 68.2918 29.1176Z"/>
<path d="M87.758 31.2941C87.4628 31.2941 87.1675 31.2157 86.8722 31.0588C86.577 30.902 86.3408 30.6667 86.1636 30.3529L86.016 30.0588C85.7798 29.3922 85.6617 28.7451 85.6617 28.1176V26.8235C85.6617 26.6078 85.642 26.5 85.6026 26.5C85.4451 26.5 84.766 27.1373 83.5653 28.4118C82.7189 29.2941 81.9807 29.9804 81.3509 30.4706C80.7406 30.9412 80.3174 31.1765 80.0812 31.1765C80.0025 31.1765 79.8155 31.1078 79.5202 30.9706C79.225 30.8137 79.038 30.6961 78.9592 30.6176C78.8214 30.4804 78.7329 30.3137 78.6935 30.1176C78.6541 29.9216 78.6344 29.549 78.6344 29C78.6344 28.3725 78.7624 27.6667 79.0183 26.8824C79.2742 26.0784 79.7072 25.0098 80.3174 23.6765C80.4749 23.402 80.6324 23.0686 80.7899 22.6765C81.2426 21.6569 81.6658 20.951 82.0595 20.5588C82.217 20.5588 82.3252 20.5686 82.3843 20.5882C82.6402 20.6078 82.9354 20.7255 83.2701 20.9412C83.6244 21.1569 83.8409 21.4412 83.9196 21.7941C83.9196 22.1275 83.8704 22.4608 83.772 22.7941C83.6736 23.1275 83.4472 23.5392 83.0929 24.0294C82.8764 24.3235 82.591 24.9608 82.2366 25.9412C82.1382 26.098 82.0004 26.3431 81.8233 26.6765C81.6658 26.9902 81.5871 27.1667 81.5871 27.2059C81.6067 27.2255 81.6658 27.1863 81.7642 27.0882C81.8626 26.9706 81.9611 26.8627 82.0595 26.7647L82.8567 25.9706C84.4117 24.4216 85.6125 23.6275 86.4589 23.5882C86.8919 23.5882 87.2758 23.8137 87.6104 24.2647C87.945 24.7157 88.1123 25.2549 88.1123 25.8824C88.1123 26 88.0927 26.3333 88.0533 26.8824V28.5588C88.506 28.4412 88.8505 28.3333 89.0867 28.2353C89.5788 28.0588 90.0906 27.951 90.6221 27.9118C90.5827 28.2451 90.3957 28.6863 90.0611 29.2353C89.7461 29.7843 89.3721 30.2647 88.9391 30.6765C88.506 31.0882 88.1123 31.2941 87.758 31.2941Z"/>
<path d="M96.323 33.6765C96.2245 33.6765 96.1163 33.6373 95.9982 33.5588C95.8997 33.5 95.8112 33.4118 95.7324 33.2941C95.575 33.1569 95.447 32.9902 95.3486 32.7941C95.2502 32.598 95.201 32.3039 95.201 31.9118C95.201 31.2255 95.4175 30.2353 95.8505 28.9412C95.9883 28.3922 96.136 27.8627 96.2934 27.3529C96.4312 27 96.5001 26.7353 96.5001 26.5588C96.5001 26.402 96.5198 26.2255 96.5592 26.0294C96.6182 25.8137 96.6477 25.6667 96.6477 25.5882C96.8839 25.5882 97.1005 25.1863 97.2973 24.3824C97.3761 24.0882 97.445 23.8431 97.504 23.6471C97.5631 23.4314 97.6024 23.2647 97.6221 23.1471C97.6615 23.0882 97.7009 23 97.7402 22.8824C97.7993 22.7647 97.8485 22.6569 97.8878 22.5588C98.0453 22.0882 98.2323 21.6373 98.4488 21.2059C98.6851 20.3235 98.9606 19.402 99.2756 18.4412C99.6102 17.4608 99.8858 16.7353 100.102 16.2647L100.457 15.3824C100.476 15.3235 100.516 15.2157 100.575 15.0588C100.653 14.8824 100.693 14.7549 100.693 14.6765C100.693 14.598 100.663 14.5392 100.604 14.5C100.466 14.402 100.398 14.2059 100.398 13.9118C100.398 13.4216 100.585 13.0196 100.959 12.7059C101.175 12.451 101.461 12.2745 101.815 12.1765C102.189 12.0588 102.632 12 103.144 12C103.36 12 103.744 12.0196 104.295 12.0588C104.531 12.0784 105.161 12.0882 106.185 12.0882C106.303 12.1471 106.519 12.2353 106.834 12.3529C107.504 12.6274 107.838 12.7941 107.838 12.8529C107.838 12.951 107.868 13.0196 107.927 13.0588C108.005 13.098 108.114 13.1275 108.252 13.1471C108.468 13.1471 108.852 13.4118 109.403 13.9412C109.974 14.4706 110.368 14.9608 110.584 15.4118C110.761 15.7647 110.879 16.0392 110.938 16.2353C111.017 16.4314 111.057 16.6765 111.057 16.9706C111.057 17.0882 111.037 17.3039 110.997 17.6176C110.958 17.9314 110.909 18.2353 110.85 18.5294C110.791 18.8235 110.722 19.0098 110.643 19.0882C110.328 19.3235 110.171 19.5294 110.171 19.7059C110.171 19.902 109.885 20.451 109.314 21.3529C108.744 22.2549 108.242 22.9118 107.809 23.3235C107.297 23.9118 106.687 24.4314 105.978 24.8824C105.151 25.2549 104.216 25.5784 103.173 25.8529C102.149 26.1275 101.372 26.2549 100.84 26.2353C100.211 26.3333 99.8169 26.4216 99.6594 26.5C99.5216 26.5588 99.4134 26.7157 99.3346 26.9706C99.2362 27.2451 99.1378 27.5196 99.0394 27.7941C98.9606 28.0686 98.9213 28.2549 98.9213 28.3529C98.8032 28.5686 98.5571 29.2255 98.1831 30.3235C97.8288 31.4216 97.5827 32.2647 97.445 32.8529C97.3662 33.1078 97.2087 33.3039 96.9725 33.4412C96.7363 33.598 96.5198 33.6765 96.323 33.6765ZM100.516 23.8529C100.555 23.8922 100.663 23.9118 100.84 23.9118C101.352 23.9118 102.022 23.7549 102.848 23.4412C103.557 23.2059 104.344 22.8235 105.21 22.2941C105.643 22 106.155 21.4804 106.746 20.7353C106.864 20.5392 107.1 20.0784 107.454 19.3529C107.612 19.0784 107.759 18.7255 107.897 18.2941C108.055 17.8627 108.133 17.4804 108.133 17.1471C108.133 16.9902 108.124 16.8726 108.104 16.7941C107.907 15.7745 107.336 15.098 106.391 14.7647C105.761 14.6667 105.319 14.6176 105.063 14.6176C104.925 14.6176 104.699 14.6373 104.384 14.6765C104.069 14.7745 103.842 14.9118 103.704 15.0882C103.586 15.2451 103.409 15.6176 103.173 16.2059C102.543 17.402 102.13 18.2647 101.933 18.7941C101.559 20.1275 101.234 21.1569 100.959 21.8824C100.683 22.5882 100.526 23 100.486 23.1177V23.2353C100.486 23.3529 100.476 23.4706 100.457 23.5882C100.437 23.7059 100.457 23.7941 100.516 23.8529Z"/>
<path d="M110.63 32.3235C110.57 32.3431 110.492 32.3529 110.393 32.3529C109.98 32.3529 109.635 32.1176 109.36 31.6471C109.084 31.1765 108.947 30.5784 108.947 29.8529C108.947 29.4608 108.986 29.0784 109.065 28.7059C109.281 28.1373 109.389 27.7255 109.389 27.4706C109.448 27.098 109.645 26.4314 109.98 25.4706C110.334 24.4902 110.561 23.902 110.659 23.7059C110.738 23.7059 110.807 23.6471 110.866 23.5294C110.925 23.3922 110.954 23.2451 110.954 23.0882C110.954 22.9118 110.984 22.7353 111.043 22.5588C111.122 22.3627 111.2 22.2255 111.279 22.1471C111.279 22.0882 111.299 21.9804 111.338 21.8235C111.397 21.6667 111.427 21.5588 111.427 21.5C111.427 21.4608 111.446 21.3922 111.486 21.2941C111.545 21.1765 111.574 21.0882 111.574 21.0294C111.889 20.4216 112.44 19.0588 113.228 16.9412C114.015 14.8039 114.409 13.6176 114.409 13.3824C114.409 13.2255 114.468 13.0784 114.586 12.9412C114.704 12.8039 114.842 12.7353 114.999 12.7353C115.058 12.6765 115.186 12.6373 115.383 12.6176C115.58 12.5784 115.738 12.5588 115.856 12.5588L116.328 13.0294C116.545 13.2255 116.712 13.402 116.83 13.5588C116.948 13.7157 117.007 13.902 117.007 14.1176C117.007 14.4706 116.938 14.8235 116.801 15.1765C116.682 15.5098 116.318 16.3137 115.708 17.5882C115.669 17.6863 115.511 18.0392 115.236 18.6471C115.039 19.0392 114.94 19.2647 114.94 19.3235C114.94 19.3824 114.901 19.5098 114.822 19.7059C114.744 19.8824 114.675 20.0686 114.616 20.2647C114.458 20.5784 114.202 21.1373 113.848 21.9412C113.513 22.7255 113.346 23.1569 113.346 23.2353C113.346 23.451 113.297 23.6078 113.198 23.7059C113.139 23.7059 113.1 23.7549 113.08 23.8529C113.061 23.9314 113.051 23.9902 113.051 24.0294C113.051 24.2255 112.893 24.7451 112.578 25.5882L112.313 26.4412C111.939 27.7157 111.673 28.6471 111.515 29.2353C111.378 29.8235 111.309 30.3235 111.309 30.7353C111.309 31.1667 111.24 31.5196 111.102 31.7941C110.964 32.0686 110.807 32.2451 110.63 32.3235Z"/>
<path d="M114.755 31.3824C114.696 31.2647 114.529 31.1078 114.253 30.9118C113.978 30.7157 113.84 30.598 113.84 30.5588C113.84 30.4804 113.791 30.3726 113.692 30.2353C113.614 30.0784 113.535 29.9412 113.456 29.8235C113.299 29.6667 113.407 29.1569 113.781 28.2941C114.155 27.4314 114.657 26.4118 115.287 25.2353C115.405 25.1176 115.553 24.9118 115.73 24.6176C115.927 24.3235 116.055 24.1569 116.114 24.1177C116.114 24.0392 116.143 23.9706 116.202 23.9118C116.261 23.8333 116.33 23.7941 116.409 23.7941L116.645 23.3235C116.724 23.1471 117.108 22.7255 117.797 22.0588C118.486 21.3922 119.027 20.9412 119.421 20.7059C119.795 20.451 120.198 20.3235 120.631 20.3235C121.103 20.3235 121.507 20.4608 121.842 20.7353L122.639 21.4118C123.229 21.902 123.564 22.1863 123.643 22.2647L124.735 23.2353L124.233 24.7059C124.056 25.2353 123.968 25.7353 123.968 26.2059C123.968 26.951 124.174 27.6471 124.588 28.2941C124.686 28.5098 124.814 28.6765 124.971 28.7941C125.149 28.9118 125.375 28.9902 125.651 29.0294C126.084 29.1078 126.3 29.3235 126.3 29.6765C126.3 30.1078 126.221 30.4314 126.064 30.6471C125.906 30.8627 125.719 31 125.503 31.0588C125.188 31.098 124.971 31.1176 124.853 31.1176C124.282 31.1176 123.761 30.9706 123.288 30.6765C122.816 30.3824 122.403 29.8824 122.048 29.1765C121.97 29.0588 121.861 28.8431 121.724 28.5294C121.605 28.2157 121.537 28 121.517 27.8824C121.379 28.0784 121.153 28.3333 120.838 28.6471C118.81 30.6863 117.167 31.7059 115.907 31.7059C115.474 31.7059 115.09 31.598 114.755 31.3824ZM116.379 28.9412C116.694 28.9804 117.304 28.6275 118.21 27.8824C118.308 27.8039 118.417 27.7157 118.535 27.6176C118.653 27.5 118.781 27.3824 118.919 27.2647C119.47 26.8137 119.893 26.4412 120.188 26.1471C120.503 25.8333 120.818 25.4608 121.133 25.0294L121.783 23.9706C121.586 23.5392 121.409 23.2549 121.251 23.1177C121.094 22.9608 120.936 22.8824 120.779 22.8824C120.385 22.8824 119.893 23.2353 119.302 23.9412C118.712 24.6275 118.003 25.6765 117.177 27.0882C116.96 27.4412 116.783 27.8137 116.645 28.2059C116.507 28.5784 116.419 28.8235 116.379 28.9412Z"/>
<path d="M137.676 25.1176C137.676 25.4314 137.519 26.2353 137.204 27.5294C137.164 27.7059 137.076 28.0882 136.938 28.6765C136.82 29.2451 136.751 29.6765 136.731 29.9706C136.731 30.1863 136.771 30.4118 136.849 30.6471C136.948 30.8627 136.997 30.9902 136.997 31.0294C136.997 31.2255 136.909 31.4216 136.731 31.6176C136.554 31.7941 136.328 31.8824 136.052 31.8824C135.56 31.8824 135.137 31.6765 134.783 31.2647C134.428 30.8333 134.251 30.2745 134.251 29.5882C134.251 29 134.468 27.902 134.901 26.2941C134.94 26.0784 134.97 25.9216 134.989 25.8235C135.029 25.7059 135.048 25.6078 135.048 25.5294C135.048 25.4314 135.019 25.3824 134.96 25.3824C134.822 25.3824 134.625 25.4804 134.369 25.6765C134.113 25.8529 133.838 26.0588 133.543 26.2941L132.804 26.9118C132.489 27.1078 131.83 27.6471 130.826 28.5294C130.688 28.6275 130.354 28.902 129.822 29.3529C129.31 29.7843 129.015 30 128.936 30C128.858 30 128.681 29.9412 128.405 29.8235C128.149 29.6863 127.903 29.5196 127.667 29.3235C127.45 29.1275 127.342 28.902 127.342 28.6471C127.342 28.3529 127.519 27.6765 127.874 26.6176C128.228 25.5588 128.651 24.5196 129.143 23.5C129.202 23.3431 129.271 23.049 129.35 22.6176C129.429 21.9118 129.557 21.4706 129.734 21.2941C129.852 21.098 130.019 21 130.236 21C130.629 21 130.993 21.1961 131.328 21.5882C131.682 21.9804 131.86 22.4118 131.86 22.8824C131.86 23.2157 131.761 23.6569 131.564 24.2059C131.387 24.7353 131.259 25.049 131.18 25.1471C131.24 25.1078 131.358 25.0098 131.535 24.8529C131.732 24.6765 131.988 24.4902 132.302 24.2941C132.972 23.7843 133.474 23.4412 133.808 23.2647C134.143 23.0686 134.379 22.9216 134.517 22.8235C134.596 22.7647 134.655 22.7255 134.694 22.7059C134.753 22.6667 134.792 22.6471 134.812 22.6471C134.871 22.6275 134.979 22.5882 135.137 22.5294C135.314 22.451 135.452 22.4118 135.55 22.4118C135.846 22.4118 136.151 22.5196 136.466 22.7353C136.8 22.9314 136.968 23.1373 136.968 23.3529C136.968 23.4118 137.036 23.5196 137.174 23.6765C137.312 23.8137 137.43 23.9902 137.529 24.2059C137.627 24.402 137.676 24.7059 137.676 25.1176Z"/>
<path d="M142.341 33.7647C141.573 33.7451 141.022 33.5588 140.687 33.2059C140.372 32.8726 140.215 32.3922 140.215 31.7647C140.215 31.6078 140.235 31.3529 140.274 31C140.353 30.7255 140.412 30.451 140.451 30.1765C140.55 29.7451 140.648 29.4902 140.746 29.4118C140.766 29.3922 140.786 29.3529 140.806 29.2941C140.825 29.2353 140.806 29.1863 140.746 29.1471C140.746 28.8922 140.835 28.5392 141.012 28.0882C141.052 27.951 141.101 27.8137 141.16 27.6765C141.219 27.5392 141.258 27.451 141.278 27.4118C141.239 27.3726 141.219 27.3137 141.219 27.2353C141.219 27.1373 141.268 27.0392 141.367 26.9412C141.485 26.8431 141.563 26.7549 141.603 26.6765C141.662 26.598 141.662 26.5196 141.603 26.4412C141.563 26.3431 141.75 25.902 142.164 25.1176C142.42 24.6078 142.557 24.3235 142.577 24.2647C142.557 24.2059 142.695 23.8431 142.99 23.1765C143.305 22.5098 143.551 22.0098 143.729 21.6765C143.906 21.5784 143.837 21.5098 143.522 21.4706C143.207 21.4314 142.823 21.4216 142.37 21.4412C141.721 21.4216 141.219 21.3922 140.865 21.3529C140.51 21.2941 140.225 21.2059 140.008 21.0882C139.871 20.951 139.802 20.7745 139.802 20.5588C139.802 20.3039 139.89 20.0686 140.067 19.8529C140.264 19.6373 140.5 19.5196 140.776 19.5C141.288 19.4804 142.075 19.4118 143.138 19.2941L144.644 19.1765L144.733 18.6765C144.831 18.5 144.92 18.3529 144.998 18.2353C145.097 18.098 145.156 17.9804 145.175 17.8824C145.215 17.7843 145.244 17.6373 145.264 17.4412C145.323 17.3627 145.421 17.1667 145.559 16.8529C145.717 16.5392 145.815 16.2353 145.854 15.9412C146.071 15.5686 146.268 15.2157 146.445 14.8824C146.642 14.5294 146.76 14.3235 146.799 14.2647C147.154 13.7353 147.547 13.4706 147.98 13.4706C148.217 13.4706 148.463 13.549 148.719 13.7059C148.974 13.8824 149.171 14.0392 149.309 14.1765C149.447 14.3137 149.516 14.5 149.516 14.7353C149.516 14.9118 149.427 15.1667 149.25 15.5C149.171 15.6569 149.053 15.9706 148.896 16.4412C148.758 16.6176 148.61 16.8627 148.453 17.1765C148.295 17.4706 148.187 17.7549 148.128 18.0294C148.089 18.1275 148.03 18.2647 147.951 18.4412C147.872 18.598 147.813 18.6961 147.774 18.7353C147.754 18.7549 147.715 18.7647 147.656 18.7647C147.675 18.8824 147.715 18.9608 147.774 19C147.833 19.0392 147.931 19.0588 148.069 19.0588C148.167 19.0588 148.285 19.049 148.423 19.0294C148.581 19.0098 148.768 19 148.984 19C149.181 18.9804 149.348 18.951 149.486 18.9118C149.644 18.8726 149.791 18.8529 149.929 18.8529C150.008 18.8529 150.126 18.8824 150.283 18.9412C150.382 19.0588 150.431 19.2843 150.431 19.6176C150.431 19.8725 150.392 20.1177 150.313 20.3529C150.234 20.5686 150.136 20.7059 150.018 20.7647C149.919 20.7843 149.703 20.8431 149.368 20.9412C149.033 21.0392 148.669 21.098 148.276 21.1176L146.711 21.2647L146.209 22.2647C146.071 22.5 145.953 22.7255 145.854 22.9412C145.756 23.1569 145.687 23.2843 145.648 23.3235C145.648 23.4216 145.569 23.6176 145.412 23.9118C145.254 24.2059 145.136 24.4412 145.057 24.6176C144.959 24.8922 144.841 25.1667 144.703 25.4412C144.565 25.6961 144.477 25.8627 144.437 25.9412C144.378 25.9412 144.339 25.9608 144.319 26C144.319 26.0196 144.319 26.0588 144.319 26.1176L144.378 26.3529C144.378 26.451 144.329 26.549 144.231 26.6471C144.152 26.6863 144.073 26.7549 143.994 26.8529C143.935 26.951 143.896 27.0196 143.876 27.0588C143.916 27.098 143.935 27.1471 143.935 27.2059C143.935 27.3431 143.866 27.5196 143.729 27.7353C143.729 28.0686 143.591 28.5686 143.315 29.2353C143.335 29.5882 143.355 29.8137 143.374 29.9118C143.394 30.0098 143.443 30.049 143.522 30.0294H143.67L144.319 30C144.457 29.9412 144.486 30.0882 144.408 30.4412C144.349 30.7941 144.181 31.3333 143.906 32.0588C143.611 32.5098 143.296 32.902 142.961 33.2353C142.646 33.5882 142.439 33.7647 142.341 33.7647Z"/>
<path d="M151.732 32.4412C151.259 32.4412 150.767 32.3431 150.256 32.1471C149.763 31.951 149.34 31.7157 148.986 31.4412C148.651 31.1471 148.484 30.8824 148.484 30.6471C148.484 30.4118 148.592 30.2647 148.809 30.2059L148.956 30.0882C148.996 30.0686 149.074 30.0588 149.193 30.0588C149.271 30.0392 149.37 30.049 149.488 30.0882C149.606 30.1078 149.704 30.1176 149.783 30.1176C149.921 30.1569 150.128 30.1961 150.403 30.2353L151.171 30.3235C151.565 30.3235 151.929 30.2843 152.263 30.2059C152.618 30.1275 152.795 30.0392 152.795 29.9412C152.795 29.8824 152.716 29.7843 152.559 29.6471C152.401 29.5098 152.234 29.4412 152.057 29.4412C152.057 29.3627 151.752 29.098 151.141 28.6471C150.807 28.3922 150.482 28.1373 150.167 27.8824C149.872 27.6275 149.724 27.4412 149.724 27.3235L149.754 27.2647V27.1176C149.616 27.1176 149.488 26.9314 149.37 26.5588C149.252 26.1863 149.193 25.8235 149.193 25.4706C149.193 24.8039 149.488 24.0686 150.078 23.2647C150.669 22.4608 151.397 21.7353 152.263 21.0882C153.149 20.4412 153.986 20 154.773 19.7647C155.068 19.6275 155.501 19.5588 156.072 19.5588C156.446 19.5588 156.702 19.598 156.84 19.6765L157.076 19.6176C157.312 19.6176 157.617 19.8137 157.991 20.2059C158.365 20.598 158.602 20.9118 158.7 21.1471C158.7 21.7941 158.68 22.3137 158.641 22.7059C158.602 23.098 158.503 23.2941 158.346 23.2941C158.326 23.2941 158.296 23.3039 158.257 23.3235C158.218 23.3431 158.198 23.3922 158.198 23.4706C158.198 23.7451 157.952 24.049 157.46 24.3824C156.987 24.7157 156.554 24.8824 156.161 24.8824L156.043 24.8529C155.925 24.8333 155.747 24.7157 155.511 24.5C155.295 24.2843 155.186 24.0686 155.186 23.8529C155.186 23.7941 155.304 23.6373 155.541 23.3824C155.777 23.1275 155.974 22.8824 156.131 22.6471C156.308 22.3922 156.397 22.1275 156.397 21.8529C156.397 21.7549 156.358 21.6961 156.279 21.6765C156.22 21.6373 156.092 21.6176 155.895 21.6176C154.812 22.1078 154.035 22.5686 153.562 23C153.503 23.1176 153.444 23.2059 153.385 23.2647C153.346 23.3235 153.287 23.3529 153.208 23.3529C153.208 23.3333 153.198 23.3235 153.179 23.3235C153.139 23.3235 153.011 23.4412 152.795 23.6765C152.578 23.8922 152.372 24.1471 152.175 24.4412C151.998 24.7353 151.889 25.0098 151.85 25.2647L151.791 25.3529V25.5C151.771 25.5392 151.761 25.6176 151.761 25.7353C151.761 25.9118 151.84 26.098 151.998 26.2941C152.155 26.4706 152.47 26.7255 152.942 27.0588C153.828 27.7255 154.429 28.2255 154.743 28.5588C155.078 28.8725 155.285 29.1569 155.364 29.4118C155.541 29.7647 155.629 30.0784 155.629 30.3529C155.629 31.0196 155.275 31.5392 154.566 31.9118C153.877 32.2647 152.933 32.4412 151.732 32.4412Z"/>
</mask>
<path d="M33.2479 33.9412C32.1456 33.6667 31.3287 33.1078 30.7972 32.2647C30.2657 31.4216 30 30.2451 30 28.7353C30 27.4216 30.187 25.8726 30.561 24.0882C30.8563 22.6569 31.3582 20.951 32.0668 18.9706C32.7951 16.9706 33.5333 15.3137 34.2813 14C34.734 13.2353 35.1277 12.7059 35.4623 12.4118C35.797 12.1176 36.1218 11.9902 36.4367 12.0294C36.8698 12.1078 37.2142 12.2941 37.4701 12.5882C37.726 12.8627 37.854 13.1667 37.854 13.5C37.854 13.8922 37.6866 14.1961 37.352 14.4118C37.1945 14.5882 36.978 14.9412 36.7024 15.4706C36.4269 15.9804 36.2497 16.3039 36.171 16.4412L35.4623 17.7647C34.7734 19.7255 34.2616 21.2353 33.927 22.2941C33.612 23.3529 33.3561 24.4706 33.1593 25.6471C32.805 27.2745 32.5983 28.2451 32.5393 28.5588C32.4999 28.8529 32.4802 29.2647 32.4802 29.7941C32.5393 29.9118 32.618 30.0686 32.7164 30.2647C32.8148 30.4412 32.9034 30.5784 32.9821 30.6765C33.0609 30.7549 33.1495 30.8039 33.2479 30.8235C33.6022 30.9804 33.927 31.0588 34.2222 31.0588C34.5766 31.0588 34.9702 30.9412 35.4033 30.7059C35.482 30.549 35.5903 30.4314 35.7281 30.3529C35.8856 30.2549 35.984 30.1961 36.0233 30.1765C36.0627 30.2353 36.0922 30.2647 36.1119 30.2647C36.171 30.2647 36.2202 30.1961 36.2595 30.0588V30.0294C36.2595 29.9314 36.3481 29.7941 36.5253 29.6176C36.7221 29.5392 36.9879 29.2941 37.3225 28.8824C37.6768 28.451 37.9918 28.0098 38.2673 27.5588C38.5626 27.0882 38.7102 26.7941 38.7102 26.6765C38.7102 26.5784 38.7594 26.4706 38.8579 26.3529C38.976 26.2353 39.0547 26.1569 39.0941 26.1176C39.2318 25.9804 39.5763 25.3824 40.1275 24.3235C40.6983 23.2647 41.2199 22.2451 41.6924 21.2647C41.9876 20.3039 42.3912 18.951 42.9029 17.2059C43.4344 15.4608 43.7494 14.3431 43.8478 13.8529C43.8871 13.598 43.9462 13.3824 44.0249 13.2059C44.1037 13.0294 44.1529 12.9118 44.1726 12.8529C44.33 12.7353 44.4974 12.6765 44.6745 12.6765C44.9895 12.6765 45.3142 12.7843 45.6489 13C45.9835 13.1961 46.1803 13.3137 46.2394 13.3529C46.3378 13.4706 46.387 13.6373 46.387 13.8529C46.387 14.0882 46.2984 14.5784 46.1213 15.3235C46.0229 15.7157 45.8949 16.3039 45.7374 17.0882C45.4225 18.3235 45.0485 19.4902 44.6155 20.5882C44.1824 21.6863 43.6214 23.0098 42.9325 24.5588C42.8537 24.7353 42.7652 24.9314 42.6667 25.1471C42.5683 25.3431 42.4699 25.5686 42.3715 25.8235V26C42.1353 26.1373 41.9483 26.3431 41.8105 26.6176C41.7514 26.7157 41.6727 26.8529 41.5743 27.0294C41.4955 27.1863 41.4069 27.2941 41.3085 27.3529C41.2495 27.5294 41.1904 27.6765 41.1314 27.7941C41.092 27.9118 41.0625 27.9902 41.0428 28.0294C41.0231 28.1471 40.9345 28.2549 40.7771 28.3529C40.6196 28.451 40.5212 28.5098 40.4818 28.5294C40.4031 28.5686 40.344 28.6569 40.3046 28.7941C40.2653 28.9314 40.2259 29.0196 40.1865 29.0588C39.5173 30.0588 38.661 31.0196 37.6178 31.9412C36.5745 32.8627 35.6592 33.4706 34.8718 33.7647C34.4781 33.9216 34.1337 34 33.8384 34C33.5825 34 33.3857 33.9804 33.2479 33.9412Z" fill="#2E3B38"/>
<path d="M43.9419 31.3824C43.6663 31.1667 43.4498 30.9608 43.2923 30.7647C43.1348 30.5686 43.0856 30.2941 43.1447 29.9412C43.2037 29.2745 43.3514 28.5 43.5876 27.6176L43.7352 27.0294C43.7943 26.5 44.0994 25.4608 44.6505 23.9118C45.2214 22.3431 45.6938 21.2843 46.0678 20.7353C46.2646 20.5392 46.5992 20.4412 47.0717 20.4412C47.4653 20.4412 47.7409 20.5196 47.8984 20.6765C48.0559 20.7941 48.1346 20.9902 48.1346 21.2647C48.1346 21.7157 47.8492 22.5098 47.2783 23.6471L46.9831 24.2647C46.8453 24.5196 46.7272 24.7549 46.6288 24.9706C46.55 25.1863 46.5599 25.2843 46.6583 25.2647C46.8748 24.8922 47.3965 24.3824 48.2232 23.7353C49.0696 23.0882 49.6503 22.6863 49.9652 22.5294C50.103 22.451 50.2802 22.3726 50.4967 22.2941C50.7132 22.2157 50.8609 22.1569 50.9396 22.1177C51.2939 21.9412 51.6974 21.8529 52.1502 21.8529C52.4651 21.8529 52.7308 21.902 52.9474 22C53.1836 22.0784 53.3411 22.2059 53.4198 22.3824C53.4395 22.5196 53.4887 22.6275 53.5674 22.7059C53.6658 22.7843 53.7347 22.8333 53.7741 22.8529C53.8332 22.8529 53.8725 22.8824 53.8922 22.9412C53.9119 22.9804 53.9217 23.0098 53.9217 23.0294C53.9217 23.1863 53.7839 23.3922 53.5084 23.6471C53.2328 23.8824 52.9474 24.0098 52.6521 24.0294C52.4356 24.049 52.2092 24.098 51.973 24.1765C51.7368 24.2549 51.5006 24.3529 51.2644 24.4706L50.4967 24.9118C49.8274 25.2451 49.2566 25.5784 48.7842 25.9118C48.3314 26.2255 47.8689 26.6373 47.3965 27.1471C47.298 27.2451 47.1504 27.3824 46.9536 27.5588C46.7764 27.7353 46.6189 27.9412 46.4811 28.1765C46.3433 28.3137 46.1957 28.6765 46.0382 29.2647C45.9005 29.8333 45.8316 30.1863 45.8316 30.3235C45.8119 30.3824 45.7725 30.5 45.7135 30.6765C45.6544 30.8529 45.5658 31.0098 45.4477 31.1471C45.2706 31.3627 45.1229 31.5196 45.0048 31.6176C44.8867 31.7157 44.7588 31.7647 44.621 31.7647C44.4241 31.7647 44.1978 31.6373 43.9419 31.3824Z" fill="#2E3B38"/>
<path d="M56.2352 31.7647C55.8808 31.8431 55.3494 31.7255 54.6407 31.4118C53.9518 31.0784 53.4892 30.7843 53.253 30.5294C53.1546 30.3922 53.1054 30.2843 53.1054 30.2059C53.1054 30.1275 53.1349 30.0588 53.194 30C53.253 29.9412 53.3317 29.9118 53.4302 29.9118C53.5483 29.9118 53.6861 29.8137 53.8435 29.6176C54.001 29.4216 54.0994 29.1275 54.1388 28.7353C54.1585 28.5 54.2077 28.2745 54.2864 28.0588C54.3652 27.8235 54.4045 27.6667 54.4045 27.5882C54.4242 27.5294 54.4439 27.3726 54.4636 27.1177C54.503 26.8431 54.562 26.6078 54.6407 26.4118C54.7588 25.902 54.9458 25.1863 55.2017 24.2647C55.4773 23.3235 55.7037 22.6177 55.8808 22.1471C55.9202 21.7941 56.1269 21.2549 56.5009 20.5294C56.8749 19.5294 57.4851 18.1078 58.3315 16.2647C59.1976 14.4216 59.7291 13.3726 59.9259 13.1177C60.0834 13 60.2802 12.9412 60.5165 12.9412C60.9495 12.9412 61.294 13.0686 61.5499 13.3235C61.6089 13.3824 61.6877 13.4804 61.7861 13.6176C61.9042 13.7353 61.9928 13.8529 62.0518 13.9706C62.1109 14.0882 62.1404 14.1961 62.1404 14.2941C62.1404 14.451 62.0715 14.6078 61.9337 14.7647L61.1365 16.0294C61.0184 16.3824 60.7625 16.9706 60.3688 17.7941C59.8177 18.9314 59.3649 20 59.0106 21C58.8728 21.3137 58.7252 21.6765 58.5677 22.0882C58.4299 22.5 58.3315 22.7353 58.2725 22.7941C58.2134 23.0882 58.1051 23.3824 57.9477 23.6765C57.7902 24.0098 57.6721 24.3824 57.5934 24.7941L58.6563 23.7647C59.4633 22.902 60.172 22.2647 60.7822 21.8529C61.3924 21.4216 61.9435 21.2059 62.4356 21.2059C62.849 21.2059 63.3018 21.3627 63.7939 21.6765C64.286 21.9902 64.6107 22.3333 64.7682 22.7059C64.9257 23.0784 65.0044 23.5392 65.0044 24.0882C65.0044 24.6569 64.9159 25.2353 64.7387 25.8235C64.5615 26.4118 64.3056 26.9216 63.971 27.3529C63.7742 27.7059 63.5183 28.0588 63.2033 28.4118C62.9081 28.7451 62.6423 29 62.4061 29.1765C61.8747 29.6667 61.5302 29.9706 61.3727 30.0882C61.1562 30.2451 60.9495 30.3824 60.7527 30.5C60.5755 30.598 60.359 30.6863 60.1031 30.7647C59.7291 31.0196 59.2173 31.2255 58.5677 31.3824C57.9378 31.5196 57.1603 31.6471 56.2352 31.7647ZM56.9733 29.5294C57.2095 29.5294 57.4949 29.4902 57.8296 29.4118C58.1642 29.3333 58.4693 29.1961 58.7449 29C59.985 28.3725 60.9101 27.6373 61.5203 26.7941C62.1502 25.951 62.4652 25.1569 62.4652 24.4118C62.4652 23.9412 62.3274 23.7059 62.0518 23.7059C61.6188 23.7059 60.8314 24.2745 59.6897 25.4118C59.1582 25.902 58.6071 26.4804 58.0362 27.1471L57.5934 27.6471C57.5146 27.7647 57.3965 27.9216 57.239 28.1176C57.0816 28.3137 56.993 28.4706 56.9733 28.5882C56.8946 28.9412 56.8552 29.1863 56.8552 29.3235C56.8552 29.4608 56.8946 29.5294 56.9733 29.5294Z" fill="#2E3B38"/>
<path d="M66.6678 31.5588C66.6088 31.4412 66.4414 31.2843 66.1659 31.0882C65.8903 30.8922 65.7525 30.7745 65.7525 30.7353C65.7525 30.6569 65.7033 30.549 65.6049 30.4118C65.5261 30.2549 65.4474 30.1176 65.3687 30C65.2112 29.8431 65.3195 29.3333 65.6935 28.4706C66.0674 27.6078 66.5694 26.5882 67.1993 25.4118C67.3174 25.2941 67.465 25.0882 67.6422 24.7941C67.839 24.5 67.967 24.3333 68.026 24.2941C68.026 24.2157 68.0555 24.1471 68.1146 24.0882C68.1736 24.0098 68.2425 23.9706 68.3213 23.9706L68.5575 23.5C68.6362 23.3235 69.0201 22.902 69.709 22.2353C70.398 21.5686 70.9393 21.1177 71.3329 20.8824C71.7069 20.6275 72.1105 20.5 72.5435 20.5C73.0159 20.5 73.4195 20.6373 73.7541 20.9118L74.5513 21.5882C75.1418 22.0784 75.4765 22.3627 75.5552 22.4412L76.6477 23.4118L76.1457 24.8824C75.9686 25.4118 75.88 25.9118 75.88 26.3824C75.88 27.1275 76.0867 27.8235 76.5 28.4706C76.5984 28.6863 76.7264 28.8529 76.8839 28.9706C77.061 29.0882 77.2874 29.1667 77.563 29.2059C77.996 29.2843 78.2125 29.5 78.2125 29.8529C78.2125 30.2843 78.1338 30.6078 77.9763 30.8235C77.8189 31.0392 77.6319 31.1765 77.4153 31.2353C77.1004 31.2745 76.8839 31.2941 76.7658 31.2941C76.1949 31.2941 75.6733 31.1471 75.2009 30.8529C74.7285 30.5588 74.3151 30.0588 73.9608 29.3529C73.882 29.2353 73.7738 29.0196 73.636 28.7059C73.5179 28.3922 73.449 28.1765 73.4293 28.0588C73.2915 28.2549 73.0651 28.5098 72.7502 28.8235C70.7227 30.8627 69.0791 31.8824 67.8193 31.8824C67.3863 31.8824 67.0024 31.7745 66.6678 31.5588ZM68.2918 29.1176C68.6067 29.1569 69.2169 28.8039 70.1224 28.0588C70.2208 27.9804 70.3291 27.8922 70.4472 27.7941C70.5653 27.6765 70.6932 27.5588 70.831 27.4412C71.3822 26.9902 71.8054 26.6176 72.1006 26.3235C72.4156 26.0098 72.7305 25.6373 73.0455 25.2059L73.695 24.1471C73.4982 23.7157 73.321 23.4314 73.1636 23.2941C73.0061 23.1373 72.8486 23.0588 72.6912 23.0588C72.2975 23.0588 71.8054 23.4118 71.2148 24.1177C70.6243 24.8039 69.9157 25.8529 69.089 27.2647C68.8724 27.6176 68.6953 27.9902 68.5575 28.3824C68.4197 28.7549 68.3311 29 68.2918 29.1176Z" fill="#2E3B38"/>
<path d="M87.758 31.2941C87.4628 31.2941 87.1675 31.2157 86.8722 31.0588C86.577 30.902 86.3408 30.6667 86.1636 30.3529L86.016 30.0588C85.7798 29.3922 85.6617 28.7451 85.6617 28.1176V26.8235C85.6617 26.6078 85.642 26.5 85.6026 26.5C85.4451 26.5 84.766 27.1373 83.5653 28.4118C82.7189 29.2941 81.9807 29.9804 81.3509 30.4706C80.7406 30.9412 80.3174 31.1765 80.0812 31.1765C80.0025 31.1765 79.8155 31.1078 79.5202 30.9706C79.225 30.8137 79.038 30.6961 78.9592 30.6176C78.8214 30.4804 78.7329 30.3137 78.6935 30.1176C78.6541 29.9216 78.6344 29.549 78.6344 29C78.6344 28.3725 78.7624 27.6667 79.0183 26.8824C79.2742 26.0784 79.7072 25.0098 80.3174 23.6765C80.4749 23.402 80.6324 23.0686 80.7899 22.6765C81.2426 21.6569 81.6658 20.951 82.0595 20.5588C82.217 20.5588 82.3252 20.5686 82.3843 20.5882C82.6402 20.6078 82.9354 20.7255 83.2701 20.9412C83.6244 21.1569 83.8409 21.4412 83.9196 21.7941C83.9196 22.1275 83.8704 22.4608 83.772 22.7941C83.6736 23.1275 83.4472 23.5392 83.0929 24.0294C82.8764 24.3235 82.591 24.9608 82.2366 25.9412C82.1382 26.098 82.0004 26.3431 81.8233 26.6765C81.6658 26.9902 81.5871 27.1667 81.5871 27.2059C81.6067 27.2255 81.6658 27.1863 81.7642 27.0882C81.8626 26.9706 81.9611 26.8627 82.0595 26.7647L82.8567 25.9706C84.4117 24.4216 85.6125 23.6275 86.4589 23.5882C86.8919 23.5882 87.2758 23.8137 87.6104 24.2647C87.945 24.7157 88.1123 25.2549 88.1123 25.8824C88.1123 26 88.0927 26.3333 88.0533 26.8824V28.5588C88.506 28.4412 88.8505 28.3333 89.0867 28.2353C89.5788 28.0588 90.0906 27.951 90.6221 27.9118C90.5827 28.2451 90.3957 28.6863 90.0611 29.2353C89.7461 29.7843 89.3721 30.2647 88.9391 30.6765C88.506 31.0882 88.1123 31.2941 87.758 31.2941Z" fill="#2E3B38"/>
<path d="M96.323 33.6765C96.2245 33.6765 96.1163 33.6373 95.9982 33.5588C95.8997 33.5 95.8112 33.4118 95.7324 33.2941C95.575 33.1569 95.447 32.9902 95.3486 32.7941C95.2502 32.598 95.201 32.3039 95.201 31.9118C95.201 31.2255 95.4175 30.2353 95.8505 28.9412C95.9883 28.3922 96.136 27.8627 96.2934 27.3529C96.4312 27 96.5001 26.7353 96.5001 26.5588C96.5001 26.402 96.5198 26.2255 96.5592 26.0294C96.6182 25.8137 96.6477 25.6667 96.6477 25.5882C96.8839 25.5882 97.1005 25.1863 97.2973 24.3824C97.3761 24.0882 97.445 23.8431 97.504 23.6471C97.5631 23.4314 97.6024 23.2647 97.6221 23.1471C97.6615 23.0882 97.7009 23 97.7402 22.8824C97.7993 22.7647 97.8485 22.6569 97.8878 22.5588C98.0453 22.0882 98.2323 21.6373 98.4488 21.2059C98.6851 20.3235 98.9606 19.402 99.2756 18.4412C99.6102 17.4608 99.8858 16.7353 100.102 16.2647L100.457 15.3824C100.476 15.3235 100.516 15.2157 100.575 15.0588C100.653 14.8824 100.693 14.7549 100.693 14.6765C100.693 14.598 100.663 14.5392 100.604 14.5C100.466 14.402 100.398 14.2059 100.398 13.9118C100.398 13.4216 100.585 13.0196 100.959 12.7059C101.175 12.451 101.461 12.2745 101.815 12.1765C102.189 12.0588 102.632 12 103.144 12C103.36 12 103.744 12.0196 104.295 12.0588C104.531 12.0784 105.161 12.0882 106.185 12.0882C106.303 12.1471 106.519 12.2353 106.834 12.3529C107.504 12.6274 107.838 12.7941 107.838 12.8529C107.838 12.951 107.868 13.0196 107.927 13.0588C108.005 13.098 108.114 13.1275 108.252 13.1471C108.468 13.1471 108.852 13.4118 109.403 13.9412C109.974 14.4706 110.368 14.9608 110.584 15.4118C110.761 15.7647 110.879 16.0392 110.938 16.2353C111.017 16.4314 111.057 16.6765 111.057 16.9706C111.057 17.0882 111.037 17.3039 110.997 17.6176C110.958 17.9314 110.909 18.2353 110.85 18.5294C110.791 18.8235 110.722 19.0098 110.643 19.0882C110.328 19.3235 110.171 19.5294 110.171 19.7059C110.171 19.902 109.885 20.451 109.314 21.3529C108.744 22.2549 108.242 22.9118 107.809 23.3235C107.297 23.9118 106.687 24.4314 105.978 24.8824C105.151 25.2549 104.216 25.5784 103.173 25.8529C102.149 26.1275 101.372 26.2549 100.84 26.2353C100.211 26.3333 99.8169 26.4216 99.6594 26.5C99.5216 26.5588 99.4134 26.7157 99.3346 26.9706C99.2362 27.2451 99.1378 27.5196 99.0394 27.7941C98.9606 28.0686 98.9213 28.2549 98.9213 28.3529C98.8032 28.5686 98.5571 29.2255 98.1831 30.3235C97.8288 31.4216 97.5827 32.2647 97.445 32.8529C97.3662 33.1078 97.2087 33.3039 96.9725 33.4412C96.7363 33.598 96.5198 33.6765 96.323 33.6765ZM100.516 23.8529C100.555 23.8922 100.663 23.9118 100.84 23.9118C101.352 23.9118 102.022 23.7549 102.848 23.4412C103.557 23.2059 104.344 22.8235 105.21 22.2941C105.643 22 106.155 21.4804 106.746 20.7353C106.864 20.5392 107.1 20.0784 107.454 19.3529C107.612 19.0784 107.759 18.7255 107.897 18.2941C108.055 17.8627 108.133 17.4804 108.133 17.1471C108.133 16.9902 108.124 16.8726 108.104 16.7941C107.907 15.7745 107.336 15.098 106.391 14.7647C105.761 14.6667 105.319 14.6176 105.063 14.6176C104.925 14.6176 104.699 14.6373 104.384 14.6765C104.069 14.7745 103.842 14.9118 103.704 15.0882C103.586 15.2451 103.409 15.6176 103.173 16.2059C102.543 17.402 102.13 18.2647 101.933 18.7941C101.559 20.1275 101.234 21.1569 100.959 21.8824C100.683 22.5882 100.526 23 100.486 23.1177V23.2353C100.486 23.3529 100.476 23.4706 100.457 23.5882C100.437 23.7059 100.457 23.7941 100.516 23.8529Z" fill="#2E3B38"/>
<path d="M110.63 32.3235C110.57 32.3431 110.492 32.3529 110.393 32.3529C109.98 32.3529 109.635 32.1176 109.36 31.6471C109.084 31.1765 108.947 30.5784 108.947 29.8529C108.947 29.4608 108.986 29.0784 109.065 28.7059C109.281 28.1373 109.389 27.7255 109.389 27.4706C109.448 27.098 109.645 26.4314 109.98 25.4706C110.334 24.4902 110.561 23.902 110.659 23.7059C110.738 23.7059 110.807 23.6471 110.866 23.5294C110.925 23.3922 110.954 23.2451 110.954 23.0882C110.954 22.9118 110.984 22.7353 111.043 22.5588C111.122 22.3627 111.2 22.2255 111.279 22.1471C111.279 22.0882 111.299 21.9804 111.338 21.8235C111.397 21.6667 111.427 21.5588 111.427 21.5C111.427 21.4608 111.446 21.3922 111.486 21.2941C111.545 21.1765 111.574 21.0882 111.574 21.0294C111.889 20.4216 112.44 19.0588 113.228 16.9412C114.015 14.8039 114.409 13.6176 114.409 13.3824C114.409 13.2255 114.468 13.0784 114.586 12.9412C114.704 12.8039 114.842 12.7353 114.999 12.7353C115.058 12.6765 115.186 12.6373 115.383 12.6176C115.58 12.5784 115.738 12.5588 115.856 12.5588L116.328 13.0294C116.545 13.2255 116.712 13.402 116.83 13.5588C116.948 13.7157 117.007 13.902 117.007 14.1176C117.007 14.4706 116.938 14.8235 116.801 15.1765C116.682 15.5098 116.318 16.3137 115.708 17.5882C115.669 17.6863 115.511 18.0392 115.236 18.6471C115.039 19.0392 114.94 19.2647 114.94 19.3235C114.94 19.3824 114.901 19.5098 114.822 19.7059C114.744 19.8824 114.675 20.0686 114.616 20.2647C114.458 20.5784 114.202 21.1373 113.848 21.9412C113.513 22.7255 113.346 23.1569 113.346 23.2353C113.346 23.451 113.297 23.6078 113.198 23.7059C113.139 23.7059 113.1 23.7549 113.08 23.8529C113.061 23.9314 113.051 23.9902 113.051 24.0294C113.051 24.2255 112.893 24.7451 112.578 25.5882L112.313 26.4412C111.939 27.7157 111.673 28.6471 111.515 29.2353C111.378 29.8235 111.309 30.3235 111.309 30.7353C111.309 31.1667 111.24 31.5196 111.102 31.7941C110.964 32.0686 110.807 32.2451 110.63 32.3235Z" fill="#2E3B38"/>
<path d="M114.755 31.3824C114.696 31.2647 114.529 31.1078 114.253 30.9118C113.978 30.7157 113.84 30.598 113.84 30.5588C113.84 30.4804 113.791 30.3726 113.692 30.2353C113.614 30.0784 113.535 29.9412 113.456 29.8235C113.299 29.6667 113.407 29.1569 113.781 28.2941C114.155 27.4314 114.657 26.4118 115.287 25.2353C115.405 25.1176 115.553 24.9118 115.73 24.6176C115.927 24.3235 116.055 24.1569 116.114 24.1177C116.114 24.0392 116.143 23.9706 116.202 23.9118C116.261 23.8333 116.33 23.7941 116.409 23.7941L116.645 23.3235C116.724 23.1471 117.108 22.7255 117.797 22.0588C118.486 21.3922 119.027 20.9412 119.421 20.7059C119.795 20.451 120.198 20.3235 120.631 20.3235C121.103 20.3235 121.507 20.4608 121.842 20.7353L122.639 21.4118C123.229 21.902 123.564 22.1863 123.643 22.2647L124.735 23.2353L124.233 24.7059C124.056 25.2353 123.968 25.7353 123.968 26.2059C123.968 26.951 124.174 27.6471 124.588 28.2941C124.686 28.5098 124.814 28.6765 124.971 28.7941C125.149 28.9118 125.375 28.9902 125.651 29.0294C126.084 29.1078 126.3 29.3235 126.3 29.6765C126.3 30.1078 126.221 30.4314 126.064 30.6471C125.906 30.8627 125.719 31 125.503 31.0588C125.188 31.098 124.971 31.1176 124.853 31.1176C124.282 31.1176 123.761 30.9706 123.288 30.6765C122.816 30.3824 122.403 29.8824 122.048 29.1765C121.97 29.0588 121.861 28.8431 121.724 28.5294C121.605 28.2157 121.537 28 121.517 27.8824C121.379 28.0784 121.153 28.3333 120.838 28.6471C118.81 30.6863 117.167 31.7059 115.907 31.7059C115.474 31.7059 115.09 31.598 114.755 31.3824ZM116.379 28.9412C116.694 28.9804 117.304 28.6275 118.21 27.8824C118.308 27.8039 118.417 27.7157 118.535 27.6176C118.653 27.5 118.781 27.3824 118.919 27.2647C119.47 26.8137 119.893 26.4412 120.188 26.1471C120.503 25.8333 120.818 25.4608 121.133 25.0294L121.783 23.9706C121.586 23.5392 121.409 23.2549 121.251 23.1177C121.094 22.9608 120.936 22.8824 120.779 22.8824C120.385 22.8824 119.893 23.2353 119.302 23.9412C118.712 24.6275 118.003 25.6765 117.177 27.0882C116.96 27.4412 116.783 27.8137 116.645 28.2059C116.507 28.5784 116.419 28.8235 116.379 28.9412Z" fill="#2E3B38"/>
<path d="M137.676 25.1176C137.676 25.4314 137.519 26.2353 137.204 27.5294C137.164 27.7059 137.076 28.0882 136.938 28.6765C136.82 29.2451 136.751 29.6765 136.731 29.9706C136.731 30.1863 136.771 30.4118 136.849 30.6471C136.948 30.8627 136.997 30.9902 136.997 31.0294C136.997 31.2255 136.909 31.4216 136.731 31.6176C136.554 31.7941 136.328 31.8824 136.052 31.8824C135.56 31.8824 135.137 31.6765 134.783 31.2647C134.428 30.8333 134.251 30.2745 134.251 29.5882C134.251 29 134.468 27.902 134.901 26.2941C134.94 26.0784 134.97 25.9216 134.989 25.8235C135.029 25.7059 135.048 25.6078 135.048 25.5294C135.048 25.4314 135.019 25.3824 134.96 25.3824C134.822 25.3824 134.625 25.4804 134.369 25.6765C134.113 25.8529 133.838 26.0588 133.543 26.2941L132.804 26.9118C132.489 27.1078 131.83 27.6471 130.826 28.5294C130.688 28.6275 130.354 28.902 129.822 29.3529C129.31 29.7843 129.015 30 128.936 30C128.858 30 128.681 29.9412 128.405 29.8235C128.149 29.6863 127.903 29.5196 127.667 29.3235C127.45 29.1275 127.342 28.902 127.342 28.6471C127.342 28.3529 127.519 27.6765 127.874 26.6176C128.228 25.5588 128.651 24.5196 129.143 23.5C129.202 23.3431 129.271 23.049 129.35 22.6176C129.429 21.9118 129.557 21.4706 129.734 21.2941C129.852 21.098 130.019 21 130.236 21C130.629 21 130.993 21.1961 131.328 21.5882C131.682 21.9804 131.86 22.4118 131.86 22.8824C131.86 23.2157 131.761 23.6569 131.564 24.2059C131.387 24.7353 131.259 25.049 131.18 25.1471C131.24 25.1078 131.358 25.0098 131.535 24.8529C131.732 24.6765 131.988 24.4902 132.302 24.2941C132.972 23.7843 133.474 23.4412 133.808 23.2647C134.143 23.0686 134.379 22.9216 134.517 22.8235C134.596 22.7647 134.655 22.7255 134.694 22.7059C134.753 22.6667 134.792 22.6471 134.812 22.6471C134.871 22.6275 134.979 22.5882 135.137 22.5294C135.314 22.451 135.452 22.4118 135.55 22.4118C135.846 22.4118 136.151 22.5196 136.466 22.7353C136.8 22.9314 136.968 23.1373 136.968 23.3529C136.968 23.4118 137.036 23.5196 137.174 23.6765C137.312 23.8137 137.43 23.9902 137.529 24.2059C137.627 24.402 137.676 24.7059 137.676 25.1176Z" fill="#2E3B38"/>
<path d="M142.341 33.7647C141.573 33.7451 141.022 33.5588 140.687 33.2059C140.372 32.8726 140.215 32.3922 140.215 31.7647C140.215 31.6078 140.235 31.3529 140.274 31C140.353 30.7255 140.412 30.451 140.451 30.1765C140.55 29.7451 140.648 29.4902 140.746 29.4118C140.766 29.3922 140.786 29.3529 140.806 29.2941C140.825 29.2353 140.806 29.1863 140.746 29.1471C140.746 28.8922 140.835 28.5392 141.012 28.0882C141.052 27.951 141.101 27.8137 141.16 27.6765C141.219 27.5392 141.258 27.451 141.278 27.4118C141.239 27.3726 141.219 27.3137 141.219 27.2353C141.219 27.1373 141.268 27.0392 141.367 26.9412C141.485 26.8431 141.563 26.7549 141.603 26.6765C141.662 26.598 141.662 26.5196 141.603 26.4412C141.563 26.3431 141.75 25.902 142.164 25.1176C142.42 24.6078 142.557 24.3235 142.577 24.2647C142.557 24.2059 142.695 23.8431 142.99 23.1765C143.305 22.5098 143.551 22.0098 143.729 21.6765C143.906 21.5784 143.837 21.5098 143.522 21.4706C143.207 21.4314 142.823 21.4216 142.37 21.4412C141.721 21.4216 141.219 21.3922 140.865 21.3529C140.51 21.2941 140.225 21.2059 140.008 21.0882C139.871 20.951 139.802 20.7745 139.802 20.5588C139.802 20.3039 139.89 20.0686 140.067 19.8529C140.264 19.6373 140.5 19.5196 140.776 19.5C141.288 19.4804 142.075 19.4118 143.138 19.2941L144.644 19.1765L144.733 18.6765C144.831 18.5 144.92 18.3529 144.998 18.2353C145.097 18.098 145.156 17.9804 145.175 17.8824C145.215 17.7843 145.244 17.6373 145.264 17.4412C145.323 17.3627 145.421 17.1667 145.559 16.8529C145.717 16.5392 145.815 16.2353 145.854 15.9412C146.071 15.5686 146.268 15.2157 146.445 14.8824C146.642 14.5294 146.76 14.3235 146.799 14.2647C147.154 13.7353 147.547 13.4706 147.98 13.4706C148.217 13.4706 148.463 13.549 148.719 13.7059C148.974 13.8824 149.171 14.0392 149.309 14.1765C149.447 14.3137 149.516 14.5 149.516 14.7353C149.516 14.9118 149.427 15.1667 149.25 15.5C149.171 15.6569 149.053 15.9706 148.896 16.4412C148.758 16.6176 148.61 16.8627 148.453 17.1765C148.295 17.4706 148.187 17.7549 148.128 18.0294C148.089 18.1275 148.03 18.2647 147.951 18.4412C147.872 18.598 147.813 18.6961 147.774 18.7353C147.754 18.7549 147.715 18.7647 147.656 18.7647C147.675 18.8824 147.715 18.9608 147.774 19C147.833 19.0392 147.931 19.0588 148.069 19.0588C148.167 19.0588 148.285 19.049 148.423 19.0294C148.581 19.0098 148.768 19 148.984 19C149.181 18.9804 149.348 18.951 149.486 18.9118C149.644 18.8726 149.791 18.8529 149.929 18.8529C150.008 18.8529 150.126 18.8824 150.283 18.9412C150.382 19.0588 150.431 19.2843 150.431 19.6176C150.431 19.8725 150.392 20.1177 150.313 20.3529C150.234 20.5686 150.136 20.7059 150.018 20.7647C149.919 20.7843 149.703 20.8431 149.368 20.9412C149.033 21.0392 148.669 21.098 148.276 21.1176L146.711 21.2647L146.209 22.2647C146.071 22.5 145.953 22.7255 145.854 22.9412C145.756 23.1569 145.687 23.2843 145.648 23.3235C145.648 23.4216 145.569 23.6176 145.412 23.9118C145.254 24.2059 145.136 24.4412 145.057 24.6176C144.959 24.8922 144.841 25.1667 144.703 25.4412C144.565 25.6961 144.477 25.8627 144.437 25.9412C144.378 25.9412 144.339 25.9608 144.319 26C144.319 26.0196 144.319 26.0588 144.319 26.1176L144.378 26.3529C144.378 26.451 144.329 26.549 144.231 26.6471C144.152 26.6863 144.073 26.7549 143.994 26.8529C143.935 26.951 143.896 27.0196 143.876 27.0588C143.916 27.098 143.935 27.1471 143.935 27.2059C143.935 27.3431 143.866 27.5196 143.729 27.7353C143.729 28.0686 143.591 28.5686 143.315 29.2353C143.335 29.5882 143.355 29.8137 143.374 29.9118C143.394 30.0098 143.443 30.049 143.522 30.0294H143.67L144.319 30C144.457 29.9412 144.486 30.0882 144.408 30.4412C144.349 30.7941 144.181 31.3333 143.906 32.0588C143.611 32.5098 143.296 32.902 142.961 33.2353C142.646 33.5882 142.439 33.7647 142.341 33.7647Z" fill="#2E3B38"/>
<path d="M151.732 32.4412C151.259 32.4412 150.767 32.3431 150.256 32.1471C149.763 31.951 149.34 31.7157 148.986 31.4412C148.651 31.1471 148.484 30.8824 148.484 30.6471C148.484 30.4118 148.592 30.2647 148.809 30.2059L148.956 30.0882C148.996 30.0686 149.074 30.0588 149.193 30.0588C149.271 30.0392 149.37 30.049 149.488 30.0882C149.606 30.1078 149.704 30.1176 149.783 30.1176C149.921 30.1569 150.128 30.1961 150.403 30.2353L151.171 30.3235C151.565 30.3235 151.929 30.2843 152.263 30.2059C152.618 30.1275 152.795 30.0392 152.795 29.9412C152.795 29.8824 152.716 29.7843 152.559 29.6471C152.401 29.5098 152.234 29.4412 152.057 29.4412C152.057 29.3627 151.752 29.098 151.141 28.6471C150.807 28.3922 150.482 28.1373 150.167 27.8824C149.872 27.6275 149.724 27.4412 149.724 27.3235L149.754 27.2647V27.1176C149.616 27.1176 149.488 26.9314 149.37 26.5588C149.252 26.1863 149.193 25.8235 149.193 25.4706C149.193 24.8039 149.488 24.0686 150.078 23.2647C150.669 22.4608 151.397 21.7353 152.263 21.0882C153.149 20.4412 153.986 20 154.773 19.7647C155.068 19.6275 155.501 19.5588 156.072 19.5588C156.446 19.5588 156.702 19.598 156.84 19.6765L157.076 19.6176C157.312 19.6176 157.617 19.8137 157.991 20.2059C158.365 20.598 158.602 20.9118 158.7 21.1471C158.7 21.7941 158.68 22.3137 158.641 22.7059C158.602 23.098 158.503 23.2941 158.346 23.2941C158.326 23.2941 158.296 23.3039 158.257 23.3235C158.218 23.3431 158.198 23.3922 158.198 23.4706C158.198 23.7451 157.952 24.049 157.46 24.3824C156.987 24.7157 156.554 24.8824 156.161 24.8824L156.043 24.8529C155.925 24.8333 155.747 24.7157 155.511 24.5C155.295 24.2843 155.186 24.0686 155.186 23.8529C155.186 23.7941 155.304 23.6373 155.541 23.3824C155.777 23.1275 155.974 22.8824 156.131 22.6471C156.308 22.3922 156.397 22.1275 156.397 21.8529C156.397 21.7549 156.358 21.6961 156.279 21.6765C156.22 21.6373 156.092 21.6176 155.895 21.6176C154.812 22.1078 154.035 22.5686 153.562 23C153.503 23.1176 153.444 23.2059 153.385 23.2647C153.346 23.3235 153.287 23.3529 153.208 23.3529C153.208 23.3333 153.198 23.3235 153.179 23.3235C153.139 23.3235 153.011 23.4412 152.795 23.6765C152.578 23.8922 152.372 24.1471 152.175 24.4412C151.998 24.7353 151.889 25.0098 151.85 25.2647L151.791 25.3529V25.5C151.771 25.5392 151.761 25.6176 151.761 25.7353C151.761 25.9118 151.84 26.098 151.998 26.2941C152.155 26.4706 152.47 26.7255 152.942 27.0588C153.828 27.7255 154.429 28.2255 154.743 28.5588C155.078 28.8725 155.285 29.1569 155.364 29.4118C155.541 29.7647 155.629 30.0784 155.629 30.3529C155.629 31.0196 155.275 31.5392 154.566 31.9118C153.877 32.2647 152.933 32.4412 151.732 32.4412Z" fill="#2E3B38"/>
<path d="M33.2479 33.9412C32.1456 33.6667 31.3287 33.1078 30.7972 32.2647C30.2657 31.4216 30 30.2451 30 28.7353C30 27.4216 30.187 25.8726 30.561 24.0882C30.8563 22.6569 31.3582 20.951 32.0668 18.9706C32.7951 16.9706 33.5333 15.3137 34.2813 14C34.734 13.2353 35.1277 12.7059 35.4623 12.4118C35.797 12.1176 36.1218 11.9902 36.4367 12.0294C36.8698 12.1078 37.2142 12.2941 37.4701 12.5882C37.726 12.8627 37.854 13.1667 37.854 13.5C37.854 13.8922 37.6866 14.1961 37.352 14.4118C37.1945 14.5882 36.978 14.9412 36.7024 15.4706C36.4269 15.9804 36.2497 16.3039 36.171 16.4412L35.4623 17.7647C34.7734 19.7255 34.2616 21.2353 33.927 22.2941C33.612 23.3529 33.3561 24.4706 33.1593 25.6471C32.805 27.2745 32.5983 28.2451 32.5393 28.5588C32.4999 28.8529 32.4802 29.2647 32.4802 29.7941C32.5393 29.9118 32.618 30.0686 32.7164 30.2647C32.8148 30.4412 32.9034 30.5784 32.9821 30.6765C33.0609 30.7549 33.1495 30.8039 33.2479 30.8235C33.6022 30.9804 33.927 31.0588 34.2222 31.0588C34.5766 31.0588 34.9702 30.9412 35.4033 30.7059C35.482 30.549 35.5903 30.4314 35.7281 30.3529C35.8856 30.2549 35.984 30.1961 36.0233 30.1765C36.0627 30.2353 36.0922 30.2647 36.1119 30.2647C36.171 30.2647 36.2202 30.1961 36.2595 30.0588V30.0294C36.2595 29.9314 36.3481 29.7941 36.5253 29.6176C36.7221 29.5392 36.9879 29.2941 37.3225 28.8824C37.6768 28.451 37.9918 28.0098 38.2673 27.5588C38.5626 27.0882 38.7102 26.7941 38.7102 26.6765C38.7102 26.5784 38.7594 26.4706 38.8579 26.3529C38.976 26.2353 39.0547 26.1569 39.0941 26.1176C39.2318 25.9804 39.5763 25.3824 40.1275 24.3235C40.6983 23.2647 41.2199 22.2451 41.6924 21.2647C41.9876 20.3039 42.3912 18.951 42.9029 17.2059C43.4344 15.4608 43.7494 14.3431 43.8478 13.8529C43.8871 13.598 43.9462 13.3824 44.0249 13.2059C44.1037 13.0294 44.1529 12.9118 44.1726 12.8529C44.33 12.7353 44.4974 12.6765 44.6745 12.6765C44.9895 12.6765 45.3142 12.7843 45.6489 13C45.9835 13.1961 46.1803 13.3137 46.2394 13.3529C46.3378 13.4706 46.387 13.6373 46.387 13.8529C46.387 14.0882 46.2984 14.5784 46.1213 15.3235C46.0229 15.7157 45.8949 16.3039 45.7374 17.0882C45.4225 18.3235 45.0485 19.4902 44.6155 20.5882C44.1824 21.6863 43.6214 23.0098 42.9325 24.5588C42.8537 24.7353 42.7652 24.9314 42.6667 25.1471C42.5683 25.3431 42.4699 25.5686 42.3715 25.8235V26C42.1353 26.1373 41.9483 26.3431 41.8105 26.6176C41.7514 26.7157 41.6727 26.8529 41.5743 27.0294C41.4955 27.1863 41.4069 27.2941 41.3085 27.3529C41.2495 27.5294 41.1904 27.6765 41.1314 27.7941C41.092 27.9118 41.0625 27.9902 41.0428 28.0294C41.0231 28.1471 40.9345 28.2549 40.7771 28.3529C40.6196 28.451 40.5212 28.5098 40.4818 28.5294C40.4031 28.5686 40.344 28.6569 40.3046 28.7941C40.2653 28.9314 40.2259 29.0196 40.1865 29.0588C39.5173 30.0588 38.661 31.0196 37.6178 31.9412C36.5745 32.8627 35.6592 33.4706 34.8718 33.7647C34.4781 33.9216 34.1337 34 33.8384 34C33.5825 34 33.3857 33.9804 33.2479 33.9412Z" stroke="#2E3B38" stroke-width="0.6" mask="url(#path-2-outside-1)"/>
<path d="M43.9419 31.3824C43.6663 31.1667 43.4498 30.9608 43.2923 30.7647C43.1348 30.5686 43.0856 30.2941 43.1447 29.9412C43.2037 29.2745 43.3514 28.5 43.5876 27.6176L43.7352 27.0294C43.7943 26.5 44.0994 25.4608 44.6505 23.9118C45.2214 22.3431 45.6938 21.2843 46.0678 20.7353C46.2646 20.5392 46.5992 20.4412 47.0717 20.4412C47.4653 20.4412 47.7409 20.5196 47.8984 20.6765C48.0559 20.7941 48.1346 20.9902 48.1346 21.2647C48.1346 21.7157 47.8492 22.5098 47.2783 23.6471L46.9831 24.2647C46.8453 24.5196 46.7272 24.7549 46.6288 24.9706C46.55 25.1863 46.5599 25.2843 46.6583 25.2647C46.8748 24.8922 47.3965 24.3824 48.2232 23.7353C49.0696 23.0882 49.6503 22.6863 49.9652 22.5294C50.103 22.451 50.2802 22.3726 50.4967 22.2941C50.7132 22.2157 50.8609 22.1569 50.9396 22.1177C51.2939 21.9412 51.6974 21.8529 52.1502 21.8529C52.4651 21.8529 52.7308 21.902 52.9474 22C53.1836 22.0784 53.3411 22.2059 53.4198 22.3824C53.4395 22.5196 53.4887 22.6275 53.5674 22.7059C53.6658 22.7843 53.7347 22.8333 53.7741 22.8529C53.8332 22.8529 53.8725 22.8824 53.8922 22.9412C53.9119 22.9804 53.9217 23.0098 53.9217 23.0294C53.9217 23.1863 53.7839 23.3922 53.5084 23.6471C53.2328 23.8824 52.9474 24.0098 52.6521 24.0294C52.4356 24.049 52.2092 24.098 51.973 24.1765C51.7368 24.2549 51.5006 24.3529 51.2644 24.4706L50.4967 24.9118C49.8274 25.2451 49.2566 25.5784 48.7842 25.9118C48.3314 26.2255 47.8689 26.6373 47.3965 27.1471C47.298 27.2451 47.1504 27.3824 46.9536 27.5588C46.7764 27.7353 46.6189 27.9412 46.4811 28.1765C46.3433 28.3137 46.1957 28.6765 46.0382 29.2647C45.9005 29.8333 45.8316 30.1863 45.8316 30.3235C45.8119 30.3824 45.7725 30.5 45.7135 30.6765C45.6544 30.8529 45.5658 31.0098 45.4477 31.1471C45.2706 31.3627 45.1229 31.5196 45.0048 31.6176C44.8867 31.7157 44.7588 31.7647 44.621 31.7647C44.4241 31.7647 44.1978 31.6373 43.9419 31.3824Z" stroke="#2E3B38" stroke-width="0.6" mask="url(#path-2-outside-1)"/>
<path d="M56.2352 31.7647C55.8808 31.8431 55.3494 31.7255 54.6407 31.4118C53.9518 31.0784 53.4892 30.7843 53.253 30.5294C53.1546 30.3922 53.1054 30.2843 53.1054 30.2059C53.1054 30.1275 53.1349 30.0588 53.194 30C53.253 29.9412 53.3317 29.9118 53.4302 29.9118C53.5483 29.9118 53.6861 29.8137 53.8435 29.6176C54.001 29.4216 54.0994 29.1275 54.1388 28.7353C54.1585 28.5 54.2077 28.2745 54.2864 28.0588C54.3652 27.8235 54.4045 27.6667 54.4045 27.5882C54.4242 27.5294 54.4439 27.3726 54.4636 27.1177C54.503 26.8431 54.562 26.6078 54.6407 26.4118C54.7588 25.902 54.9458 25.1863 55.2017 24.2647C55.4773 23.3235 55.7037 22.6177 55.8808 22.1471C55.9202 21.7941 56.1269 21.2549 56.5009 20.5294C56.8749 19.5294 57.4851 18.1078 58.3315 16.2647C59.1976 14.4216 59.7291 13.3726 59.9259 13.1177C60.0834 13 60.2802 12.9412 60.5165 12.9412C60.9495 12.9412 61.294 13.0686 61.5499 13.3235C61.6089 13.3824 61.6877 13.4804 61.7861 13.6176C61.9042 13.7353 61.9928 13.8529 62.0518 13.9706C62.1109 14.0882 62.1404 14.1961 62.1404 14.2941C62.1404 14.451 62.0715 14.6078 61.9337 14.7647L61.1365 16.0294C61.0184 16.3824 60.7625 16.9706 60.3688 17.7941C59.8177 18.9314 59.3649 20 59.0106 21C58.8728 21.3137 58.7252 21.6765 58.5677 22.0882C58.4299 22.5 58.3315 22.7353 58.2725 22.7941C58.2134 23.0882 58.1051 23.3824 57.9477 23.6765C57.7902 24.0098 57.6721 24.3824 57.5934 24.7941L58.6563 23.7647C59.4633 22.902 60.172 22.2647 60.7822 21.8529C61.3924 21.4216 61.9435 21.2059 62.4356 21.2059C62.849 21.2059 63.3018 21.3627 63.7939 21.6765C64.286 21.9902 64.6107 22.3333 64.7682 22.7059C64.9257 23.0784 65.0044 23.5392 65.0044 24.0882C65.0044 24.6569 64.9159 25.2353 64.7387 25.8235C64.5615 26.4118 64.3056 26.9216 63.971 27.3529C63.7742 27.7059 63.5183 28.0588 63.2033 28.4118C62.9081 28.7451 62.6423 29 62.4061 29.1765C61.8747 29.6667 61.5302 29.9706 61.3727 30.0882C61.1562 30.2451 60.9495 30.3824 60.7527 30.5C60.5755 30.598 60.359 30.6863 60.1031 30.7647C59.7291 31.0196 59.2173 31.2255 58.5677 31.3824C57.9378 31.5196 57.1603 31.6471 56.2352 31.7647ZM56.9733 29.5294C57.2095 29.5294 57.4949 29.4902 57.8296 29.4118C58.1642 29.3333 58.4693 29.1961 58.7449 29C59.985 28.3725 60.9101 27.6373 61.5203 26.7941C62.1502 25.951 62.4652 25.1569 62.4652 24.4118C62.4652 23.9412 62.3274 23.7059 62.0518 23.7059C61.6188 23.7059 60.8314 24.2745 59.6897 25.4118C59.1582 25.902 58.6071 26.4804 58.0362 27.1471L57.5934 27.6471C57.5146 27.7647 57.3965 27.9216 57.239 28.1176C57.0816 28.3137 56.993 28.4706 56.9733 28.5882C56.8946 28.9412 56.8552 29.1863 56.8552 29.3235C56.8552 29.4608 56.8946 29.5294 56.9733 29.5294Z" stroke="#2E3B38" stroke-width="0.6" mask="url(#path-2-outside-1)"/>
<path d="M66.6678 31.5588C66.6088 31.4412 66.4414 31.2843 66.1659 31.0882C65.8903 30.8922 65.7525 30.7745 65.7525 30.7353C65.7525 30.6569 65.7033 30.549 65.6049 30.4118C65.5261 30.2549 65.4474 30.1176 65.3687 30C65.2112 29.8431 65.3195 29.3333 65.6935 28.4706C66.0674 27.6078 66.5694 26.5882 67.1993 25.4118C67.3174 25.2941 67.465 25.0882 67.6422 24.7941C67.839 24.5 67.967 24.3333 68.026 24.2941C68.026 24.2157 68.0555 24.1471 68.1146 24.0882C68.1736 24.0098 68.2425 23.9706 68.3213 23.9706L68.5575 23.5C68.6362 23.3235 69.0201 22.902 69.709 22.2353C70.398 21.5686 70.9393 21.1177 71.3329 20.8824C71.7069 20.6275 72.1105 20.5 72.5435 20.5C73.0159 20.5 73.4195 20.6373 73.7541 20.9118L74.5513 21.5882C75.1418 22.0784 75.4765 22.3627 75.5552 22.4412L76.6477 23.4118L76.1457 24.8824C75.9686 25.4118 75.88 25.9118 75.88 26.3824C75.88 27.1275 76.0867 27.8235 76.5 28.4706C76.5984 28.6863 76.7264 28.8529 76.8839 28.9706C77.061 29.0882 77.2874 29.1667 77.563 29.2059C77.996 29.2843 78.2125 29.5 78.2125 29.8529C78.2125 30.2843 78.1338 30.6078 77.9763 30.8235C77.8189 31.0392 77.6319 31.1765 77.4153 31.2353C77.1004 31.2745 76.8839 31.2941 76.7658 31.2941C76.1949 31.2941 75.6733 31.1471 75.2009 30.8529C74.7285 30.5588 74.3151 30.0588 73.9608 29.3529C73.882 29.2353 73.7738 29.0196 73.636 28.7059C73.5179 28.3922 73.449 28.1765 73.4293 28.0588C73.2915 28.2549 73.0651 28.5098 72.7502 28.8235C70.7227 30.8627 69.0791 31.8824 67.8193 31.8824C67.3863 31.8824 67.0024 31.7745 66.6678 31.5588ZM68.2918 29.1176C68.6067 29.1569 69.2169 28.8039 70.1224 28.0588C70.2208 27.9804 70.3291 27.8922 70.4472 27.7941C70.5653 27.6765 70.6932 27.5588 70.831 27.4412C71.3822 26.9902 71.8054 26.6176 72.1006 26.3235C72.4156 26.0098 72.7305 25.6373 73.0455 25.2059L73.695 24.1471C73.4982 23.7157 73.321 23.4314 73.1636 23.2941C73.0061 23.1373 72.8486 23.0588 72.6912 23.0588C72.2975 23.0588 71.8054 23.4118 71.2148 24.1177C70.6243 24.8039 69.9157 25.8529 69.089 27.2647C68.8724 27.6176 68.6953 27.9902 68.5575 28.3824C68.4197 28.7549 68.3311 29 68.2918 29.1176Z" stroke="#2E3B38" stroke-width="0.6" mask="url(#path-2-outside-1)"/>
<path d="M87.758 31.2941C87.4628 31.2941 87.1675 31.2157 86.8722 31.0588C86.577 30.902 86.3408 30.6667 86.1636 30.3529L86.016 30.0588C85.7798 29.3922 85.6617 28.7451 85.6617 28.1176V26.8235C85.6617 26.6078 85.642 26.5 85.6026 26.5C85.4451 26.5 84.766 27.1373 83.5653 28.4118C82.7189 29.2941 81.9807 29.9804 81.3509 30.4706C80.7406 30.9412 80.3174 31.1765 80.0812 31.1765C80.0025 31.1765 79.8155 31.1078 79.5202 30.9706C79.225 30.8137 79.038 30.6961 78.9592 30.6176C78.8214 30.4804 78.7329 30.3137 78.6935 30.1176C78.6541 29.9216 78.6344 29.549 78.6344 29C78.6344 28.3725 78.7624 27.6667 79.0183 26.8824C79.2742 26.0784 79.7072 25.0098 80.3174 23.6765C80.4749 23.402 80.6324 23.0686 80.7899 22.6765C81.2426 21.6569 81.6658 20.951 82.0595 20.5588C82.217 20.5588 82.3252 20.5686 82.3843 20.5882C82.6402 20.6078 82.9354 20.7255 83.2701 20.9412C83.6244 21.1569 83.8409 21.4412 83.9196 21.7941C83.9196 22.1275 83.8704 22.4608 83.772 22.7941C83.6736 23.1275 83.4472 23.5392 83.0929 24.0294C82.8764 24.3235 82.591 24.9608 82.2366 25.9412C82.1382 26.098 82.0004 26.3431 81.8233 26.6765C81.6658 26.9902 81.5871 27.1667 81.5871 27.2059C81.6067 27.2255 81.6658 27.1863 81.7642 27.0882C81.8626 26.9706 81.9611 26.8627 82.0595 26.7647L82.8567 25.9706C84.4117 24.4216 85.6125 23.6275 86.4589 23.5882C86.8919 23.5882 87.2758 23.8137 87.6104 24.2647C87.945 24.7157 88.1123 25.2549 88.1123 25.8824C88.1123 26 88.0927 26.3333 88.0533 26.8824V28.5588C88.506 28.4412 88.8505 28.3333 89.0867 28.2353C89.5788 28.0588 90.0906 27.951 90.6221 27.9118C90.5827 28.2451 90.3957 28.6863 90.0611 29.2353C89.7461 29.7843 89.3721 30.2647 88.9391 30.6765C88.506 31.0882 88.1123 31.2941 87.758 31.2941Z" stroke="#2E3B38" stroke-width="0.6" mask="url(#path-2-outside-1)"/>
<path d="M96.323 33.6765C96.2245 33.6765 96.1163 33.6373 95.9982 33.5588C95.8997 33.5 95.8112 33.4118 95.7324 33.2941C95.575 33.1569 95.447 32.9902 95.3486 32.7941C95.2502 32.598 95.201 32.3039 95.201 31.9118C95.201 31.2255 95.4175 30.2353 95.8505 28.9412C95.9883 28.3922 96.136 27.8627 96.2934 27.3529C96.4312 27 96.5001 26.7353 96.5001 26.5588C96.5001 26.402 96.5198 26.2255 96.5592 26.0294C96.6182 25.8137 96.6477 25.6667 96.6477 25.5882C96.8839 25.5882 97.1005 25.1863 97.2973 24.3824C97.3761 24.0882 97.445 23.8431 97.504 23.6471C97.5631 23.4314 97.6024 23.2647 97.6221 23.1471C97.6615 23.0882 97.7009 23 97.7402 22.8824C97.7993 22.7647 97.8485 22.6569 97.8878 22.5588C98.0453 22.0882 98.2323 21.6373 98.4488 21.2059C98.6851 20.3235 98.9606 19.402 99.2756 18.4412C99.6102 17.4608 99.8858 16.7353 100.102 16.2647L100.457 15.3824C100.476 15.3235 100.516 15.2157 100.575 15.0588C100.653 14.8824 100.693 14.7549 100.693 14.6765C100.693 14.598 100.663 14.5392 100.604 14.5C100.466 14.402 100.398 14.2059 100.398 13.9118C100.398 13.4216 100.585 13.0196 100.959 12.7059C101.175 12.451 101.461 12.2745 101.815 12.1765C102.189 12.0588 102.632 12 103.144 12C103.36 12 103.744 12.0196 104.295 12.0588C104.531 12.0784 105.161 12.0882 106.185 12.0882C106.303 12.1471 106.519 12.2353 106.834 12.3529C107.504 12.6274 107.838 12.7941 107.838 12.8529C107.838 12.951 107.868 13.0196 107.927 13.0588C108.005 13.098 108.114 13.1275 108.252 13.1471C108.468 13.1471 108.852 13.4118 109.403 13.9412C109.974 14.4706 110.368 14.9608 110.584 15.4118C110.761 15.7647 110.879 16.0392 110.938 16.2353C111.017 16.4314 111.057 16.6765 111.057 16.9706C111.057 17.0882 111.037 17.3039 110.997 17.6176C110.958 17.9314 110.909 18.2353 110.85 18.5294C110.791 18.8235 110.722 19.0098 110.643 19.0882C110.328 19.3235 110.171 19.5294 110.171 19.7059C110.171 19.902 109.885 20.451 109.314 21.3529C108.744 22.2549 108.242 22.9118 107.809 23.3235C107.297 23.9118 106.687 24.4314 105.978 24.8824C105.151 25.2549 104.216 25.5784 103.173 25.8529C102.149 26.1275 101.372 26.2549 100.84 26.2353C100.211 26.3333 99.8169 26.4216 99.6594 26.5C99.5216 26.5588 99.4134 26.7157 99.3346 26.9706C99.2362 27.2451 99.1378 27.5196 99.0394 27.7941C98.9606 28.0686 98.9213 28.2549 98.9213 28.3529C98.8032 28.5686 98.5571 29.2255 98.1831 30.3235C97.8288 31.4216 97.5827 32.2647 97.445 32.8529C97.3662 33.1078 97.2087 33.3039 96.9725 33.4412C96.7363 33.598 96.5198 33.6765 96.323 33.6765ZM100.516 23.8529C100.555 23.8922 100.663 23.9118 100.84 23.9118C101.352 23.9118 102.022 23.7549 102.848 23.4412C103.557 23.2059 104.344 22.8235 105.21 22.2941C105.643 22 106.155 21.4804 106.746 20.7353C106.864 20.5392 107.1 20.0784 107.454 19.3529C107.612 19.0784 107.759 18.7255 107.897 18.2941C108.055 17.8627 108.133 17.4804 108.133 17.1471C108.133 16.9902 108.124 16.8726 108.104 16.7941C107.907 15.7745 107.336 15.098 106.391 14.7647C105.761 14.6667 105.319 14.6176 105.063 14.6176C104.925 14.6176 104.699 14.6373 104.384 14.6765C104.069 14.7745 103.842 14.9118 103.704 15.0882C103.586 15.2451 103.409 15.6176 103.173 16.2059C102.543 17.402 102.13 18.2647 101.933 18.7941C101.559 20.1275 101.234 21.1569 100.959 21.8824C100.683 22.5882 100.526 23 100.486 23.1177V23.2353C100.486 23.3529 100.476 23.4706 100.457 23.5882C100.437 23.7059 100.457 23.7941 100.516 23.8529Z" stroke="#2E3B38" stroke-width="0.6" mask="url(#path-2-outside-1)"/>
<path d="M110.63 32.3235C110.57 32.3431 110.492 32.3529 110.393 32.3529C109.98 32.3529 109.635 32.1176 109.36 31.6471C109.084 31.1765 108.947 30.5784 108.947 29.8529C108.947 29.4608 108.986 29.0784 109.065 28.7059C109.281 28.1373 109.389 27.7255 109.389 27.4706C109.448 27.098 109.645 26.4314 109.98 25.4706C110.334 24.4902 110.561 23.902 110.659 23.7059C110.738 23.7059 110.807 23.6471 110.866 23.5294C110.925 23.3922 110.954 23.2451 110.954 23.0882C110.954 22.9118 110.984 22.7353 111.043 22.5588C111.122 22.3627 111.2 22.2255 111.279 22.1471C111.279 22.0882 111.299 21.9804 111.338 21.8235C111.397 21.6667 111.427 21.5588 111.427 21.5C111.427 21.4608 111.446 21.3922 111.486 21.2941C111.545 21.1765 111.574 21.0882 111.574 21.0294C111.889 20.4216 112.44 19.0588 113.228 16.9412C114.015 14.8039 114.409 13.6176 114.409 13.3824C114.409 13.2255 114.468 13.0784 114.586 12.9412C114.704 12.8039 114.842 12.7353 114.999 12.7353C115.058 12.6765 115.186 12.6373 115.383 12.6176C115.58 12.5784 115.738 12.5588 115.856 12.5588L116.328 13.0294C116.545 13.2255 116.712 13.402 116.83 13.5588C116.948 13.7157 117.007 13.902 117.007 14.1176C117.007 14.4706 116.938 14.8235 116.801 15.1765C116.682 15.5098 116.318 16.3137 115.708 17.5882C115.669 17.6863 115.511 18.0392 115.236 18.6471C115.039 19.0392 114.94 19.2647 114.94 19.3235C114.94 19.3824 114.901 19.5098 114.822 19.7059C114.744 19.8824 114.675 20.0686 114.616 20.2647C114.458 20.5784 114.202 21.1373 113.848 21.9412C113.513 22.7255 113.346 23.1569 113.346 23.2353C113.346 23.451 113.297 23.6078 113.198 23.7059C113.139 23.7059 113.1 23.7549 113.08 23.8529C113.061 23.9314 113.051 23.9902 113.051 24.0294C113.051 24.2255 112.893 24.7451 112.578 25.5882L112.313 26.4412C111.939 27.7157 111.673 28.6471 111.515 29.2353C111.378 29.8235 111.309 30.3235 111.309 30.7353C111.309 31.1667 111.24 31.5196 111.102 31.7941C110.964 32.0686 110.807 32.2451 110.63 32.3235Z" stroke="#2E3B38" stroke-width="0.6" mask="url(#path-2-outside-1)"/>
<path d="M114.755 31.3824C114.696 31.2647 114.529 31.1078 114.253 30.9118C113.978 30.7157 113.84 30.598 113.84 30.5588C113.84 30.4804 113.791 30.3726 113.692 30.2353C113.614 30.0784 113.535 29.9412 113.456 29.8235C113.299 29.6667 113.407 29.1569 113.781 28.2941C114.155 27.4314 114.657 26.4118 115.287 25.2353C115.405 25.1176 115.553 24.9118 115.73 24.6176C115.927 24.3235 116.055 24.1569 116.114 24.1177C116.114 24.0392 116.143 23.9706 116.202 23.9118C116.261 23.8333 116.33 23.7941 116.409 23.7941L116.645 23.3235C116.724 23.1471 117.108 22.7255 117.797 22.0588C118.486 21.3922 119.027 20.9412 119.421 20.7059C119.795 20.451 120.198 20.3235 120.631 20.3235C121.103 20.3235 121.507 20.4608 121.842 20.7353L122.639 21.4118C123.229 21.902 123.564 22.1863 123.643 22.2647L124.735 23.2353L124.233 24.7059C124.056 25.2353 123.968 25.7353 123.968 26.2059C123.968 26.951 124.174 27.6471 124.588 28.2941C124.686 28.5098 124.814 28.6765 124.971 28.7941C125.149 28.9118 125.375 28.9902 125.651 29.0294C126.084 29.1078 126.3 29.3235 126.3 29.6765C126.3 30.1078 126.221 30.4314 126.064 30.6471C125.906 30.8627 125.719 31 125.503 31.0588C125.188 31.098 124.971 31.1176 124.853 31.1176C124.282 31.1176 123.761 30.9706 123.288 30.6765C122.816 30.3824 122.403 29.8824 122.048 29.1765C121.97 29.0588 121.861 28.8431 121.724 28.5294C121.605 28.2157 121.537 28 121.517 27.8824C121.379 28.0784 121.153 28.3333 120.838 28.6471C118.81 30.6863 117.167 31.7059 115.907 31.7059C115.474 31.7059 115.09 31.598 114.755 31.3824ZM116.379 28.9412C116.694 28.9804 117.304 28.6275 118.21 27.8824C118.308 27.8039 118.417 27.7157 118.535 27.6176C118.653 27.5 118.781 27.3824 118.919 27.2647C119.47 26.8137 119.893 26.4412 120.188 26.1471C120.503 25.8333 120.818 25.4608 121.133 25.0294L121.783 23.9706C121.586 23.5392 121.409 23.2549 121.251 23.1177C121.094 22.9608 120.936 22.8824 120.779 22.8824C120.385 22.8824 119.893 23.2353 119.302 23.9412C118.712 24.6275 118.003 25.6765 117.177 27.0882C116.96 27.4412 116.783 27.8137 116.645 28.2059C116.507 28.5784 116.419 28.8235 116.379 28.9412Z" stroke="#2E3B38" stroke-width="0.6" mask="url(#path-2-outside-1)"/>
<path d="M137.676 25.1176C137.676 25.4314 137.519 26.2353 137.204 27.5294C137.164 27.7059 137.076 28.0882 136.938 28.6765C136.82 29.2451 136.751 29.6765 136.731 29.9706C136.731 30.1863 136.771 30.4118 136.849 30.6471C136.948 30.8627 136.997 30.9902 136.997 31.0294C136.997 31.2255 136.909 31.4216 136.731 31.6176C136.554 31.7941 136.328 31.8824 136.052 31.8824C135.56 31.8824 135.137 31.6765 134.783 31.2647C134.428 30.8333 134.251 30.2745 134.251 29.5882C134.251 29 134.468 27.902 134.901 26.2941C134.94 26.0784 134.97 25.9216 134.989 25.8235C135.029 25.7059 135.048 25.6078 135.048 25.5294C135.048 25.4314 135.019 25.3824 134.96 25.3824C134.822 25.3824 134.625 25.4804 134.369 25.6765C134.113 25.8529 133.838 26.0588 133.543 26.2941L132.804 26.9118C132.489 27.1078 131.83 27.6471 130.826 28.5294C130.688 28.6275 130.354 28.902 129.822 29.3529C129.31 29.7843 129.015 30 128.936 30C128.858 30 128.681 29.9412 128.405 29.8235C128.149 29.6863 127.903 29.5196 127.667 29.3235C127.45 29.1275 127.342 28.902 127.342 28.6471C127.342 28.3529 127.519 27.6765 127.874 26.6176C128.228 25.5588 128.651 24.5196 129.143 23.5C129.202 23.3431 129.271 23.049 129.35 22.6176C129.429 21.9118 129.557 21.4706 129.734 21.2941C129.852 21.098 130.019 21 130.236 21C130.629 21 130.993 21.1961 131.328 21.5882C131.682 21.9804 131.86 22.4118 131.86 22.8824C131.86 23.2157 131.761 23.6569 131.564 24.2059C131.387 24.7353 131.259 25.049 131.18 25.1471C131.24 25.1078 131.358 25.0098 131.535 24.8529C131.732 24.6765 131.988 24.4902 132.302 24.2941C132.972 23.7843 133.474 23.4412 133.808 23.2647C134.143 23.0686 134.379 22.9216 134.517 22.8235C134.596 22.7647 134.655 22.7255 134.694 22.7059C134.753 22.6667 134.792 22.6471 134.812 22.6471C134.871 22.6275 134.979 22.5882 135.137 22.5294C135.314 22.451 135.452 22.4118 135.55 22.4118C135.846 22.4118 136.151 22.5196 136.466 22.7353C136.8 22.9314 136.968 23.1373 136.968 23.3529C136.968 23.4118 137.036 23.5196 137.174 23.6765C137.312 23.8137 137.43 23.9902 137.529 24.2059C137.627 24.402 137.676 24.7059 137.676 25.1176Z" stroke="#2E3B38" stroke-width="0.6" mask="url(#path-2-outside-1)"/>
<path d="M142.341 33.7647C141.573 33.7451 141.022 33.5588 140.687 33.2059C140.372 32.8726 140.215 32.3922 140.215 31.7647C140.215 31.6078 140.235 31.3529 140.274 31C140.353 30.7255 140.412 30.451 140.451 30.1765C140.55 29.7451 140.648 29.4902 140.746 29.4118C140.766 29.3922 140.786 29.3529 140.806 29.2941C140.825 29.2353 140.806 29.1863 140.746 29.1471C140.746 28.8922 140.835 28.5392 141.012 28.0882C141.052 27.951 141.101 27.8137 141.16 27.6765C141.219 27.5392 141.258 27.451 141.278 27.4118C141.239 27.3726 141.219 27.3137 141.219 27.2353C141.219 27.1373 141.268 27.0392 141.367 26.9412C141.485 26.8431 141.563 26.7549 141.603 26.6765C141.662 26.598 141.662 26.5196 141.603 26.4412C141.563 26.3431 141.75 25.902 142.164 25.1176C142.42 24.6078 142.557 24.3235 142.577 24.2647C142.557 24.2059 142.695 23.8431 142.99 23.1765C143.305 22.5098 143.551 22.0098 143.729 21.6765C143.906 21.5784 143.837 21.5098 143.522 21.4706C143.207 21.4314 142.823 21.4216 142.37 21.4412C141.721 21.4216 141.219 21.3922 140.865 21.3529C140.51 21.2941 140.225 21.2059 140.008 21.0882C139.871 20.951 139.802 20.7745 139.802 20.5588C139.802 20.3039 139.89 20.0686 140.067 19.8529C140.264 19.6373 140.5 19.5196 140.776 19.5C141.288 19.4804 142.075 19.4118 143.138 19.2941L144.644 19.1765L144.733 18.6765C144.831 18.5 144.92 18.3529 144.998 18.2353C145.097 18.098 145.156 17.9804 145.175 17.8824C145.215 17.7843 145.244 17.6373 145.264 17.4412C145.323 17.3627 145.421 17.1667 145.559 16.8529C145.717 16.5392 145.815 16.2353 145.854 15.9412C146.071 15.5686 146.268 15.2157 146.445 14.8824C146.642 14.5294 146.76 14.3235 146.799 14.2647C147.154 13.7353 147.547 13.4706 147.98 13.4706C148.217 13.4706 148.463 13.549 148.719 13.7059C148.974 13.8824 149.171 14.0392 149.309 14.1765C149.447 14.3137 149.516 14.5 149.516 14.7353C149.516 14.9118 149.427 15.1667 149.25 15.5C149.171 15.6569 149.053 15.9706 148.896 16.4412C148.758 16.6176 148.61 16.8627 148.453 17.1765C148.295 17.4706 148.187 17.7549 148.128 18.0294C148.089 18.1275 148.03 18.2647 147.951 18.4412C147.872 18.598 147.813 18.6961 147.774 18.7353C147.754 18.7549 147.715 18.7647 147.656 18.7647C147.675 18.8824 147.715 18.9608 147.774 19C147.833 19.0392 147.931 19.0588 148.069 19.0588C148.167 19.0588 148.285 19.049 148.423 19.0294C148.581 19.0098 148.768 19 148.984 19C149.181 18.9804 149.348 18.951 149.486 18.9118C149.644 18.8726 149.791 18.8529 149.929 18.8529C150.008 18.8529 150.126 18.8824 150.283 18.9412C150.382 19.0588 150.431 19.2843 150.431 19.6176C150.431 19.8725 150.392 20.1177 150.313 20.3529C150.234 20.5686 150.136 20.7059 150.018 20.7647C149.919 20.7843 149.703 20.8431 149.368 20.9412C149.033 21.0392 148.669 21.098 148.276 21.1176L146.711 21.2647L146.209 22.2647C146.071 22.5 145.953 22.7255 145.854 22.9412C145.756 23.1569 145.687 23.2843 145.648 23.3235C145.648 23.4216 145.569 23.6176 145.412 23.9118C145.254 24.2059 145.136 24.4412 145.057 24.6176C144.959 24.8922 144.841 25.1667 144.703 25.4412C144.565 25.6961 144.477 25.8627 144.437 25.9412C144.378 25.9412 144.339 25.9608 144.319 26C144.319 26.0196 144.319 26.0588 144.319 26.1176L144.378 26.3529C144.378 26.451 144.329 26.549 144.231 26.6471C144.152 26.6863 144.073 26.7549 143.994 26.8529C143.935 26.951 143.896 27.0196 143.876 27.0588C143.916 27.098 143.935 27.1471 143.935 27.2059C143.935 27.3431 143.866 27.5196 143.729 27.7353C143.729 28.0686 143.591 28.5686 143.315 29.2353C143.335 29.5882 143.355 29.8137 143.374 29.9118C143.394 30.0098 143.443 30.049 143.522 30.0294H143.67L144.319 30C144.457 29.9412 144.486 30.0882 144.408 30.4412C144.349 30.7941 144.181 31.3333 143.906 32.0588C143.611 32.5098 143.296 32.902 142.961 33.2353C142.646 33.5882 142.439 33.7647 142.341 33.7647Z" stroke="#2E3B38" stroke-width="0.6" mask="url(#path-2-outside-1)"/>
<path d="M151.732 32.4412C151.259 32.4412 150.767 32.3431 150.256 32.1471C149.763 31.951 149.34 31.7157 148.986 31.4412C148.651 31.1471 148.484 30.8824 148.484 30.6471C148.484 30.4118 148.592 30.2647 148.809 30.2059L148.956 30.0882C148.996 30.0686 149.074 30.0588 149.193 30.0588C149.271 30.0392 149.37 30.049 149.488 30.0882C149.606 30.1078 149.704 30.1176 149.783 30.1176C149.921 30.1569 150.128 30.1961 150.403 30.2353L151.171 30.3235C151.565 30.3235 151.929 30.2843 152.263 30.2059C152.618 30.1275 152.795 30.0392 152.795 29.9412C152.795 29.8824 152.716 29.7843 152.559 29.6471C152.401 29.5098 152.234 29.4412 152.057 29.4412C152.057 29.3627 151.752 29.098 151.141 28.6471C150.807 28.3922 150.482 28.1373 150.167 27.8824C149.872 27.6275 149.724 27.4412 149.724 27.3235L149.754 27.2647V27.1176C149.616 27.1176 149.488 26.9314 149.37 26.5588C149.252 26.1863 149.193 25.8235 149.193 25.4706C149.193 24.8039 149.488 24.0686 150.078 23.2647C150.669 22.4608 151.397 21.7353 152.263 21.0882C153.149 20.4412 153.986 20 154.773 19.7647C155.068 19.6275 155.501 19.5588 156.072 19.5588C156.446 19.5588 156.702 19.598 156.84 19.6765L157.076 19.6176C157.312 19.6176 157.617 19.8137 157.991 20.2059C158.365 20.598 158.602 20.9118 158.7 21.1471C158.7 21.7941 158.68 22.3137 158.641 22.7059C158.602 23.098 158.503 23.2941 158.346 23.2941C158.326 23.2941 158.296 23.3039 158.257 23.3235C158.218 23.3431 158.198 23.3922 158.198 23.4706C158.198 23.7451 157.952 24.049 157.46 24.3824C156.987 24.7157 156.554 24.8824 156.161 24.8824L156.043 24.8529C155.925 24.8333 155.747 24.7157 155.511 24.5C155.295 24.2843 155.186 24.0686 155.186 23.8529C155.186 23.7941 155.304 23.6373 155.541 23.3824C155.777 23.1275 155.974 22.8824 156.131 22.6471C156.308 22.3922 156.397 22.1275 156.397 21.8529C156.397 21.7549 156.358 21.6961 156.279 21.6765C156.22 21.6373 156.092 21.6176 155.895 21.6176C154.812 22.1078 154.035 22.5686 153.562 23C153.503 23.1176 153.444 23.2059 153.385 23.2647C153.346 23.3235 153.287 23.3529 153.208 23.3529C153.208 23.3333 153.198 23.3235 153.179 23.3235C153.139 23.3235 153.011 23.4412 152.795 23.6765C152.578 23.8922 152.372 24.1471 152.175 24.4412C151.998 24.7353 151.889 25.0098 151.85 25.2647L151.791 25.3529V25.5C151.771 25.5392 151.761 25.6176 151.761 25.7353C151.761 25.9118 151.84 26.098 151.998 26.2941C152.155 26.4706 152.47 26.7255 152.942 27.0588C153.828 27.7255 154.429 28.2255 154.743 28.5588C155.078 28.8725 155.285 29.1569 155.364 29.4118C155.541 29.7647 155.629 30.0784 155.629 30.3529C155.629 31.0196 155.275 31.5392 154.566 31.9118C153.877 32.2647 152.933 32.4412 151.732 32.4412Z" stroke="#2E3B38" stroke-width="0.6" mask="url(#path-2-outside-1)"/>
</svg>
