<svg width="55" height="50" viewBox="0 0 55 50" fill="none" xmlns="http://www.w3.org/2000/svg">
<path d="M7.14286 7.14286V0H11.9048V7.14286H19.0476V11.9048H11.9048V19.0476H7.14286V11.9048H0V7.14286H7.14286ZM14.2857 21.4286V14.2857H21.4286V7.14286H38.0952L42.4524 11.9048H54.7619V50H7.14286V21.4286H14.2857ZM30.9524 42.8571C37.5238 42.8571 42.8571 37.5238 42.8571 30.9524C42.8571 24.381 37.5238 19.0476 30.9524 19.0476C24.381 19.0476 19.0476 24.381 19.0476 30.9524C19.0476 37.5238 24.381 42.8571 30.9524 42.8571ZM23.8095 30.9524C23.8095 34.9048 27 38.0952 30.9524 38.0952C34.9048 38.0952 38.0952 34.9048 38.0952 30.9524C38.0952 27 34.9048 23.8095 30.9524 23.8095C27 23.8095 23.8095 27 23.8095 30.9524Z" fill="#FCFCFC"/>
</svg>
