<svg width="17" height="20" viewBox="0 0 17 20" fill="none" xmlns="http://www.w3.org/2000/svg">
<path d="M7.29899 0C5.79463 0 4.58607 1.25005 4.58607 2.76132V3.09708H1.53663C1.11329 3.09708 0.768315 3.44205 0.768315 3.86539V4.63371H0V6.17034H1.53663V17.6951C1.53663 18.9589 2.5777 20 3.84157 20H13.0614C14.3252 20 15.3663 18.9589 15.3663 17.6951V6.17034H16.9029V4.63371H16.1346V3.86539C16.1346 3.44205 15.7896 3.09708 15.3663 3.09708H12.3169V2.76055C12.3169 1.25005 11.1083 0 9.60393 0H7.29899V0ZM7.29899 1.58426H9.60393C10.2217 1.58426 10.7326 2.08828 10.7326 2.76055V3.09708H6.16957V2.76055C6.16957 2.08828 6.6805 1.58503 7.29822 1.58503L7.29899 1.58426ZM3.07326 6.17034H7.01087C7.10614 6.18032 7.20065 6.19415 7.29899 6.19415H9.60393C9.70228 6.19415 9.79601 6.18032 9.89205 6.17034H13.8297V17.6951C13.8297 18.1276 13.4939 18.4634 13.0614 18.4634H3.84157C3.40901 18.4634 3.07326 18.1276 3.07326 17.6951V6.17034ZM4.60989 7.70697V16.9267H6.14652V7.70697H4.60989ZM7.68315 7.70697V16.9267H9.21978V7.70697H7.68315ZM10.7564 7.70697V16.9267H12.293V7.70697H10.7564Z" fill="#D5FAF0"/>
</svg>
