<svg width="20" height="20" viewBox="0 0 20 20" fill="none" xmlns="http://www.w3.org/2000/svg">
<path d="M15.9983 18.6668H1.33319V4.00169H10.1456L11.4788 2.66851H1.33319C0.979605 2.66851 0.640503 2.80897 0.390482 3.05899C0.14046 3.30901 0 3.64811 0 4.00169V18.6668C0 19.0203 0.14046 19.3595 0.390482 19.6095C0.640503 19.8595 0.979605 20 1.33319 20H15.9983C16.3518 20 16.6909 19.8595 16.941 19.6095C17.191 19.3595 17.3314 19.0203 17.3314 18.6668V8.66785L15.9983 10.001V18.6668Z" fill="#5F7A75"/>
<path d="M19.6847 2.5618L17.4382 0.315378C17.3385 0.215409 17.2201 0.136093 17.0897 0.0819751C16.9593 0.027857 16.8195 0 16.6783 0C16.5371 0 16.3973 0.027857 16.2669 0.0819751C16.1365 0.136093 16.0181 0.215409 15.9184 0.315378L6.7794 9.50771L6.03948 12.714C6.00796 12.8695 6.01127 13.0299 6.04918 13.1839C6.0871 13.3379 6.15866 13.4816 6.25874 13.6046C6.35882 13.7276 6.48491 13.8269 6.62796 13.8954C6.77101 13.9639 6.92745 13.9998 7.08603 14.0006C7.168 14.0096 7.25071 14.0096 7.33267 14.0006L10.5657 13.2873L19.6847 4.08164C19.7846 3.98194 19.864 3.8635 19.9181 3.7331C19.9722 3.6027 20 3.4629 20 3.32172C20 3.18053 19.9722 3.04074 19.9181 2.91034C19.864 2.77994 19.7846 2.6615 19.6847 2.5618ZM9.8724 12.0541L7.43266 12.594L7.99927 10.1743L14.8785 3.24839L16.7583 5.12819L9.8724 12.0541ZM17.5116 4.37494L15.6318 2.49514L16.665 1.44192L18.5581 3.33505L17.5116 4.37494Z" fill="#5F7A75"/>
</svg>
