<svg width="14" height="12" viewBox="0 0 14 12" fill="none" xmlns="http://www.w3.org/2000/svg">
<path d="M9.55832 0L8.73032 0.3125C7.79832 0.664 7.19332 1.0275 6.79282 1.4065C6.39232 1.785 6.20282 2.2015 6.10532 2.5155C6.00732 2.8305 5.96832 3.0135 5.90232 3.1095C5.84332 3.1935 5.74232 3.2945 5.41732 3.3905C5.41182 3.3865 5.37232 3.3615 5.37082 3.3595H5.35532C5.10874 3.20079 4.83219 3.09443 4.54282 3.047C3.71082 2.9065 2.83982 3.2695 2.35532 4.047L2.33932 4.0625C2.0184 4.60899 1.8866 5.24603 1.96432 5.875C1.98982 6.078 2.04082 6.285 2.12082 6.4845C1.74952 6.50864 1.3899 6.62392 1.07376 6.82014C0.757626 7.01637 0.494725 7.28748 0.308318 7.6095H0.292818C-0.316682 8.6855 0.0543183 10.0745 1.13632 10.6875H1.15232V10.703C1.20882 10.7305 1.87482 11.082 2.87082 11.3905C3.86682 11.699 5.26132 12 6.99582 12C8.73032 12 10.1228 11.711 11.1208 11.406C12.1073 11.1035 12.6618 10.8065 12.8553 10.6875L12.8708 10.672C13.9373 10.0525 14.2968 8.6895 13.6833 7.6405H13.6988C13.4271 7.15482 12.9799 6.79149 12.4488 6.625C12.4488 6.623 12.4333 6.627 12.4333 6.625C12.3565 6.3428 12.2244 6.07867 12.0447 5.84795C11.8649 5.61723 11.6412 5.42452 11.3863 5.281C11.4548 5.0625 11.4958 4.8085 11.4958 4.5C11.4958 3.92 11.2888 3.4315 11.0113 3.078C10.7343 2.7245 10.4003 2.488 10.1208 2.2655C9.84132 2.043 9.61682 1.838 9.49582 1.6405C9.37482 1.4435 9.31432 1.2555 9.38632 0.875L9.55832 0ZM8.43332 1.594C8.48032 1.8025 8.55032 2.006 8.65232 2.172C8.88832 2.557 9.20482 2.801 9.49582 3.0315C9.78682 3.2615 10.0583 3.4825 10.2303 3.703C10.4018 3.924 10.4958 4.135 10.4958 4.5C10.4958 4.74 10.4683 4.8865 10.4333 5C9.06982 4.801 7.87682 4.457 6.99582 4.125C6.81982 4.0585 6.66582 3.9885 6.51132 3.922C6.59532 3.8475 6.66982 3.76 6.73032 3.672C6.95482 3.3455 6.98582 3.0295 7.05832 2.797C7.13082 2.5645 7.21282 2.379 7.48032 2.125C7.64032 1.9725 8.08532 1.775 8.43332 1.5935V1.594ZM4.15182 3.984C4.37282 3.9825 4.59932 4.051 4.80832 4.1875C5.08332 4.379 5.67332 4.6795 6.65232 5.047C7.89772 5.51526 9.19239 5.84018 10.5113 6.0155H10.5273C10.8748 6.0585 11.1618 6.2635 11.3398 6.5625C11.1618 6.5955 10.9783 6.6425 10.8083 6.719C10.7833 6.7305 10.7558 6.7225 10.7303 6.734C10.7103 6.74 10.7068 6.746 10.6988 6.75C10.6833 6.758 10.6678 6.758 10.6523 6.7655C10.6383 6.7715 10.6223 6.789 10.6053 6.797C10.5623 6.8165 10.4998 6.842 10.4178 6.875C10.2558 6.9435 10.0133 7.0315 9.69882 7.125C9.06982 7.3105 8.15582 7.5 6.99582 7.5C6.13432 7.5 5.39832 7.4025 4.82382 7.281C4.64382 7.2385 4.47032 7.191 4.30832 7.141C3.98232 7.037 3.67932 6.8885 3.68332 6.891C3.19882 6.5645 3.00182 6.172 2.94882 5.75C2.89632 5.328 3.01382 4.879 3.19882 4.5625C3.43332 4.1855 3.78482 3.9885 4.15182 3.9845V3.984ZM2.13682 7.469C2.37482 7.451 2.62482 7.51 2.85532 7.6405C2.85932 7.6425 2.86682 7.6545 2.87082 7.6565C2.89832 7.6715 2.93332 7.6875 2.96482 7.703C3.02732 7.7365 3.09932 7.7695 3.19882 7.8125C3.39832 7.8985 3.67382 7.9925 4.02682 8.094C4.15182 8.129 4.30432 8.168 4.44882 8.203C4.50182 8.217 4.55032 8.2365 4.60532 8.25C4.61082 8.252 4.61532 8.248 4.62082 8.25C4.81982 8.301 5.01732 8.3455 5.21482 8.375V8.3595C5.80366 8.45485 6.39931 8.50184 6.99582 8.5C8.26332 8.5 9.27532 8.287 9.98032 8.078C10.3338 7.973 10.6168 7.8615 10.8083 7.7815C10.8783 7.7515 10.9178 7.7245 10.9648 7.703H11.0113L11.0273 7.6875L11.1208 7.6405C11.7418 7.3085 12.4878 7.5055 12.8398 8.125V8.1405C13.1813 8.7245 12.9843 9.4805 12.3708 9.828H12.3553V9.844C12.3163 9.867 11.7538 10.174 10.8393 10.453C9.92582 10.7325 8.62082 11 6.99582 11C5.37082 11 4.06832 10.7365 3.15182 10.453C2.24782 10.172 1.79482 9.916 1.62082 9.828C1.61282 9.824 1.61082 9.8165 1.60532 9.8125C1.00732 9.459 0.821818 8.7205 1.16782 8.1095C1.34132 7.8185 1.60132 7.6015 1.90182 7.5155C1.97832 7.494 2.05682 7.4745 2.13682 7.469Z" fill="#FFC759"/>
</svg>
