<svg width="34" height="34" viewBox="0 0 34 34" fill="none" xmlns="http://www.w3.org/2000/svg">
<path d="M0 17C0 7.61175 7.60962 0 17 0C26.3904 0 34 7.61175 34 17C34 26.3883 26.3904 34 17 34C7.60962 34 0 26.3883 0 17Z" fill="#FCFCFC"/>
<path d="M17 0C7.60962 0 0 7.61175 0 17C0 26.3883 7.60962 34 17 34C26.3904 34 34 26.3883 34 17C34 7.61175 26.3904 0 17 0ZM24.8774 21.8726C25.2758 22.2711 25.4997 22.8115 25.4997 23.375C25.4997 23.9385 25.2758 24.4789 24.8774 24.8774C24.4789 25.2758 23.9385 25.4997 23.375 25.4997C22.8115 25.4997 22.2711 25.2758 21.8726 24.8774L17 20.0047L12.1274 24.8774C11.9305 25.0754 11.6964 25.2325 11.4386 25.3398C11.1807 25.447 10.9042 25.5022 10.625 25.5022C10.3458 25.5022 10.0693 25.447 9.81144 25.3398C9.55361 25.2325 9.31951 25.0754 9.12263 24.8774C8.92512 24.6802 8.76842 24.446 8.66151 24.1882C8.5546 23.9304 8.49957 23.6541 8.49957 23.375C8.49957 23.0959 8.5546 22.8196 8.66151 22.5618C8.76842 22.304 8.92512 22.0698 9.12263 21.8726L13.9953 17L9.12263 12.1274C8.72417 11.7289 8.50032 11.1885 8.50032 10.625C8.50032 10.0615 8.72417 9.52108 9.12263 9.12263C9.52108 8.72417 10.0615 8.50032 10.625 8.50032C11.1885 8.50032 11.7289 8.72417 12.1274 9.12263L17 13.9953L21.8726 9.12263C22.2711 8.72417 22.8115 8.50032 23.375 8.50032C23.9385 8.50032 24.4789 8.72417 24.8774 9.12263C25.2758 9.52108 25.4997 10.0615 25.4997 10.625C25.4997 11.1885 25.2758 11.7289 24.8774 12.1274L20.0047 17L24.8774 21.8726Z" fill="#E61B1B"/>
</svg>
