<svg width="16" height="16" viewBox="0 0 16 16" fill="none" xmlns="http://www.w3.org/2000/svg">
<path fill-rule="evenodd" clip-rule="evenodd" d="M8.83705 1.6256C8.59104 0.790549 7.40896 0.790549 7.16295 1.6256L7.06894 1.94462C6.98988 2.21258 6.85188 2.45947 6.66505 2.66719C6.47821 2.87491 6.24728 3.0382 5.98916 3.14511C5.73105 3.25202 5.45228 3.29984 5.17329 3.28506C4.8943 3.27028 4.62215 3.19328 4.37677 3.05969L4.08476 2.89968C3.32071 2.48466 2.48466 3.31971 2.90068 4.08476L3.05969 4.37677C3.19328 4.62215 3.27028 4.8943 3.28506 5.17329C3.29984 5.45228 3.25202 5.73105 3.14511 5.98916C3.0382 6.24728 2.87491 6.47821 2.66719 6.66505C2.45947 6.85188 2.21258 6.98988 1.94462 7.06894L1.6256 7.16295C0.790549 7.40896 0.790549 8.59104 1.6256 8.83705L1.94462 8.93106C2.21272 9.01008 2.45974 9.14811 2.66757 9.33501C2.87539 9.52191 3.03875 9.75296 3.14568 10.0112C3.2526 10.2694 3.30037 10.5484 3.2855 10.8275C3.27062 11.1066 3.19346 11.3788 3.05969 11.6242L2.89968 11.9152C2.48466 12.6793 3.31971 13.5153 4.08476 13.0993L4.37677 12.9403C4.62222 12.8067 4.89443 12.7298 5.17348 12.7151C5.45252 12.7003 5.73133 12.7482 5.98946 12.8553C6.24759 12.9623 6.47851 13.1257 6.66529 13.3335C6.85208 13.5413 6.99 13.7883 7.06894 14.0564L7.16295 14.3744C7.40896 15.2095 8.59104 15.2095 8.83705 14.3744L8.93106 14.0554C9.01008 13.7873 9.14811 13.5403 9.33501 13.3324C9.52191 13.1246 9.75296 12.9612 10.0112 12.8543C10.2694 12.7474 10.5484 12.6996 10.8275 12.7145C11.1066 12.7294 11.3788 12.8065 11.6242 12.9403L11.9152 13.1003C12.6793 13.5153 13.5153 12.6803 13.0993 11.9152L12.9403 11.6242C12.8066 11.3787 12.7294 11.1064 12.7146 10.8273C12.6998 10.5481 12.7477 10.2692 12.8547 10.0109C12.9617 9.75265 13.1252 9.52162 13.3331 9.33477C13.5411 9.14791 13.7882 9.00997 14.0564 8.93106L14.3744 8.83705C15.2095 8.59104 15.2095 7.40896 14.3744 7.16295L14.0554 7.06894C13.7874 6.98988 13.5405 6.85188 13.3328 6.66505C13.1251 6.47821 12.9618 6.24728 12.8549 5.98916C12.748 5.73105 12.7002 5.45228 12.7149 5.17329C12.7297 4.8943 12.8067 4.62215 12.9403 4.37677L13.1003 4.08476C13.5153 3.32071 12.6803 2.48466 11.9152 2.90068L11.6242 3.05969C11.3788 3.19365 11.1064 3.27096 10.8272 3.28593C10.548 3.30091 10.2689 3.25318 10.0106 3.14624C9.75219 3.0393 9.52104 2.87587 9.33407 2.66795C9.14709 2.46002 9.00905 2.21286 8.93006 1.94462L8.83605 1.6256H8.83705ZM6.20389 1.34258C6.73092 -0.447528 9.26908 -0.447528 9.79611 1.34258L9.89012 1.6616C9.92693 1.78656 9.99123 1.9017 10.0783 1.99858C10.1654 2.09546 10.2731 2.17163 10.3934 2.22149C10.5138 2.27136 10.6437 2.29366 10.7738 2.28676C10.9039 2.27986 11.0308 2.24395 11.1452 2.18164L11.4372 2.02163C13.0773 1.12957 14.8714 2.92268 13.9774 4.56279L13.8184 4.8548C13.7561 4.9692 13.7201 5.0961 13.7132 5.22618C13.7063 5.35627 13.7286 5.48625 13.7785 5.60659C13.8284 5.72694 13.9045 5.8346 14.0014 5.92169C14.0983 6.00877 14.2134 6.07308 14.3384 6.10988L14.6574 6.20389C16.4475 6.73092 16.4475 9.26908 14.6574 9.79611L14.3384 9.89012C14.2134 9.92693 14.0983 9.99123 14.0014 10.0783C13.9045 10.1654 13.8284 10.2731 13.7785 10.3934C13.7286 10.5138 13.7063 10.6437 13.7132 10.7738C13.7201 10.9039 13.7561 11.0308 13.8184 11.1452L13.9784 11.4372C14.8714 13.0773 13.0763 14.8714 11.4372 13.9774L11.1452 13.8184C11.0308 13.7561 10.9039 13.7201 10.7738 13.7132C10.6437 13.7063 10.5138 13.7286 10.3934 13.7785C10.2731 13.8284 10.1654 13.9045 10.0783 14.0014C9.99123 14.0983 9.92693 14.2134 9.89012 14.3384L9.79611 14.6574C9.26908 16.4475 6.73092 16.4475 6.20389 14.6574L6.10988 14.3384C6.07308 14.2134 6.00877 14.0983 5.92169 14.0014C5.8346 13.9045 5.72694 13.8284 5.60659 13.7785C5.48625 13.7286 5.35627 13.7063 5.22618 13.7132C5.0961 13.7201 4.9692 13.7561 4.8548 13.8184L4.56279 13.9784C2.92268 14.8714 1.12957 13.0763 2.02263 11.4372L2.18164 11.1452C2.24395 11.0308 2.27986 10.9039 2.28676 10.7738C2.29366 10.6437 2.27136 10.5138 2.22149 10.3934C2.17163 10.2731 2.09546 10.1654 1.99858 10.0783C1.9017 9.99123 1.78656 9.92693 1.6616 9.89012L1.34258 9.79611C-0.447528 9.26908 -0.447528 6.73092 1.34258 6.20389L1.6616 6.10988C1.78656 6.07308 1.9017 6.00877 1.99858 5.92169C2.09546 5.8346 2.17163 5.72694 2.22149 5.60659C2.27136 5.48625 2.29366 5.35627 2.28676 5.22618C2.27986 5.0961 2.24395 4.9692 2.18164 4.8548L2.02163 4.56279C1.12957 2.92268 2.92368 1.12957 4.56279 2.02263L4.8548 2.18164C4.9692 2.24395 5.0961 2.27986 5.22618 2.28676C5.35627 2.29366 5.48625 2.27136 5.60659 2.22149C5.72694 2.17163 5.8346 2.09546 5.92169 1.99858C6.00877 1.9017 6.07308 1.78656 6.10988 1.6616L6.20389 1.34258Z" fill="#91BAB3"/>
<path fill-rule="evenodd" clip-rule="evenodd" d="M7.99999 5.75388C7.40427 5.75388 6.83296 5.99052 6.41173 6.41176C5.99049 6.83299 5.75385 7.4043 5.75385 8.00002C5.75385 8.59573 5.99049 9.16705 6.41173 9.58828C6.83296 10.0095 7.40427 10.2462 7.99999 10.2462C8.5957 10.2462 9.16702 10.0095 9.58825 9.58828C10.0095 9.16705 10.2461 8.59573 10.2461 8.00002C10.2461 7.4043 10.0095 6.83299 9.58825 6.41176C9.16702 5.99052 8.5957 5.75388 7.99999 5.75388ZM4.75378 8.00002C4.75378 7.57372 4.83775 7.1516 5.00089 6.75775C5.16402 6.3639 5.40314 6.00604 5.70457 5.70461C6.00601 5.40317 6.36387 5.16405 6.75772 5.00092C7.15157 4.83778 7.57369 4.75381 7.99999 4.75381C8.42628 4.75381 8.84841 4.83778 9.24226 5.00092C9.6361 5.16405 9.99396 5.40317 10.2954 5.70461C10.5968 6.00604 10.836 6.3639 10.9991 6.75775C11.1622 7.1516 11.2462 7.57372 11.2462 8.00002C11.2462 8.86096 10.9042 9.68665 10.2954 10.2954C9.68662 10.9042 8.86093 11.2462 7.99999 11.2462C7.13904 11.2462 6.31336 10.9042 5.70457 10.2954C5.09579 9.68665 4.75378 8.86096 4.75378 8.00002Z" fill="#91BAB3"/>
</svg>
