<svg width="173" height="175" viewBox="0 0 173 175" fill="none" xmlns="http://www.w3.org/2000/svg">
<path d="M126.097 27.8111C129.804 24.0232 133.513 20.2349 138.298 17.6803C138.104 21.5483 139.047 25.1297 141.185 28.353C151.18 43.4335 144.841 56.7115 127.951 61.2611L127.477 61.3888C121.214 63.0767 114.911 64.7755 108.272 64.3163C106.186 64.1709 104.37 65.3714 104.481 67.4573C104.604 69.8269 107.122 69.6495 108.624 69.4412C120.883 67.7338 132.772 64.8676 142.501 56.5582C143.646 55.5809 144.564 54.3375 145.546 53.0069C146.023 52.3609 146.515 51.6938 147.056 51.0272C149.421 57.58 149.1 64.1633 146.591 70.0291C144.923 73.9261 140.455 76.4388 136.456 78.3284C125.687 83.4246 114.143 85.259 102.312 85.1897C99.7278 85.1747 96.6627 85.2962 96.3757 87.6395C95.9669 90.9507 99.4615 90.8878 101.782 90.7983C116.169 90.2363 130.368 89.0083 142.317 79.4859C143.048 78.9035 143.586 78.214 144.149 77.4928C144.763 76.707 145.406 75.8836 146.359 75.1202C147.439 80.9731 146.245 86.4201 145.066 91.8021C144.96 92.2861 144.854 92.7696 144.75 93.2528C141.518 108.244 134.212 109.664 117.393 110.226C111.579 110.421 103.467 107.77 98.5521 106.165C96.8535 105.61 95.5362 105.18 94.8287 105.035C94.2363 104.914 93.723 104.81 93.2634 104.716L93.2419 104.712C91.5781 104.374 90.6181 104.179 89.1388 103.842C87.195 103.401 85.2598 103.343 84.6275 105.613C84.0997 107.506 85.8125 108.417 87.0327 109.066C87.2192 109.165 87.3942 109.259 87.5479 109.348C97.3586 115.06 108.161 117.174 119.397 117.627C124.195 117.82 128.594 116.603 133.701 113.835C126.227 132.159 115.079 144.882 96.6299 150.613C86.3746 153.8 75.9436 154.772 65.884 151.957C51.2514 147.863 47.4784 139.276 52.3089 124.836C53.6279 120.898 54.9988 116.81 57.7057 113.409C59.0072 111.775 59.1137 109.792 58.2814 107.824C58.5372 107.569 58.7692 107.185 59.0016 106.8C59.7284 105.598 60.459 104.389 61.9316 107.087C62.6973 108.49 63.4796 109.888 64.2619 111.285C69.4017 120.466 74.5452 129.653 75.0421 140.628C77.1945 130.125 72.5394 121.78 67.8682 113.407C66.3593 110.702 64.8488 107.994 63.5655 105.21C63.6315 105.262 63.6974 105.314 63.7633 105.366C70.4218 113.035 78.6365 118.677 86.8629 124.328C87.5169 124.777 88.1709 125.226 88.8243 125.676C93.4742 128.881 98.5859 130.827 103.936 132.263C107.353 133.179 110.864 132.315 113.077 130.187C107.523 131.289 102.369 130.605 97.5748 128.215C86.0665 122.481 75.8021 114.997 66.6155 105.981C66.3066 105.678 65.9779 105.395 65.6568 105.118C64.1052 103.78 62.733 102.597 64.6458 100.09C64.9712 99.6642 65.2683 99.2235 65.5596 98.7913C67.0254 96.6162 68.3458 94.6569 72.4108 95.8956C86.2817 100.121 100.576 102.484 115.127 101.939C121.57 101.697 128.249 101.157 133.213 95.9361C130.19 97.3645 127.03 98.8522 123.808 99.2396C106.599 101.304 89.8118 97.9928 73.0549 94.6093C71.2423 94.2428 70.0925 93.6605 71.5962 91.6161C72.2759 90.6906 72.9086 89.7273 73.5409 88.7647C74.525 87.2665 75.5081 85.7699 76.6657 84.4192C79.5475 81.0529 82.5828 78.984 87.8493 79.0585C98.5612 79.2121 109.393 78.5594 119.916 76.0715C126.401 74.539 132.968 72.9214 138.912 67.8145C119.642 74.4327 89.0922 79.203 83.3533 76.7139C84.5684 75.1923 85.7889 73.6718 87.0106 72.15C90.2754 68.0829 93.5481 64.0059 96.747 59.8714C97.8013 58.509 99.0238 57.8694 100.615 57.6878C102.08 57.5203 103.547 57.3707 105.014 57.221C107.981 56.9185 110.947 56.6159 113.892 56.1649C120.878 55.0945 127.864 53.8006 133.885 49.8009C134.014 49.715 134.146 49.6288 134.279 49.5419C136.19 48.2893 138.336 46.8829 138.333 43.6985C130.561 51.5205 120.89 52.8128 111.188 54.1093C107.842 54.5564 104.493 55.004 101.216 55.72C105.614 49.9756 110.344 44.7093 115.095 39.4601C116.644 37.7475 118.226 38.3556 119.943 39.0153C120.143 39.0921 120.345 39.1696 120.548 39.2442C126.672 41.4895 130.876 40.0507 134.216 34.3697C128.962 38.8411 123.73 38.6407 118.045 36.2269C118.421 35.7913 118.767 35.3672 119.099 34.959C119.793 34.1075 120.43 33.3256 121.167 32.6549C122.87 31.1082 124.483 29.4597 126.097 27.8111Z" fill="#C2FAF0"/>
<path d="M57.4364 107.239L61.131 101.861C57.7988 101.723 54.4909 101.488 51.2071 101.255C37.6613 100.294 24.5251 99.3617 11.7791 105.304C17.407 99.5407 24.5697 99.0779 32.3173 98.5774C34.5888 98.4306 36.9106 98.2807 39.2588 97.9929C24.4193 91.6094 15.5923 81.7032 14.4792 66.1838C15.6854 67.363 15.9681 68.9097 16.2517 70.4611C16.3897 71.2161 16.5279 71.9721 16.7728 72.6875C22.1122 88.3209 34.0479 95.5119 49.3928 98.2991C51.8354 98.743 54.3243 98.9308 56.8126 99.1185C57.8609 99.1976 58.9091 99.2766 59.9537 99.3749C60.1458 99.393 60.3462 99.4253 60.5492 99.458C61.4402 99.6015 62.3786 99.7526 62.8586 98.7471C63.3254 97.773 62.5869 97.1106 61.9532 96.5422C61.7767 96.3839 61.6083 96.2329 61.4763 96.0844C53.9661 87.6199 47.9843 78.1539 42.8021 68.1476C38.6912 60.2099 35.5788 51.9771 35.7102 42.7487C39.976 63.5725 51.5276 80.4574 64.173 97.1224C65.4868 95.5998 66.5986 94.0364 67.6805 92.515C69.2861 90.2573 70.8259 88.092 72.8624 86.2896C74.6356 84.7197 73.6534 82.9591 72.733 81.3094C72.4888 80.8717 72.2489 80.4418 72.0661 80.0254C66.9288 68.321 62.2244 56.4379 60.0253 43.8154C58.6648 36.0003 58.247 28.0084 62.1304 20.5238C58.7843 36.1444 63.524 50.6247 68.2543 65.0765L68.3748 65.4445C69.2591 68.1463 70.3139 70.7925 71.3688 73.4393C72.191 75.5021 73.0133 77.5652 73.7553 79.6553C74.6163 82.0812 75.501 83.1237 77.0937 80.3033C78.8278 77.232 81.1586 74.6452 83.4853 72.063C84.2424 71.2226 84.9992 70.3828 85.7348 69.5268C88.2213 66.6335 87.8985 63.708 86.9196 60.463C83.5054 49.1531 81.9067 37.6335 83.4119 25.8337L83.4175 25.7898C83.7718 23.0151 84.1412 20.1232 86.6372 17.7627C83.2702 31.7288 85.6437 45.1068 88.0148 58.4714C88.1935 59.4785 88.3721 60.4854 88.5483 61.4925C89.0482 64.351 90.5644 63.3954 91.5624 62.2405C94.7261 58.5799 97.8141 54.8529 100.902 51.126C102.41 49.3064 103.917 47.4868 105.434 45.675C106.41 44.5069 106.341 43.2398 106.266 41.8814C106.256 41.6913 106.245 41.4994 106.237 41.3057C105.902 32.9292 105.938 24.6068 113.126 17.1401C109.163 25.4841 107.565 33.2476 108.196 42.5108C117.707 32.5845 126.789 23.4691 137.176 15.8257C137.177 15.8251 137.178 15.8244 137.178 15.8238C134.486 16.5192 132.147 15.3835 130.643 13.5198C128.951 11.4243 126.829 9.96623 124.707 8.50768C123.827 7.9033 122.948 7.29876 122.098 6.64883C113.83 0.325233 106.607 5.89856 103.767 12.483C101.649 17.3973 100.325 22.6645 99.7905 28.0561C99.6538 29.4399 99.5277 30.8249 99.4015 32.21C99.1607 34.8536 98.9199 37.4974 98.6059 40.1336C98.4161 41.7353 97.6251 43.1284 95.7314 43.1823C93.8209 43.2374 92.9969 38.4785 93.0352 37.5716C93.256 32.134 94.7921 26.9961 96.9208 22.0514C99.6499 15.7167 102.487 9.4244 105.454 3.19898C106.361 1.30072 105.954 1.21759 104.209 0.860617L104.017 0.821243C95.8819 -0.850286 87.9864 0.403884 80.0722 2.10857C78.7098 2.40101 78.4156 3.22957 77.994 4.41647L77.9319 4.59109C74.2171 14.9558 74.11 25.5208 75.895 36.2065C76.4081 39.2755 76.989 42.333 77.5699 45.3908L77.5703 45.3931C78.028 47.8024 78.4858 50.2118 78.9103 52.627C78.9653 52.9386 79.0371 53.2668 79.1106 53.6026C79.5336 55.5362 80.0115 57.7209 77.6493 58.4205C75.3935 59.0873 74.823 57.187 74.3055 55.4633C74.1799 55.0451 74.0575 54.6373 73.9148 54.2791C71.1666 47.3767 70.6059 40.0951 70.3446 32.7732C69.9613 22.0567 71.692 11.6262 74.9861 0.892517C67.6818 5.31403 60.538 8.8231 53.1026 11.5471C50.2239 12.6019 49.4152 14.1139 48.96 16.6741C46.2172 32.0751 49.0403 46.4174 57.0214 59.8105C57.249 60.1925 57.4847 60.5697 57.7203 60.9467C58.6755 62.4749 59.6291 64.0007 60.0253 65.8339C60.3814 67.4783 59.6562 68.8687 58.4144 69.2202C57.4873 69.4812 56.0391 69.5983 54.962 68.0497C52.9445 65.1488 51.4415 62.1411 50.685 58.7165C47.6822 45.1103 46.3418 31.3171 46.0529 17.4121C46.0488 17.2254 46.055 17.035 46.0612 16.8459C46.0861 16.0857 46.1104 15.3456 45.4614 14.9381C44.6365 14.4204 44.2794 14.9708 43.9224 15.521C43.7682 15.7587 43.6141 15.9964 43.4222 16.1479C37.8454 20.5483 33.1471 25.7537 28.4586 31.1032C21.7832 38.7211 20.021 44.8764 23.8796 53.8232C27.9556 63.2676 33.8085 71.5489 40.7912 79.0278C42.595 80.9606 47.2691 86.7159 44.4477 88.4269C41.6263 90.1378 29.8666 78.4628 25.8311 71.7689C21.1315 63.9764 17.403 55.7007 14.478 45.6602C6.00774 62.5555 -0.606173 78.4605 0.969438 96.6881C2.11988 110.009 8.06782 119.957 20.7617 124.812C31.3046 128.844 40.9453 124.478 48.8483 114.808C49.1728 114.411 49.4917 114.01 49.8096 113.611C51.9207 110.958 53.992 108.355 57.4364 107.239Z" fill="#C2FAF0"/>
<mask id="path-2-outside-1" maskUnits="userSpaceOnUse" x="56.2095" y="87.8027" width="117" height="87" fill="black">
<rect fill="white" x="56.2095" y="87.8027" width="117" height="87"/>
<path d="M65.3429 128.679C63.3452 128.18 61.8648 127.163 60.9017 125.629C59.9385 124.096 59.4569 121.955 59.4569 119.208C59.4569 116.818 59.7958 114 60.4736 110.754C61.0087 108.15 61.9183 105.046 63.2025 101.443C64.5224 97.8048 65.8602 94.7904 67.2157 92.4004C68.0362 91.0091 68.7496 90.046 69.3561 89.5109C69.9625 88.9758 70.5511 88.7439 71.1219 88.8152C71.9067 88.9579 72.5309 89.2968 72.9947 89.8319C73.4584 90.3313 73.6903 90.8843 73.6903 91.4907C73.6903 92.2042 73.3871 92.7571 72.7806 93.1495C72.4953 93.4705 72.1029 94.1126 71.6034 95.0758C71.104 96.0033 70.783 96.5919 70.6403 96.8416L69.3561 99.2495C68.1075 102.817 67.18 105.564 66.5736 107.49C66.0028 109.416 65.5391 111.45 65.1824 113.59C64.5403 116.551 64.1657 118.317 64.0587 118.887C63.9873 119.422 63.9517 120.172 63.9517 121.135C64.0587 121.349 64.2014 121.634 64.3797 121.991C64.5581 122.312 64.7186 122.562 64.8613 122.74C65.004 122.883 65.1645 122.972 65.3429 123.007C65.985 123.293 66.5736 123.436 67.1087 123.436C67.7508 123.436 68.4643 123.222 69.2491 122.793C69.3917 122.508 69.5879 122.294 69.8377 122.151C70.123 121.973 70.3014 121.866 70.3727 121.83C70.4441 121.937 70.4976 121.991 70.5333 121.991C70.6403 121.991 70.7295 121.866 70.8008 121.616V121.563C70.8008 121.384 70.9613 121.135 71.2824 120.814C71.6391 120.671 72.1207 120.225 72.7271 119.476C73.3692 118.691 73.94 117.888 74.4394 117.068C74.9745 116.212 75.2421 115.677 75.2421 115.463C75.2421 115.284 75.3312 115.088 75.5096 114.874C75.7236 114.66 75.8663 114.517 75.9377 114.446C76.1874 114.196 76.8117 113.108 77.8105 111.182C78.845 109.256 79.7903 107.401 80.6465 105.617C81.1816 103.869 81.9128 101.408 82.8403 98.2328C83.8035 95.058 84.3743 93.0246 84.5526 92.1328C84.624 91.6691 84.731 91.2767 84.8737 90.9556C85.0164 90.6346 85.1055 90.4205 85.1412 90.3135C85.4266 90.0995 85.7298 89.9924 86.0509 89.9924C86.6216 89.9924 87.2102 90.1886 87.8167 90.581C88.4231 90.9378 88.7798 91.1518 88.8868 91.2232C89.0652 91.4372 89.1544 91.7404 89.1544 92.1328C89.1544 92.5609 88.9939 93.4527 88.6728 94.8083C88.4944 95.5217 88.2626 96.5919 87.9772 98.0188C87.4064 100.266 86.7287 102.389 85.9439 104.386C85.1591 106.384 84.1424 108.792 82.8938 111.61C82.7512 111.931 82.5906 112.288 82.4123 112.68C82.2339 113.037 82.0555 113.447 81.8772 113.911V114.232C81.4491 114.482 81.1102 114.856 80.8605 115.356C80.7535 115.534 80.6108 115.784 80.4324 116.105C80.2897 116.39 80.1292 116.586 79.9509 116.693C79.8438 117.014 79.7368 117.282 79.6298 117.496C79.5584 117.71 79.5049 117.853 79.4693 117.924C79.4336 118.138 79.2731 118.334 78.9877 118.513C78.7023 118.691 78.5239 118.798 78.4526 118.834C78.3099 118.905 78.2029 119.066 78.1315 119.315C78.0602 119.565 77.9889 119.726 77.9175 119.797C76.7046 121.616 75.1529 123.364 73.2622 125.041C71.3716 126.717 69.7128 127.823 68.2859 128.358C67.5724 128.644 66.9482 128.786 66.4131 128.786C65.9493 128.786 65.5926 128.751 65.3429 128.679Z"/>
<path d="M84.7232 124.024C84.2238 123.632 83.8314 123.257 83.546 122.9C83.2606 122.544 83.1714 122.044 83.2784 121.402C83.3855 120.189 83.653 118.78 84.0811 117.175L84.3486 116.105C84.4556 115.142 85.0086 113.251 86.0074 110.433C87.0419 107.579 87.898 105.653 88.5758 104.654C88.9326 104.297 89.539 104.119 90.3951 104.119C91.1086 104.119 91.608 104.262 91.8934 104.547C92.1788 104.761 92.3215 105.118 92.3215 105.617C92.3215 106.438 91.8042 107.882 90.7697 109.951L90.2346 111.075C89.9849 111.539 89.7709 111.967 89.5925 112.359C89.4498 112.752 89.4676 112.93 89.646 112.894C90.0384 112.217 90.9837 111.289 92.482 110.112C94.0159 108.935 95.0682 108.203 95.639 107.918C95.8887 107.775 96.2098 107.633 96.6022 107.49C96.9946 107.347 97.2621 107.24 97.4048 107.169C98.0469 106.848 98.7782 106.687 99.5987 106.687C100.169 106.687 100.651 106.776 101.043 106.955C101.471 107.097 101.757 107.329 101.9 107.65C101.935 107.9 102.024 108.096 102.167 108.239C102.345 108.382 102.47 108.471 102.542 108.507C102.649 108.507 102.72 108.56 102.756 108.667C102.791 108.738 102.809 108.792 102.809 108.828C102.809 109.113 102.56 109.488 102.06 109.951C101.561 110.379 101.043 110.611 100.508 110.647C100.116 110.683 99.7057 110.772 99.2776 110.914C98.8496 111.057 98.4215 111.236 97.9934 111.45L96.6022 112.252C95.3893 112.859 94.3548 113.465 93.4987 114.071C92.6782 114.642 91.8399 115.391 90.9837 116.319C90.8054 116.497 90.5378 116.747 90.1811 117.068C89.86 117.389 89.5747 117.764 89.325 118.192C89.0752 118.441 88.8077 119.101 88.5223 120.172C88.2726 121.206 88.1478 121.848 88.1478 122.098C88.1121 122.205 88.0407 122.419 87.9337 122.74C87.8267 123.061 87.6662 123.346 87.4521 123.596C87.1311 123.988 86.8635 124.274 86.6495 124.452C86.4355 124.631 86.2036 124.72 85.9539 124.72C85.5972 124.72 85.1869 124.488 84.7232 124.024Z"/>
<path d="M107.002 124.72C106.36 124.862 105.396 124.648 104.112 124.078C102.864 123.471 102.025 122.936 101.597 122.472C101.419 122.223 101.33 122.026 101.33 121.884C101.33 121.741 101.383 121.616 101.49 121.509C101.597 121.402 101.74 121.349 101.918 121.349C102.132 121.349 102.382 121.17 102.667 120.814C102.953 120.457 103.131 119.922 103.203 119.208C103.238 118.78 103.327 118.37 103.47 117.978C103.613 117.55 103.684 117.264 103.684 117.122C103.72 117.014 103.756 116.729 103.791 116.265C103.863 115.766 103.97 115.338 104.112 114.981C104.326 114.054 104.665 112.752 105.129 111.075C105.628 109.363 106.039 108.078 106.36 107.222C106.431 106.58 106.806 105.599 107.483 104.279C108.161 102.46 109.267 99.8738 110.801 96.5205C112.37 93.1673 113.334 91.2588 113.69 90.7951C113.976 90.581 114.332 90.474 114.761 90.474C115.545 90.474 116.17 90.7059 116.633 91.1696C116.74 91.2767 116.883 91.455 117.061 91.7047C117.275 91.9188 117.436 92.1328 117.543 92.3468C117.65 92.5609 117.704 92.7571 117.704 92.9354C117.704 93.2208 117.579 93.5062 117.329 93.7916L115.884 96.0925C115.67 96.7346 115.206 97.8048 114.493 99.303C113.494 101.372 112.674 103.316 112.032 105.135C111.782 105.706 111.514 106.366 111.229 107.115C110.979 107.864 110.801 108.293 110.694 108.4C110.587 108.935 110.391 109.47 110.105 110.005C109.82 110.611 109.606 111.289 109.463 112.038L111.389 110.165C112.852 108.596 114.136 107.436 115.242 106.687C116.348 105.902 117.347 105.51 118.239 105.51C118.988 105.51 119.808 105.795 120.7 106.366C121.592 106.937 122.18 107.561 122.466 108.239C122.751 108.917 122.894 109.755 122.894 110.754C122.894 111.788 122.733 112.841 122.412 113.911C122.091 114.981 121.628 115.909 121.021 116.693C120.664 117.336 120.201 117.978 119.63 118.62C119.095 119.226 118.613 119.69 118.185 120.011C117.222 120.903 116.598 121.456 116.312 121.67C115.92 121.955 115.545 122.205 115.189 122.419C114.868 122.597 114.475 122.758 114.011 122.9C113.334 123.364 112.406 123.739 111.229 124.024C110.087 124.274 108.678 124.506 107.002 124.72ZM108.339 120.653C108.768 120.653 109.285 120.582 109.891 120.439C110.498 120.296 111.051 120.047 111.55 119.69C113.797 118.548 115.474 117.211 116.58 115.677C117.721 114.143 118.292 112.698 118.292 111.343C118.292 110.486 118.042 110.058 117.543 110.058C116.758 110.058 115.331 111.093 113.262 113.162C112.299 114.054 111.3 115.106 110.266 116.319L109.463 117.229C109.32 117.443 109.106 117.728 108.821 118.085C108.536 118.441 108.375 118.727 108.339 118.941C108.197 119.583 108.125 120.029 108.125 120.279C108.125 120.528 108.197 120.653 108.339 120.653Z"/>
<path d="M125.908 124.345C125.801 124.131 125.498 123.846 124.999 123.489C124.499 123.132 124.25 122.918 124.25 122.847C124.25 122.704 124.16 122.508 123.982 122.258C123.839 121.973 123.697 121.723 123.554 121.509C123.269 121.224 123.465 120.296 124.143 118.727C124.82 117.157 125.73 115.302 126.872 113.162C127.086 112.948 127.353 112.573 127.674 112.038C128.031 111.503 128.263 111.2 128.37 111.128C128.37 110.986 128.423 110.861 128.53 110.754C128.637 110.611 128.762 110.54 128.905 110.54L129.333 109.684C129.476 109.363 130.171 108.596 131.42 107.383C132.668 106.17 133.649 105.35 134.363 104.921C135.041 104.458 135.772 104.226 136.557 104.226C137.413 104.226 138.144 104.476 138.751 104.975L140.195 106.206C141.265 107.097 141.872 107.615 142.015 107.757L143.994 109.523L143.085 112.199C142.764 113.162 142.603 114.071 142.603 114.928C142.603 116.283 142.978 117.55 143.727 118.727C143.905 119.119 144.137 119.422 144.422 119.636C144.744 119.85 145.154 119.993 145.653 120.064C146.438 120.207 146.83 120.6 146.83 121.242C146.83 122.026 146.688 122.615 146.402 123.007C146.117 123.4 145.778 123.65 145.386 123.757C144.815 123.828 144.422 123.864 144.208 123.864C143.174 123.864 142.229 123.596 141.372 123.061C140.516 122.526 139.767 121.616 139.125 120.332C138.982 120.118 138.786 119.726 138.536 119.155C138.322 118.584 138.198 118.192 138.162 117.978C137.912 118.334 137.502 118.798 136.931 119.369C133.257 123.079 130.278 124.934 127.995 124.934C127.21 124.934 126.515 124.738 125.908 124.345ZM128.851 119.904C129.422 119.975 130.528 119.333 132.169 117.978C132.347 117.835 132.543 117.674 132.758 117.496C132.972 117.282 133.203 117.068 133.453 116.854C134.452 116.033 135.219 115.356 135.754 114.821C136.325 114.25 136.896 113.572 137.466 112.787L138.644 110.861C138.287 110.076 137.966 109.559 137.68 109.309C137.395 109.024 137.11 108.881 136.824 108.881C136.111 108.881 135.219 109.523 134.149 110.807C133.079 112.056 131.794 113.964 130.296 116.533C129.904 117.175 129.583 117.853 129.333 118.566C129.083 119.244 128.923 119.69 128.851 119.904Z"/>
<path d="M164.129 123.864C163.594 123.864 163.059 123.721 162.524 123.436C161.989 123.15 161.561 122.722 161.24 122.151L160.972 121.616C160.544 120.403 160.33 119.226 160.33 118.085V115.73C160.33 115.338 160.294 115.142 160.223 115.142C159.938 115.142 158.707 116.301 156.531 118.62C154.997 120.225 153.659 121.474 152.518 122.365C151.412 123.222 150.645 123.65 150.217 123.65C150.074 123.65 149.735 123.525 149.2 123.275C148.665 122.99 148.326 122.776 148.184 122.633C147.934 122.383 147.773 122.08 147.702 121.723C147.631 121.367 147.595 120.689 147.595 119.69C147.595 118.548 147.827 117.264 148.291 115.837C148.754 114.375 149.539 112.431 150.645 110.005C150.93 109.505 151.216 108.899 151.501 108.186C152.322 106.331 153.089 105.046 153.802 104.333C154.087 104.333 154.284 104.351 154.391 104.386C154.854 104.422 155.389 104.636 155.996 105.028C156.638 105.421 157.03 105.938 157.173 106.58C157.173 107.187 157.084 107.793 156.906 108.4C156.727 109.006 156.317 109.755 155.675 110.647C155.282 111.182 154.765 112.341 154.123 114.125C153.945 114.41 153.695 114.856 153.374 115.463C153.089 116.033 152.946 116.355 152.946 116.426C152.982 116.462 153.089 116.39 153.267 116.212C153.445 115.998 153.624 115.802 153.802 115.623L155.247 114.179C158.065 111.36 160.241 109.916 161.775 109.844C162.56 109.844 163.255 110.255 163.862 111.075C164.468 111.895 164.771 112.876 164.771 114.018C164.771 114.232 164.736 114.838 164.664 115.837V118.887C165.485 118.673 166.109 118.477 166.537 118.299C167.429 117.978 168.356 117.781 169.32 117.71C169.248 118.317 168.909 119.119 168.303 120.118C167.732 121.117 167.054 121.991 166.27 122.74C165.485 123.489 164.771 123.864 164.129 123.864Z"/>
<path d="M59.2429 173.796C59.0645 173.796 58.8683 173.724 58.6543 173.582C58.4759 173.475 58.3154 173.314 58.1727 173.1C57.8873 172.85 57.6554 172.547 57.4771 172.19C57.2987 171.834 57.2095 171.299 57.2095 170.585C57.2095 169.337 57.6019 167.535 58.3867 165.181C58.6364 164.182 58.904 163.219 59.1894 162.291C59.4391 161.649 59.5639 161.168 59.5639 160.847C59.5639 160.561 59.5996 160.24 59.6709 159.883C59.778 159.491 59.8315 159.223 59.8315 159.081C60.2595 159.081 60.6519 158.349 61.0087 156.887C61.1514 156.352 61.2762 155.906 61.3832 155.549C61.4903 155.157 61.5616 154.854 61.5973 154.64C61.6686 154.533 61.74 154.372 61.8113 154.158C61.9183 153.944 62.0075 153.748 62.0789 153.569C62.3642 152.713 62.7031 151.893 63.0955 151.108C63.5236 149.503 64.023 147.826 64.5938 146.078C65.2002 144.294 65.6996 142.975 66.092 142.118L66.7341 140.513C66.7698 140.406 66.8411 140.21 66.9482 139.925C67.0909 139.604 67.1622 139.372 67.1622 139.229C67.1622 139.086 67.1087 138.979 67.0017 138.908C66.752 138.73 66.6271 138.373 66.6271 137.838C66.6271 136.946 66.966 136.215 67.6438 135.644C68.0362 135.18 68.5534 134.859 69.1955 134.681C69.8733 134.467 70.676 134.36 71.6034 134.36C71.9958 134.36 72.6915 134.395 73.6903 134.467C74.1184 134.502 75.2599 134.52 77.1149 134.52C77.3289 134.627 77.7213 134.788 78.2921 135.002C79.5049 135.501 80.1114 135.804 80.1114 135.911C80.1114 136.09 80.1649 136.215 80.2719 136.286C80.4146 136.357 80.6108 136.411 80.8605 136.446C81.2529 136.446 81.9485 136.928 82.9474 137.891C83.9819 138.854 84.6953 139.746 85.0877 140.567C85.4088 141.209 85.6228 141.708 85.7298 142.065C85.8725 142.422 85.9439 142.868 85.9439 143.403C85.9439 143.617 85.9082 144.009 85.8368 144.58C85.7655 145.151 85.6763 145.704 85.5693 146.239C85.4623 146.774 85.3374 147.113 85.1947 147.255C84.624 147.683 84.3386 148.058 84.3386 148.379C84.3386 148.736 83.8213 149.735 82.7868 151.375C81.7523 153.016 80.8427 154.211 80.0579 154.961C79.1304 156.031 78.0245 156.976 76.7403 157.797C75.2421 158.474 73.5476 159.063 71.657 159.562C69.802 160.062 68.3929 160.294 67.4297 160.258C66.2882 160.436 65.5748 160.597 65.2894 160.74C65.0397 160.847 64.8435 161.132 64.7008 161.596C64.5224 162.095 64.3441 162.595 64.1657 163.094C64.023 163.593 63.9517 163.932 63.9517 164.111C63.7376 164.503 63.2917 165.698 62.6139 167.696C61.9718 169.693 61.5259 171.227 61.2762 172.297C61.1335 172.761 60.8481 173.118 60.4201 173.368C59.992 173.653 59.5996 173.796 59.2429 173.796ZM66.8411 155.924C66.9125 155.995 67.1087 156.031 67.4297 156.031C68.3572 156.031 69.5701 155.745 71.0684 155.175C72.3526 154.747 73.7795 154.051 75.3491 153.088C76.1339 152.553 77.0614 151.607 78.1315 150.252C78.3456 149.895 78.7737 149.057 79.4158 147.737C79.7011 147.237 79.9687 146.595 80.2184 145.811C80.5038 145.026 80.6465 144.33 80.6465 143.724C80.6465 143.438 80.6286 143.224 80.593 143.082C80.2362 141.227 79.2017 139.996 77.4894 139.389C76.3479 139.211 75.5453 139.122 75.0815 139.122C74.8318 139.122 74.4216 139.158 73.8508 139.229C73.2801 139.407 72.8698 139.657 72.6201 139.978C72.4061 140.263 72.085 140.941 71.657 142.011C70.5154 144.187 69.7663 145.757 69.4096 146.72C68.7318 149.146 68.1432 151.019 67.6438 152.339C67.1444 153.623 66.859 154.372 66.7876 154.586V154.8C66.7876 155.014 66.7698 155.228 66.7341 155.442C66.6985 155.656 66.7341 155.817 66.8411 155.924Z"/>
<path d="M85.1701 171.334C85.063 171.37 84.9204 171.388 84.742 171.388C83.9929 171.388 83.3686 170.96 82.8692 170.104C82.3698 169.247 82.1201 168.159 82.1201 166.84C82.1201 166.126 82.1914 165.431 82.3341 164.753C82.7265 163.718 82.9227 162.969 82.9227 162.505C83.0297 161.828 83.3864 160.615 83.9929 158.867C84.635 157.083 85.0452 156.013 85.2236 155.656C85.3663 155.656 85.4911 155.549 85.5981 155.335C85.7052 155.085 85.7587 154.818 85.7587 154.533C85.7587 154.211 85.8122 153.89 85.9192 153.569C86.0619 153.213 86.2046 152.963 86.3473 152.82C86.3473 152.713 86.3829 152.517 86.4543 152.232C86.5613 151.946 86.6148 151.75 86.6148 151.643C86.6148 151.572 86.6505 151.447 86.7218 151.268C86.8288 151.054 86.8824 150.894 86.8824 150.787C87.4531 149.681 88.4519 147.202 89.8789 143.349C91.3058 139.461 92.0192 137.303 92.0192 136.875C92.0192 136.589 92.1262 136.322 92.3403 136.072C92.5543 135.822 92.804 135.697 93.0894 135.697C93.1964 135.59 93.4283 135.519 93.785 135.483C94.1417 135.412 94.4271 135.376 94.6412 135.376L95.4973 136.232C95.8897 136.589 96.1929 136.91 96.4069 137.196C96.621 137.481 96.728 137.82 96.728 138.212C96.728 138.854 96.6031 139.496 96.3534 140.139C96.1394 140.745 95.4795 142.208 94.3736 144.526C94.3023 144.705 94.0169 145.347 93.5175 146.453C93.1607 147.166 92.9824 147.576 92.9824 147.683C92.9824 147.79 92.911 148.022 92.7683 148.379C92.6256 148.7 92.5008 149.039 92.3938 149.396C92.1084 149.966 91.6446 150.983 91.0025 152.446C90.3961 153.873 90.0929 154.657 90.0929 154.8C90.0929 155.192 90.0037 155.478 89.8253 155.656C89.7183 155.656 89.647 155.745 89.6113 155.924C89.5756 156.066 89.5578 156.173 89.5578 156.245C89.5578 156.602 89.2724 157.547 88.7017 159.081L88.2201 160.633C87.5423 162.951 87.0607 164.646 86.7753 165.716C86.5256 166.786 86.4008 167.696 86.4008 168.445C86.4008 169.23 86.2759 169.872 86.0262 170.371C85.7765 170.871 85.4911 171.192 85.1701 171.334Z"/>
<path d="M92.6471 169.622C92.5401 169.408 92.2369 169.123 91.7375 168.766C91.238 168.409 90.9883 168.195 90.9883 168.124C90.9883 167.981 90.8991 167.785 90.7208 167.535C90.5781 167.25 90.4354 167 90.2927 166.786C90.0073 166.501 90.2035 165.573 90.8813 164.004C91.5591 162.434 92.4687 160.579 93.6103 158.439C93.8243 158.225 94.0919 157.85 94.4129 157.315C94.7696 156.78 95.0015 156.477 95.1085 156.405C95.1085 156.263 95.162 156.138 95.269 156.031C95.3761 155.888 95.5009 155.817 95.6436 155.817L96.0717 154.961C96.2144 154.64 96.91 153.873 98.1585 152.66C99.4071 151.447 100.388 150.626 101.102 150.198C101.779 149.735 102.511 149.503 103.295 149.503C104.152 149.503 104.883 149.752 105.489 150.252L106.934 151.483C108.004 152.374 108.611 152.892 108.753 153.034L110.733 154.8L109.823 157.476C109.502 158.439 109.342 159.348 109.342 160.204C109.342 161.56 109.716 162.826 110.466 164.004C110.644 164.396 110.876 164.699 111.161 164.913C111.482 165.127 111.893 165.27 112.392 165.341C113.177 165.484 113.569 165.876 113.569 166.519C113.569 167.303 113.426 167.892 113.141 168.284C112.856 168.677 112.517 168.926 112.124 169.033C111.554 169.105 111.161 169.14 110.947 169.14C109.913 169.14 108.967 168.873 108.111 168.338C107.255 167.803 106.506 166.893 105.864 165.609C105.721 165.395 105.525 165.002 105.275 164.432C105.061 163.861 104.936 163.469 104.901 163.254C104.651 163.611 104.241 164.075 103.67 164.646C99.9957 168.356 97.017 170.211 94.734 170.211C93.9492 170.211 93.2535 170.014 92.6471 169.622ZM95.5901 165.181C96.1609 165.252 97.2667 164.61 98.9077 163.254C99.086 163.112 99.2822 162.951 99.4963 162.773C99.7103 162.559 99.9422 162.345 100.192 162.131C101.191 161.31 101.958 160.633 102.493 160.097C103.064 159.527 103.634 158.849 104.205 158.064L105.382 156.138C105.026 155.353 104.704 154.836 104.419 154.586C104.134 154.301 103.848 154.158 103.563 154.158C102.849 154.158 101.958 154.8 100.887 156.084C99.8173 157.333 98.5331 159.241 97.0348 161.81C96.6424 162.452 96.3214 163.13 96.0717 163.843C95.822 164.521 95.6614 164.967 95.5901 165.181Z"/>
<path d="M134.186 158.225C134.186 158.795 133.9 160.258 133.329 162.612C133.258 162.933 133.098 163.629 132.848 164.699C132.634 165.734 132.509 166.519 132.473 167.054C132.473 167.446 132.545 167.856 132.687 168.284C132.866 168.677 132.955 168.909 132.955 168.98C132.955 169.337 132.794 169.693 132.473 170.05C132.152 170.371 131.742 170.532 131.243 170.532C130.351 170.532 129.584 170.157 128.942 169.408C128.3 168.623 127.979 167.607 127.979 166.358C127.979 165.288 128.371 163.29 129.156 160.365C129.227 159.973 129.281 159.687 129.316 159.509C129.388 159.295 129.423 159.116 129.423 158.974C129.423 158.795 129.37 158.706 129.263 158.706C129.013 158.706 128.656 158.885 128.193 159.241C127.729 159.562 127.229 159.937 126.694 160.365L125.357 161.489C124.786 161.845 123.591 162.826 121.771 164.432C121.522 164.61 120.915 165.109 119.952 165.93C119.025 166.715 118.49 167.107 118.347 167.107C118.204 167.107 117.883 167 117.384 166.786C116.92 166.536 116.474 166.233 116.046 165.876C115.654 165.52 115.457 165.109 115.457 164.646C115.457 164.111 115.778 162.88 116.421 160.954C117.063 159.027 117.83 157.137 118.721 155.282C118.828 154.996 118.953 154.461 119.096 153.676C119.239 152.392 119.471 151.59 119.792 151.268C120.006 150.912 120.309 150.733 120.701 150.733C121.415 150.733 122.075 151.09 122.681 151.804C123.323 152.517 123.644 153.302 123.644 154.158C123.644 154.764 123.466 155.567 123.109 156.566C122.788 157.529 122.556 158.1 122.414 158.278C122.521 158.207 122.735 158.028 123.056 157.743C123.412 157.422 123.876 157.083 124.447 156.726C125.66 155.799 126.569 155.175 127.176 154.854C127.782 154.497 128.21 154.229 128.46 154.051C128.603 153.944 128.71 153.873 128.781 153.837C128.888 153.766 128.96 153.73 128.995 153.73C129.102 153.694 129.298 153.623 129.584 153.516C129.905 153.373 130.155 153.302 130.333 153.302C130.868 153.302 131.421 153.498 131.992 153.89C132.598 154.247 132.901 154.622 132.901 155.014C132.901 155.121 133.026 155.317 133.276 155.603C133.526 155.852 133.74 156.173 133.918 156.566C134.096 156.923 134.186 157.476 134.186 158.225Z"/>
<path d="M142.639 173.956C141.248 173.921 140.249 173.582 139.643 172.94C139.072 172.333 138.786 171.459 138.786 170.318C138.786 170.032 138.822 169.569 138.893 168.926C139.036 168.427 139.143 167.928 139.215 167.428C139.393 166.643 139.571 166.18 139.75 166.037C139.785 166.001 139.821 165.93 139.857 165.823C139.892 165.716 139.857 165.627 139.75 165.555C139.75 165.092 139.91 164.45 140.231 163.629C140.303 163.379 140.392 163.13 140.499 162.88C140.606 162.63 140.677 162.47 140.713 162.398C140.641 162.327 140.606 162.22 140.606 162.077C140.606 161.899 140.695 161.721 140.873 161.542C141.087 161.364 141.23 161.203 141.301 161.061C141.408 160.918 141.408 160.775 141.301 160.633C141.23 160.454 141.569 159.652 142.318 158.225C142.782 157.297 143.032 156.78 143.067 156.673C143.032 156.566 143.281 155.906 143.816 154.693C144.387 153.48 144.833 152.571 145.154 151.964C145.475 151.786 145.35 151.661 144.779 151.59C144.209 151.518 143.513 151.5 142.693 151.536C141.515 151.5 140.606 151.447 139.964 151.375C139.322 151.268 138.804 151.108 138.412 150.894C138.162 150.644 138.037 150.323 138.037 149.931C138.037 149.467 138.198 149.039 138.519 148.647C138.876 148.254 139.304 148.04 139.803 148.004C140.731 147.969 142.158 147.844 144.084 147.63L146.813 147.416L146.973 146.506C147.152 146.185 147.312 145.918 147.455 145.704C147.633 145.454 147.74 145.24 147.776 145.061C147.847 144.883 147.901 144.616 147.937 144.259C148.044 144.116 148.222 143.759 148.472 143.189C148.757 142.618 148.935 142.065 149.007 141.53C149.399 140.852 149.756 140.21 150.077 139.604C150.434 138.961 150.648 138.587 150.719 138.48C151.361 137.517 152.075 137.035 152.859 137.035C153.287 137.035 153.733 137.178 154.197 137.463C154.661 137.784 155.018 138.07 155.267 138.319C155.517 138.569 155.642 138.908 155.642 139.336C155.642 139.657 155.481 140.121 155.16 140.727C155.018 141.013 154.803 141.583 154.518 142.439C154.268 142.761 154.001 143.206 153.715 143.777C153.43 144.312 153.234 144.83 153.127 145.329C153.056 145.507 152.949 145.757 152.806 146.078C152.663 146.363 152.556 146.542 152.485 146.613C152.449 146.649 152.378 146.667 152.271 146.667C152.306 146.881 152.378 147.023 152.485 147.095C152.592 147.166 152.77 147.202 153.02 147.202C153.198 147.202 153.412 147.184 153.662 147.148C153.947 147.113 154.286 147.095 154.679 147.095C155.035 147.059 155.339 147.006 155.588 146.934C155.874 146.863 156.141 146.827 156.391 146.827C156.534 146.827 156.748 146.881 157.033 146.988C157.211 147.202 157.301 147.612 157.301 148.218C157.301 148.682 157.229 149.128 157.087 149.556C156.944 149.949 156.765 150.198 156.551 150.305C156.373 150.341 155.981 150.448 155.374 150.626C154.768 150.805 154.108 150.912 153.394 150.947L150.558 151.215L149.649 153.034C149.399 153.462 149.185 153.873 149.007 154.265C148.828 154.657 148.703 154.889 148.632 154.961C148.632 155.139 148.489 155.496 148.204 156.031C147.919 156.566 147.705 156.994 147.562 157.315C147.384 157.814 147.17 158.314 146.92 158.813C146.67 159.277 146.51 159.58 146.438 159.723C146.331 159.723 146.26 159.759 146.224 159.83C146.224 159.866 146.224 159.937 146.224 160.044L146.331 160.472C146.331 160.65 146.242 160.829 146.064 161.007C145.921 161.078 145.778 161.203 145.636 161.382C145.529 161.56 145.457 161.685 145.422 161.756C145.493 161.828 145.529 161.917 145.529 162.024C145.529 162.273 145.404 162.595 145.154 162.987C145.154 163.593 144.904 164.503 144.405 165.716C144.441 166.358 144.476 166.768 144.512 166.947C144.548 167.125 144.637 167.196 144.779 167.161H145.047L146.224 167.107C146.474 167 146.527 167.268 146.385 167.91C146.278 168.552 145.975 169.533 145.475 170.853C144.94 171.673 144.369 172.387 143.763 172.993C143.192 173.635 142.817 173.956 142.639 173.956Z"/>
<path d="M159.658 171.548C158.802 171.548 157.91 171.37 156.982 171.013C156.091 170.657 155.324 170.228 154.682 169.729C154.075 169.194 153.772 168.712 153.772 168.284C153.772 167.856 153.968 167.589 154.361 167.482L154.628 167.268C154.699 167.232 154.842 167.214 155.056 167.214C155.199 167.178 155.377 167.196 155.591 167.268C155.805 167.303 155.984 167.321 156.126 167.321C156.376 167.393 156.751 167.464 157.25 167.535L158.641 167.696C159.355 167.696 160.015 167.624 160.621 167.482C161.263 167.339 161.584 167.178 161.584 167C161.584 166.893 161.442 166.715 161.156 166.465C160.871 166.215 160.568 166.09 160.247 166.09C160.247 165.948 159.694 165.466 158.588 164.646C157.981 164.182 157.393 163.718 156.822 163.254C156.287 162.791 156.019 162.452 156.019 162.238L156.073 162.131V161.863C155.823 161.863 155.591 161.524 155.377 160.847C155.163 160.169 155.056 159.509 155.056 158.867C155.056 157.654 155.591 156.316 156.661 154.854C157.732 153.391 159.051 152.071 160.621 150.894C162.226 149.717 163.742 148.914 165.169 148.486C165.704 148.236 166.489 148.111 167.524 148.111C168.202 148.111 168.665 148.183 168.915 148.325L169.343 148.218C169.771 148.218 170.324 148.575 171.002 149.289C171.68 150.002 172.108 150.573 172.286 151.001C172.286 152.178 172.25 153.123 172.179 153.837C172.108 154.55 171.929 154.907 171.644 154.907C171.608 154.907 171.555 154.925 171.483 154.961C171.412 154.996 171.376 155.085 171.376 155.228C171.376 155.728 170.93 156.28 170.039 156.887C169.183 157.493 168.398 157.797 167.684 157.797L167.47 157.743C167.256 157.707 166.935 157.493 166.507 157.101C166.115 156.709 165.918 156.316 165.918 155.924C165.918 155.817 166.132 155.531 166.561 155.068C166.989 154.604 167.345 154.158 167.631 153.73C167.952 153.266 168.112 152.785 168.112 152.285C168.112 152.107 168.041 152 167.898 151.964C167.791 151.893 167.559 151.857 167.203 151.857C165.241 152.749 163.832 153.587 162.975 154.372C162.868 154.586 162.761 154.747 162.654 154.854C162.583 154.961 162.476 155.014 162.333 155.014C162.333 154.978 162.316 154.961 162.28 154.961C162.208 154.961 161.977 155.175 161.584 155.603C161.192 155.995 160.817 156.459 160.461 156.994C160.139 157.529 159.943 158.028 159.872 158.492L159.765 158.653V158.92C159.729 158.992 159.711 159.134 159.711 159.348C159.711 159.669 159.854 160.008 160.139 160.365C160.425 160.686 160.996 161.15 161.852 161.756C163.457 162.969 164.545 163.879 165.116 164.485C165.722 165.056 166.097 165.573 166.24 166.037C166.561 166.679 166.721 167.25 166.721 167.749C166.721 168.962 166.079 169.907 164.795 170.585C163.546 171.227 161.834 171.548 159.658 171.548Z"/>
</mask>
<path d="M65.3429 128.679C63.3452 128.18 61.8648 127.163 60.9017 125.629C59.9385 124.096 59.4569 121.955 59.4569 119.208C59.4569 116.818 59.7958 114 60.4736 110.754C61.0087 108.15 61.9183 105.046 63.2025 101.443C64.5224 97.8048 65.8602 94.7904 67.2157 92.4004C68.0362 91.0091 68.7496 90.046 69.3561 89.5109C69.9625 88.9758 70.5511 88.7439 71.1219 88.8152C71.9067 88.9579 72.5309 89.2968 72.9947 89.8319C73.4584 90.3313 73.6903 90.8843 73.6903 91.4907C73.6903 92.2042 73.3871 92.7571 72.7806 93.1495C72.4953 93.4705 72.1029 94.1126 71.6034 95.0758C71.104 96.0033 70.783 96.5919 70.6403 96.8416L69.3561 99.2495C68.1075 102.817 67.18 105.564 66.5736 107.49C66.0028 109.416 65.5391 111.45 65.1824 113.59C64.5403 116.551 64.1657 118.317 64.0587 118.887C63.9873 119.422 63.9517 120.172 63.9517 121.135C64.0587 121.349 64.2014 121.634 64.3797 121.991C64.5581 122.312 64.7186 122.562 64.8613 122.74C65.004 122.883 65.1645 122.972 65.3429 123.007C65.985 123.293 66.5736 123.436 67.1087 123.436C67.7508 123.436 68.4643 123.222 69.2491 122.793C69.3917 122.508 69.5879 122.294 69.8377 122.151C70.123 121.973 70.3014 121.866 70.3727 121.83C70.4441 121.937 70.4976 121.991 70.5333 121.991C70.6403 121.991 70.7295 121.866 70.8008 121.616V121.563C70.8008 121.384 70.9613 121.135 71.2824 120.814C71.6391 120.671 72.1207 120.225 72.7271 119.476C73.3692 118.691 73.94 117.888 74.4394 117.068C74.9745 116.212 75.2421 115.677 75.2421 115.463C75.2421 115.284 75.3312 115.088 75.5096 114.874C75.7236 114.66 75.8663 114.517 75.9377 114.446C76.1874 114.196 76.8117 113.108 77.8105 111.182C78.845 109.256 79.7903 107.401 80.6465 105.617C81.1816 103.869 81.9128 101.408 82.8403 98.2328C83.8035 95.058 84.3743 93.0246 84.5526 92.1328C84.624 91.6691 84.731 91.2767 84.8737 90.9556C85.0164 90.6346 85.1055 90.4205 85.1412 90.3135C85.4266 90.0995 85.7298 89.9924 86.0509 89.9924C86.6216 89.9924 87.2102 90.1886 87.8167 90.581C88.4231 90.9378 88.7798 91.1518 88.8868 91.2232C89.0652 91.4372 89.1544 91.7404 89.1544 92.1328C89.1544 92.5609 88.9939 93.4527 88.6728 94.8083C88.4944 95.5217 88.2626 96.5919 87.9772 98.0188C87.4064 100.266 86.7287 102.389 85.9439 104.386C85.1591 106.384 84.1424 108.792 82.8938 111.61C82.7512 111.931 82.5906 112.288 82.4123 112.68C82.2339 113.037 82.0555 113.447 81.8772 113.911V114.232C81.4491 114.482 81.1102 114.856 80.8605 115.356C80.7535 115.534 80.6108 115.784 80.4324 116.105C80.2897 116.39 80.1292 116.586 79.9509 116.693C79.8438 117.014 79.7368 117.282 79.6298 117.496C79.5584 117.71 79.5049 117.853 79.4693 117.924C79.4336 118.138 79.2731 118.334 78.9877 118.513C78.7023 118.691 78.5239 118.798 78.4526 118.834C78.3099 118.905 78.2029 119.066 78.1315 119.315C78.0602 119.565 77.9889 119.726 77.9175 119.797C76.7046 121.616 75.1529 123.364 73.2622 125.041C71.3716 126.717 69.7128 127.823 68.2859 128.358C67.5724 128.644 66.9482 128.786 66.4131 128.786C65.9493 128.786 65.5926 128.751 65.3429 128.679Z" fill="#2E3B38"/>
<path d="M84.7232 124.024C84.2238 123.632 83.8314 123.257 83.546 122.9C83.2606 122.544 83.1714 122.044 83.2784 121.402C83.3855 120.189 83.653 118.78 84.0811 117.175L84.3486 116.105C84.4556 115.142 85.0086 113.251 86.0074 110.433C87.0419 107.579 87.898 105.653 88.5758 104.654C88.9326 104.297 89.539 104.119 90.3951 104.119C91.1086 104.119 91.608 104.262 91.8934 104.547C92.1788 104.761 92.3215 105.118 92.3215 105.617C92.3215 106.438 91.8042 107.882 90.7697 109.951L90.2346 111.075C89.9849 111.539 89.7709 111.967 89.5925 112.359C89.4498 112.752 89.4676 112.93 89.646 112.894C90.0384 112.217 90.9837 111.289 92.482 110.112C94.0159 108.935 95.0682 108.203 95.639 107.918C95.8887 107.775 96.2098 107.633 96.6022 107.49C96.9946 107.347 97.2621 107.24 97.4048 107.169C98.0469 106.848 98.7782 106.687 99.5987 106.687C100.169 106.687 100.651 106.776 101.043 106.955C101.471 107.097 101.757 107.329 101.9 107.65C101.935 107.9 102.024 108.096 102.167 108.239C102.345 108.382 102.47 108.471 102.542 108.507C102.649 108.507 102.72 108.56 102.756 108.667C102.791 108.738 102.809 108.792 102.809 108.828C102.809 109.113 102.56 109.488 102.06 109.951C101.561 110.379 101.043 110.611 100.508 110.647C100.116 110.683 99.7057 110.772 99.2776 110.914C98.8496 111.057 98.4215 111.236 97.9934 111.45L96.6022 112.252C95.3893 112.859 94.3548 113.465 93.4987 114.071C92.6782 114.642 91.8399 115.391 90.9837 116.319C90.8054 116.497 90.5378 116.747 90.1811 117.068C89.86 117.389 89.5747 117.764 89.325 118.192C89.0752 118.441 88.8077 119.101 88.5223 120.172C88.2726 121.206 88.1478 121.848 88.1478 122.098C88.1121 122.205 88.0407 122.419 87.9337 122.74C87.8267 123.061 87.6662 123.346 87.4521 123.596C87.1311 123.988 86.8635 124.274 86.6495 124.452C86.4355 124.631 86.2036 124.72 85.9539 124.72C85.5972 124.72 85.1869 124.488 84.7232 124.024Z" fill="#2E3B38"/>
<path d="M107.002 124.72C106.36 124.862 105.396 124.648 104.112 124.078C102.864 123.471 102.025 122.936 101.597 122.472C101.419 122.223 101.33 122.026 101.33 121.884C101.33 121.741 101.383 121.616 101.49 121.509C101.597 121.402 101.74 121.349 101.918 121.349C102.132 121.349 102.382 121.17 102.667 120.814C102.953 120.457 103.131 119.922 103.203 119.208C103.238 118.78 103.327 118.37 103.47 117.978C103.613 117.55 103.684 117.264 103.684 117.122C103.72 117.014 103.756 116.729 103.791 116.265C103.863 115.766 103.97 115.338 104.112 114.981C104.326 114.054 104.665 112.752 105.129 111.075C105.628 109.363 106.039 108.078 106.36 107.222C106.431 106.58 106.806 105.599 107.483 104.279C108.161 102.46 109.267 99.8738 110.801 96.5205C112.37 93.1673 113.334 91.2588 113.69 90.7951C113.976 90.581 114.332 90.474 114.761 90.474C115.545 90.474 116.17 90.7059 116.633 91.1696C116.74 91.2767 116.883 91.455 117.061 91.7047C117.275 91.9188 117.436 92.1328 117.543 92.3468C117.65 92.5609 117.704 92.7571 117.704 92.9354C117.704 93.2208 117.579 93.5062 117.329 93.7916L115.884 96.0925C115.67 96.7346 115.206 97.8048 114.493 99.303C113.494 101.372 112.674 103.316 112.032 105.135C111.782 105.706 111.514 106.366 111.229 107.115C110.979 107.864 110.801 108.293 110.694 108.4C110.587 108.935 110.391 109.47 110.105 110.005C109.82 110.611 109.606 111.289 109.463 112.038L111.389 110.165C112.852 108.596 114.136 107.436 115.242 106.687C116.348 105.902 117.347 105.51 118.239 105.51C118.988 105.51 119.808 105.795 120.7 106.366C121.592 106.937 122.18 107.561 122.466 108.239C122.751 108.917 122.894 109.755 122.894 110.754C122.894 111.788 122.733 112.841 122.412 113.911C122.091 114.981 121.628 115.909 121.021 116.693C120.664 117.336 120.201 117.978 119.63 118.62C119.095 119.226 118.613 119.69 118.185 120.011C117.222 120.903 116.598 121.456 116.312 121.67C115.92 121.955 115.545 122.205 115.189 122.419C114.868 122.597 114.475 122.758 114.011 122.9C113.334 123.364 112.406 123.739 111.229 124.024C110.087 124.274 108.678 124.506 107.002 124.72ZM108.339 120.653C108.768 120.653 109.285 120.582 109.891 120.439C110.498 120.296 111.051 120.047 111.55 119.69C113.797 118.548 115.474 117.211 116.58 115.677C117.721 114.143 118.292 112.698 118.292 111.343C118.292 110.486 118.042 110.058 117.543 110.058C116.758 110.058 115.331 111.093 113.262 113.162C112.299 114.054 111.3 115.106 110.266 116.319L109.463 117.229C109.32 117.443 109.106 117.728 108.821 118.085C108.536 118.441 108.375 118.727 108.339 118.941C108.197 119.583 108.125 120.029 108.125 120.279C108.125 120.528 108.197 120.653 108.339 120.653Z" fill="#2E3B38"/>
<path d="M125.908 124.345C125.801 124.131 125.498 123.846 124.999 123.489C124.499 123.132 124.25 122.918 124.25 122.847C124.25 122.704 124.16 122.508 123.982 122.258C123.839 121.973 123.697 121.723 123.554 121.509C123.269 121.224 123.465 120.296 124.143 118.727C124.82 117.157 125.73 115.302 126.872 113.162C127.086 112.948 127.353 112.573 127.674 112.038C128.031 111.503 128.263 111.2 128.37 111.128C128.37 110.986 128.423 110.861 128.53 110.754C128.637 110.611 128.762 110.54 128.905 110.54L129.333 109.684C129.476 109.363 130.171 108.596 131.42 107.383C132.668 106.17 133.649 105.35 134.363 104.921C135.041 104.458 135.772 104.226 136.557 104.226C137.413 104.226 138.144 104.476 138.751 104.975L140.195 106.206C141.265 107.097 141.872 107.615 142.015 107.757L143.994 109.523L143.085 112.199C142.764 113.162 142.603 114.071 142.603 114.928C142.603 116.283 142.978 117.55 143.727 118.727C143.905 119.119 144.137 119.422 144.422 119.636C144.744 119.85 145.154 119.993 145.653 120.064C146.438 120.207 146.83 120.6 146.83 121.242C146.83 122.026 146.688 122.615 146.402 123.007C146.117 123.4 145.778 123.65 145.386 123.757C144.815 123.828 144.422 123.864 144.208 123.864C143.174 123.864 142.229 123.596 141.372 123.061C140.516 122.526 139.767 121.616 139.125 120.332C138.982 120.118 138.786 119.726 138.536 119.155C138.322 118.584 138.198 118.192 138.162 117.978C137.912 118.334 137.502 118.798 136.931 119.369C133.257 123.079 130.278 124.934 127.995 124.934C127.21 124.934 126.515 124.738 125.908 124.345ZM128.851 119.904C129.422 119.975 130.528 119.333 132.169 117.978C132.347 117.835 132.543 117.674 132.758 117.496C132.972 117.282 133.203 117.068 133.453 116.854C134.452 116.033 135.219 115.356 135.754 114.821C136.325 114.25 136.896 113.572 137.466 112.787L138.644 110.861C138.287 110.076 137.966 109.559 137.68 109.309C137.395 109.024 137.11 108.881 136.824 108.881C136.111 108.881 135.219 109.523 134.149 110.807C133.079 112.056 131.794 113.964 130.296 116.533C129.904 117.175 129.583 117.853 129.333 118.566C129.083 119.244 128.923 119.69 128.851 119.904Z" fill="#2E3B38"/>
<path d="M164.129 123.864C163.594 123.864 163.059 123.721 162.524 123.436C161.989 123.15 161.561 122.722 161.24 122.151L160.972 121.616C160.544 120.403 160.33 119.226 160.33 118.085V115.73C160.33 115.338 160.294 115.142 160.223 115.142C159.938 115.142 158.707 116.301 156.531 118.62C154.997 120.225 153.659 121.474 152.518 122.365C151.412 123.222 150.645 123.65 150.217 123.65C150.074 123.65 149.735 123.525 149.2 123.275C148.665 122.99 148.326 122.776 148.184 122.633C147.934 122.383 147.773 122.08 147.702 121.723C147.631 121.367 147.595 120.689 147.595 119.69C147.595 118.548 147.827 117.264 148.291 115.837C148.754 114.375 149.539 112.431 150.645 110.005C150.93 109.505 151.216 108.899 151.501 108.186C152.322 106.331 153.089 105.046 153.802 104.333C154.087 104.333 154.284 104.351 154.391 104.386C154.854 104.422 155.389 104.636 155.996 105.028C156.638 105.421 157.03 105.938 157.173 106.58C157.173 107.187 157.084 107.793 156.906 108.4C156.727 109.006 156.317 109.755 155.675 110.647C155.282 111.182 154.765 112.341 154.123 114.125C153.945 114.41 153.695 114.856 153.374 115.463C153.089 116.033 152.946 116.355 152.946 116.426C152.982 116.462 153.089 116.39 153.267 116.212C153.445 115.998 153.624 115.802 153.802 115.623L155.247 114.179C158.065 111.36 160.241 109.916 161.775 109.844C162.56 109.844 163.255 110.255 163.862 111.075C164.468 111.895 164.771 112.876 164.771 114.018C164.771 114.232 164.736 114.838 164.664 115.837V118.887C165.485 118.673 166.109 118.477 166.537 118.299C167.429 117.978 168.356 117.781 169.32 117.71C169.248 118.317 168.909 119.119 168.303 120.118C167.732 121.117 167.054 121.991 166.27 122.74C165.485 123.489 164.771 123.864 164.129 123.864Z" fill="#2E3B38"/>
<path d="M59.2429 173.796C59.0645 173.796 58.8683 173.724 58.6543 173.582C58.4759 173.475 58.3154 173.314 58.1727 173.1C57.8873 172.85 57.6554 172.547 57.4771 172.19C57.2987 171.834 57.2095 171.299 57.2095 170.585C57.2095 169.337 57.6019 167.535 58.3867 165.181C58.6364 164.182 58.904 163.219 59.1894 162.291C59.4391 161.649 59.5639 161.168 59.5639 160.847C59.5639 160.561 59.5996 160.24 59.6709 159.883C59.778 159.491 59.8315 159.223 59.8315 159.081C60.2595 159.081 60.6519 158.349 61.0087 156.887C61.1514 156.352 61.2762 155.906 61.3832 155.549C61.4903 155.157 61.5616 154.854 61.5973 154.64C61.6686 154.533 61.74 154.372 61.8113 154.158C61.9183 153.944 62.0075 153.748 62.0789 153.569C62.3642 152.713 62.7031 151.893 63.0955 151.108C63.5236 149.503 64.023 147.826 64.5938 146.078C65.2002 144.294 65.6996 142.975 66.092 142.118L66.7341 140.513C66.7698 140.406 66.8411 140.21 66.9482 139.925C67.0909 139.604 67.1622 139.372 67.1622 139.229C67.1622 139.086 67.1087 138.979 67.0017 138.908C66.752 138.73 66.6271 138.373 66.6271 137.838C66.6271 136.946 66.966 136.215 67.6438 135.644C68.0362 135.18 68.5534 134.859 69.1955 134.681C69.8733 134.467 70.676 134.36 71.6034 134.36C71.9958 134.36 72.6915 134.395 73.6903 134.467C74.1184 134.502 75.2599 134.52 77.1149 134.52C77.3289 134.627 77.7213 134.788 78.2921 135.002C79.5049 135.501 80.1114 135.804 80.1114 135.911C80.1114 136.09 80.1649 136.215 80.2719 136.286C80.4146 136.357 80.6108 136.411 80.8605 136.446C81.2529 136.446 81.9485 136.928 82.9474 137.891C83.9819 138.854 84.6953 139.746 85.0877 140.567C85.4088 141.209 85.6228 141.708 85.7298 142.065C85.8725 142.422 85.9439 142.868 85.9439 143.403C85.9439 143.617 85.9082 144.009 85.8368 144.58C85.7655 145.151 85.6763 145.704 85.5693 146.239C85.4623 146.774 85.3374 147.113 85.1947 147.255C84.624 147.683 84.3386 148.058 84.3386 148.379C84.3386 148.736 83.8213 149.735 82.7868 151.375C81.7523 153.016 80.8427 154.211 80.0579 154.961C79.1304 156.031 78.0245 156.976 76.7403 157.797C75.2421 158.474 73.5476 159.063 71.657 159.562C69.802 160.062 68.3929 160.294 67.4297 160.258C66.2882 160.436 65.5748 160.597 65.2894 160.74C65.0397 160.847 64.8435 161.132 64.7008 161.596C64.5224 162.095 64.3441 162.595 64.1657 163.094C64.023 163.593 63.9517 163.932 63.9517 164.111C63.7376 164.503 63.2917 165.698 62.6139 167.696C61.9718 169.693 61.5259 171.227 61.2762 172.297C61.1335 172.761 60.8481 173.118 60.4201 173.368C59.992 173.653 59.5996 173.796 59.2429 173.796ZM66.8411 155.924C66.9125 155.995 67.1087 156.031 67.4297 156.031C68.3572 156.031 69.5701 155.745 71.0684 155.175C72.3526 154.747 73.7795 154.051 75.3491 153.088C76.1339 152.553 77.0614 151.607 78.1315 150.252C78.3456 149.895 78.7737 149.057 79.4158 147.737C79.7011 147.237 79.9687 146.595 80.2184 145.811C80.5038 145.026 80.6465 144.33 80.6465 143.724C80.6465 143.438 80.6286 143.224 80.593 143.082C80.2362 141.227 79.2017 139.996 77.4894 139.389C76.3479 139.211 75.5453 139.122 75.0815 139.122C74.8318 139.122 74.4216 139.158 73.8508 139.229C73.2801 139.407 72.8698 139.657 72.6201 139.978C72.4061 140.263 72.085 140.941 71.657 142.011C70.5154 144.187 69.7663 145.757 69.4096 146.72C68.7318 149.146 68.1432 151.019 67.6438 152.339C67.1444 153.623 66.859 154.372 66.7876 154.586V154.8C66.7876 155.014 66.7698 155.228 66.7341 155.442C66.6985 155.656 66.7341 155.817 66.8411 155.924Z" fill="#2E3B38"/>
<path d="M85.1701 171.334C85.063 171.37 84.9204 171.388 84.742 171.388C83.9929 171.388 83.3686 170.96 82.8692 170.104C82.3698 169.247 82.1201 168.159 82.1201 166.84C82.1201 166.126 82.1914 165.431 82.3341 164.753C82.7265 163.718 82.9227 162.969 82.9227 162.505C83.0297 161.828 83.3864 160.615 83.9929 158.867C84.635 157.083 85.0452 156.013 85.2236 155.656C85.3663 155.656 85.4911 155.549 85.5981 155.335C85.7052 155.085 85.7587 154.818 85.7587 154.533C85.7587 154.211 85.8122 153.89 85.9192 153.569C86.0619 153.213 86.2046 152.963 86.3473 152.82C86.3473 152.713 86.3829 152.517 86.4543 152.232C86.5613 151.946 86.6148 151.75 86.6148 151.643C86.6148 151.572 86.6505 151.447 86.7218 151.268C86.8288 151.054 86.8824 150.894 86.8824 150.787C87.4531 149.681 88.4519 147.202 89.8789 143.349C91.3058 139.461 92.0192 137.303 92.0192 136.875C92.0192 136.589 92.1262 136.322 92.3403 136.072C92.5543 135.822 92.804 135.697 93.0894 135.697C93.1964 135.59 93.4283 135.519 93.785 135.483C94.1417 135.412 94.4271 135.376 94.6412 135.376L95.4973 136.232C95.8897 136.589 96.1929 136.91 96.4069 137.196C96.621 137.481 96.728 137.82 96.728 138.212C96.728 138.854 96.6031 139.496 96.3534 140.139C96.1394 140.745 95.4795 142.208 94.3736 144.526C94.3023 144.705 94.0169 145.347 93.5175 146.453C93.1607 147.166 92.9824 147.576 92.9824 147.683C92.9824 147.79 92.911 148.022 92.7683 148.379C92.6256 148.7 92.5008 149.039 92.3938 149.396C92.1084 149.966 91.6446 150.983 91.0025 152.446C90.3961 153.873 90.0929 154.657 90.0929 154.8C90.0929 155.192 90.0037 155.478 89.8253 155.656C89.7183 155.656 89.647 155.745 89.6113 155.924C89.5756 156.066 89.5578 156.173 89.5578 156.245C89.5578 156.602 89.2724 157.547 88.7017 159.081L88.2201 160.633C87.5423 162.951 87.0607 164.646 86.7753 165.716C86.5256 166.786 86.4008 167.696 86.4008 168.445C86.4008 169.23 86.2759 169.872 86.0262 170.371C85.7765 170.871 85.4911 171.192 85.1701 171.334Z" fill="#2E3B38"/>
<path d="M92.6471 169.622C92.5401 169.408 92.2369 169.123 91.7375 168.766C91.238 168.409 90.9883 168.195 90.9883 168.124C90.9883 167.981 90.8991 167.785 90.7208 167.535C90.5781 167.25 90.4354 167 90.2927 166.786C90.0073 166.501 90.2035 165.573 90.8813 164.004C91.5591 162.434 92.4687 160.579 93.6103 158.439C93.8243 158.225 94.0919 157.85 94.4129 157.315C94.7696 156.78 95.0015 156.477 95.1085 156.405C95.1085 156.263 95.162 156.138 95.269 156.031C95.3761 155.888 95.5009 155.817 95.6436 155.817L96.0717 154.961C96.2144 154.64 96.91 153.873 98.1585 152.66C99.4071 151.447 100.388 150.626 101.102 150.198C101.779 149.735 102.511 149.503 103.295 149.503C104.152 149.503 104.883 149.752 105.489 150.252L106.934 151.483C108.004 152.374 108.611 152.892 108.753 153.034L110.733 154.8L109.823 157.476C109.502 158.439 109.342 159.348 109.342 160.204C109.342 161.56 109.716 162.826 110.466 164.004C110.644 164.396 110.876 164.699 111.161 164.913C111.482 165.127 111.893 165.27 112.392 165.341C113.177 165.484 113.569 165.876 113.569 166.519C113.569 167.303 113.426 167.892 113.141 168.284C112.856 168.677 112.517 168.926 112.124 169.033C111.554 169.105 111.161 169.14 110.947 169.14C109.913 169.14 108.967 168.873 108.111 168.338C107.255 167.803 106.506 166.893 105.864 165.609C105.721 165.395 105.525 165.002 105.275 164.432C105.061 163.861 104.936 163.469 104.901 163.254C104.651 163.611 104.241 164.075 103.67 164.646C99.9957 168.356 97.017 170.211 94.734 170.211C93.9492 170.211 93.2535 170.014 92.6471 169.622ZM95.5901 165.181C96.1609 165.252 97.2667 164.61 98.9077 163.254C99.086 163.112 99.2822 162.951 99.4963 162.773C99.7103 162.559 99.9422 162.345 100.192 162.131C101.191 161.31 101.958 160.633 102.493 160.097C103.064 159.527 103.634 158.849 104.205 158.064L105.382 156.138C105.026 155.353 104.704 154.836 104.419 154.586C104.134 154.301 103.848 154.158 103.563 154.158C102.849 154.158 101.958 154.8 100.887 156.084C99.8173 157.333 98.5331 159.241 97.0348 161.81C96.6424 162.452 96.3214 163.13 96.0717 163.843C95.822 164.521 95.6614 164.967 95.5901 165.181Z" fill="#2E3B38"/>
<path d="M134.186 158.225C134.186 158.795 133.9 160.258 133.329 162.612C133.258 162.933 133.098 163.629 132.848 164.699C132.634 165.734 132.509 166.519 132.473 167.054C132.473 167.446 132.545 167.856 132.687 168.284C132.866 168.677 132.955 168.909 132.955 168.98C132.955 169.337 132.794 169.693 132.473 170.05C132.152 170.371 131.742 170.532 131.243 170.532C130.351 170.532 129.584 170.157 128.942 169.408C128.3 168.623 127.979 167.607 127.979 166.358C127.979 165.288 128.371 163.29 129.156 160.365C129.227 159.973 129.281 159.687 129.316 159.509C129.388 159.295 129.423 159.116 129.423 158.974C129.423 158.795 129.37 158.706 129.263 158.706C129.013 158.706 128.656 158.885 128.193 159.241C127.729 159.562 127.229 159.937 126.694 160.365L125.357 161.489C124.786 161.845 123.591 162.826 121.771 164.432C121.522 164.61 120.915 165.109 119.952 165.93C119.025 166.715 118.49 167.107 118.347 167.107C118.204 167.107 117.883 167 117.384 166.786C116.92 166.536 116.474 166.233 116.046 165.876C115.654 165.52 115.457 165.109 115.457 164.646C115.457 164.111 115.778 162.88 116.421 160.954C117.063 159.027 117.83 157.137 118.721 155.282C118.828 154.996 118.953 154.461 119.096 153.676C119.239 152.392 119.471 151.59 119.792 151.268C120.006 150.912 120.309 150.733 120.701 150.733C121.415 150.733 122.075 151.09 122.681 151.804C123.323 152.517 123.644 153.302 123.644 154.158C123.644 154.764 123.466 155.567 123.109 156.566C122.788 157.529 122.556 158.1 122.414 158.278C122.521 158.207 122.735 158.028 123.056 157.743C123.412 157.422 123.876 157.083 124.447 156.726C125.66 155.799 126.569 155.175 127.176 154.854C127.782 154.497 128.21 154.229 128.46 154.051C128.603 153.944 128.71 153.873 128.781 153.837C128.888 153.766 128.96 153.73 128.995 153.73C129.102 153.694 129.298 153.623 129.584 153.516C129.905 153.373 130.155 153.302 130.333 153.302C130.868 153.302 131.421 153.498 131.992 153.89C132.598 154.247 132.901 154.622 132.901 155.014C132.901 155.121 133.026 155.317 133.276 155.603C133.526 155.852 133.74 156.173 133.918 156.566C134.096 156.923 134.186 157.476 134.186 158.225Z" fill="#2E3B38"/>
<path d="M142.639 173.956C141.248 173.921 140.249 173.582 139.643 172.94C139.072 172.333 138.786 171.459 138.786 170.318C138.786 170.032 138.822 169.569 138.893 168.926C139.036 168.427 139.143 167.928 139.215 167.428C139.393 166.643 139.571 166.18 139.75 166.037C139.785 166.001 139.821 165.93 139.857 165.823C139.892 165.716 139.857 165.627 139.75 165.555C139.75 165.092 139.91 164.45 140.231 163.629C140.303 163.379 140.392 163.13 140.499 162.88C140.606 162.63 140.677 162.47 140.713 162.398C140.641 162.327 140.606 162.22 140.606 162.077C140.606 161.899 140.695 161.721 140.873 161.542C141.087 161.364 141.23 161.203 141.301 161.061C141.408 160.918 141.408 160.775 141.301 160.633C141.23 160.454 141.569 159.652 142.318 158.225C142.782 157.297 143.032 156.78 143.067 156.673C143.032 156.566 143.281 155.906 143.816 154.693C144.387 153.48 144.833 152.571 145.154 151.964C145.475 151.786 145.35 151.661 144.779 151.59C144.209 151.518 143.513 151.5 142.693 151.536C141.515 151.5 140.606 151.447 139.964 151.375C139.322 151.268 138.804 151.108 138.412 150.894C138.162 150.644 138.037 150.323 138.037 149.931C138.037 149.467 138.198 149.039 138.519 148.647C138.876 148.254 139.304 148.04 139.803 148.004C140.731 147.969 142.158 147.844 144.084 147.63L146.813 147.416L146.973 146.506C147.152 146.185 147.312 145.918 147.455 145.704C147.633 145.454 147.74 145.24 147.776 145.061C147.847 144.883 147.901 144.616 147.937 144.259C148.044 144.116 148.222 143.759 148.472 143.189C148.757 142.618 148.935 142.065 149.007 141.53C149.399 140.852 149.756 140.21 150.077 139.604C150.434 138.961 150.648 138.587 150.719 138.48C151.361 137.517 152.075 137.035 152.859 137.035C153.287 137.035 153.733 137.178 154.197 137.463C154.661 137.784 155.018 138.07 155.267 138.319C155.517 138.569 155.642 138.908 155.642 139.336C155.642 139.657 155.481 140.121 155.16 140.727C155.018 141.013 154.803 141.583 154.518 142.439C154.268 142.761 154.001 143.206 153.715 143.777C153.43 144.312 153.234 144.83 153.127 145.329C153.056 145.507 152.949 145.757 152.806 146.078C152.663 146.363 152.556 146.542 152.485 146.613C152.449 146.649 152.378 146.667 152.271 146.667C152.306 146.881 152.378 147.023 152.485 147.095C152.592 147.166 152.77 147.202 153.02 147.202C153.198 147.202 153.412 147.184 153.662 147.148C153.947 147.113 154.286 147.095 154.679 147.095C155.035 147.059 155.339 147.006 155.588 146.934C155.874 146.863 156.141 146.827 156.391 146.827C156.534 146.827 156.748 146.881 157.033 146.988C157.211 147.202 157.301 147.612 157.301 148.218C157.301 148.682 157.229 149.128 157.087 149.556C156.944 149.949 156.765 150.198 156.551 150.305C156.373 150.341 155.981 150.448 155.374 150.626C154.768 150.805 154.108 150.912 153.394 150.947L150.558 151.215L149.649 153.034C149.399 153.462 149.185 153.873 149.007 154.265C148.828 154.657 148.703 154.889 148.632 154.961C148.632 155.139 148.489 155.496 148.204 156.031C147.919 156.566 147.705 156.994 147.562 157.315C147.384 157.814 147.17 158.314 146.92 158.813C146.67 159.277 146.51 159.58 146.438 159.723C146.331 159.723 146.26 159.759 146.224 159.83C146.224 159.866 146.224 159.937 146.224 160.044L146.331 160.472C146.331 160.65 146.242 160.829 146.064 161.007C145.921 161.078 145.778 161.203 145.636 161.382C145.529 161.56 145.457 161.685 145.422 161.756C145.493 161.828 145.529 161.917 145.529 162.024C145.529 162.273 145.404 162.595 145.154 162.987C145.154 163.593 144.904 164.503 144.405 165.716C144.441 166.358 144.476 166.768 144.512 166.947C144.548 167.125 144.637 167.196 144.779 167.161H145.047L146.224 167.107C146.474 167 146.527 167.268 146.385 167.91C146.278 168.552 145.975 169.533 145.475 170.853C144.94 171.673 144.369 172.387 143.763 172.993C143.192 173.635 142.817 173.956 142.639 173.956Z" fill="#2E3B38"/>
<path d="M159.658 171.548C158.802 171.548 157.91 171.37 156.982 171.013C156.091 170.657 155.324 170.228 154.682 169.729C154.075 169.194 153.772 168.712 153.772 168.284C153.772 167.856 153.968 167.589 154.361 167.482L154.628 167.268C154.699 167.232 154.842 167.214 155.056 167.214C155.199 167.178 155.377 167.196 155.591 167.268C155.805 167.303 155.984 167.321 156.126 167.321C156.376 167.393 156.751 167.464 157.25 167.535L158.641 167.696C159.355 167.696 160.015 167.624 160.621 167.482C161.263 167.339 161.584 167.178 161.584 167C161.584 166.893 161.442 166.715 161.156 166.465C160.871 166.215 160.568 166.09 160.247 166.09C160.247 165.948 159.694 165.466 158.588 164.646C157.981 164.182 157.393 163.718 156.822 163.254C156.287 162.791 156.019 162.452 156.019 162.238L156.073 162.131V161.863C155.823 161.863 155.591 161.524 155.377 160.847C155.163 160.169 155.056 159.509 155.056 158.867C155.056 157.654 155.591 156.316 156.661 154.854C157.732 153.391 159.051 152.071 160.621 150.894C162.226 149.717 163.742 148.914 165.169 148.486C165.704 148.236 166.489 148.111 167.524 148.111C168.202 148.111 168.665 148.183 168.915 148.325L169.343 148.218C169.771 148.218 170.324 148.575 171.002 149.289C171.68 150.002 172.108 150.573 172.286 151.001C172.286 152.178 172.25 153.123 172.179 153.837C172.108 154.55 171.929 154.907 171.644 154.907C171.608 154.907 171.555 154.925 171.483 154.961C171.412 154.996 171.376 155.085 171.376 155.228C171.376 155.728 170.93 156.28 170.039 156.887C169.183 157.493 168.398 157.797 167.684 157.797L167.47 157.743C167.256 157.707 166.935 157.493 166.507 157.101C166.115 156.709 165.918 156.316 165.918 155.924C165.918 155.817 166.132 155.531 166.561 155.068C166.989 154.604 167.345 154.158 167.631 153.73C167.952 153.266 168.112 152.785 168.112 152.285C168.112 152.107 168.041 152 167.898 151.964C167.791 151.893 167.559 151.857 167.203 151.857C165.241 152.749 163.832 153.587 162.975 154.372C162.868 154.586 162.761 154.747 162.654 154.854C162.583 154.961 162.476 155.014 162.333 155.014C162.333 154.978 162.316 154.961 162.28 154.961C162.208 154.961 161.977 155.175 161.584 155.603C161.192 155.995 160.817 156.459 160.461 156.994C160.139 157.529 159.943 158.028 159.872 158.492L159.765 158.653V158.92C159.729 158.992 159.711 159.134 159.711 159.348C159.711 159.669 159.854 160.008 160.139 160.365C160.425 160.686 160.996 161.15 161.852 161.756C163.457 162.969 164.545 163.879 165.116 164.485C165.722 165.056 166.097 165.573 166.24 166.037C166.561 166.679 166.721 167.25 166.721 167.749C166.721 168.962 166.079 169.907 164.795 170.585C163.546 171.227 161.834 171.548 159.658 171.548Z" fill="#2E3B38"/>
<path d="M65.3429 128.679C63.3452 128.18 61.8648 127.163 60.9017 125.629C59.9385 124.096 59.4569 121.955 59.4569 119.208C59.4569 116.818 59.7958 114 60.4736 110.754C61.0087 108.15 61.9183 105.046 63.2025 101.443C64.5224 97.8048 65.8602 94.7904 67.2157 92.4004C68.0362 91.0091 68.7496 90.046 69.3561 89.5109C69.9625 88.9758 70.5511 88.7439 71.1219 88.8152C71.9067 88.9579 72.5309 89.2968 72.9947 89.8319C73.4584 90.3313 73.6903 90.8843 73.6903 91.4907C73.6903 92.2042 73.3871 92.7571 72.7806 93.1495C72.4953 93.4705 72.1029 94.1126 71.6034 95.0758C71.104 96.0033 70.783 96.5919 70.6403 96.8416L69.3561 99.2495C68.1075 102.817 67.18 105.564 66.5736 107.49C66.0028 109.416 65.5391 111.45 65.1824 113.59C64.5403 116.551 64.1657 118.317 64.0587 118.887C63.9873 119.422 63.9517 120.172 63.9517 121.135C64.0587 121.349 64.2014 121.634 64.3797 121.991C64.5581 122.312 64.7186 122.562 64.8613 122.74C65.004 122.883 65.1645 122.972 65.3429 123.007C65.985 123.293 66.5736 123.436 67.1087 123.436C67.7508 123.436 68.4643 123.222 69.2491 122.793C69.3917 122.508 69.5879 122.294 69.8377 122.151C70.123 121.973 70.3014 121.866 70.3727 121.83C70.4441 121.937 70.4976 121.991 70.5333 121.991C70.6403 121.991 70.7295 121.866 70.8008 121.616V121.563C70.8008 121.384 70.9613 121.135 71.2824 120.814C71.6391 120.671 72.1207 120.225 72.7271 119.476C73.3692 118.691 73.94 117.888 74.4394 117.068C74.9745 116.212 75.2421 115.677 75.2421 115.463C75.2421 115.284 75.3312 115.088 75.5096 114.874C75.7236 114.66 75.8663 114.517 75.9377 114.446C76.1874 114.196 76.8117 113.108 77.8105 111.182C78.845 109.256 79.7903 107.401 80.6465 105.617C81.1816 103.869 81.9128 101.408 82.8403 98.2328C83.8035 95.058 84.3743 93.0246 84.5526 92.1328C84.624 91.6691 84.731 91.2767 84.8737 90.9556C85.0164 90.6346 85.1055 90.4205 85.1412 90.3135C85.4266 90.0995 85.7298 89.9924 86.0509 89.9924C86.6216 89.9924 87.2102 90.1886 87.8167 90.581C88.4231 90.9378 88.7798 91.1518 88.8868 91.2232C89.0652 91.4372 89.1544 91.7404 89.1544 92.1328C89.1544 92.5609 88.9939 93.4527 88.6728 94.8083C88.4944 95.5217 88.2626 96.5919 87.9772 98.0188C87.4064 100.266 86.7287 102.389 85.9439 104.386C85.1591 106.384 84.1424 108.792 82.8938 111.61C82.7512 111.931 82.5906 112.288 82.4123 112.68C82.2339 113.037 82.0555 113.447 81.8772 113.911V114.232C81.4491 114.482 81.1102 114.856 80.8605 115.356C80.7535 115.534 80.6108 115.784 80.4324 116.105C80.2897 116.39 80.1292 116.586 79.9509 116.693C79.8438 117.014 79.7368 117.282 79.6298 117.496C79.5584 117.71 79.5049 117.853 79.4693 117.924C79.4336 118.138 79.2731 118.334 78.9877 118.513C78.7023 118.691 78.5239 118.798 78.4526 118.834C78.3099 118.905 78.2029 119.066 78.1315 119.315C78.0602 119.565 77.9889 119.726 77.9175 119.797C76.7046 121.616 75.1529 123.364 73.2622 125.041C71.3716 126.717 69.7128 127.823 68.2859 128.358C67.5724 128.644 66.9482 128.786 66.4131 128.786C65.9493 128.786 65.5926 128.751 65.3429 128.679Z" stroke="#2E3B38" mask="url(#path-2-outside-1)"/>
<path d="M84.7232 124.024C84.2238 123.632 83.8314 123.257 83.546 122.9C83.2606 122.544 83.1714 122.044 83.2784 121.402C83.3855 120.189 83.653 118.78 84.0811 117.175L84.3486 116.105C84.4556 115.142 85.0086 113.251 86.0074 110.433C87.0419 107.579 87.898 105.653 88.5758 104.654C88.9326 104.297 89.539 104.119 90.3951 104.119C91.1086 104.119 91.608 104.262 91.8934 104.547C92.1788 104.761 92.3215 105.118 92.3215 105.617C92.3215 106.438 91.8042 107.882 90.7697 109.951L90.2346 111.075C89.9849 111.539 89.7709 111.967 89.5925 112.359C89.4498 112.752 89.4676 112.93 89.646 112.894C90.0384 112.217 90.9837 111.289 92.482 110.112C94.0159 108.935 95.0682 108.203 95.639 107.918C95.8887 107.775 96.2098 107.633 96.6022 107.49C96.9946 107.347 97.2621 107.24 97.4048 107.169C98.0469 106.848 98.7782 106.687 99.5987 106.687C100.169 106.687 100.651 106.776 101.043 106.955C101.471 107.097 101.757 107.329 101.9 107.65C101.935 107.9 102.024 108.096 102.167 108.239C102.345 108.382 102.47 108.471 102.542 108.507C102.649 108.507 102.72 108.56 102.756 108.667C102.791 108.738 102.809 108.792 102.809 108.828C102.809 109.113 102.56 109.488 102.06 109.951C101.561 110.379 101.043 110.611 100.508 110.647C100.116 110.683 99.7057 110.772 99.2776 110.914C98.8496 111.057 98.4215 111.236 97.9934 111.45L96.6022 112.252C95.3893 112.859 94.3548 113.465 93.4987 114.071C92.6782 114.642 91.8399 115.391 90.9837 116.319C90.8054 116.497 90.5378 116.747 90.1811 117.068C89.86 117.389 89.5747 117.764 89.325 118.192C89.0752 118.441 88.8077 119.101 88.5223 120.172C88.2726 121.206 88.1478 121.848 88.1478 122.098C88.1121 122.205 88.0407 122.419 87.9337 122.74C87.8267 123.061 87.6662 123.346 87.4521 123.596C87.1311 123.988 86.8635 124.274 86.6495 124.452C86.4355 124.631 86.2036 124.72 85.9539 124.72C85.5972 124.72 85.1869 124.488 84.7232 124.024Z" stroke="#2E3B38" mask="url(#path-2-outside-1)"/>
<path d="M107.002 124.72C106.36 124.862 105.396 124.648 104.112 124.078C102.864 123.471 102.025 122.936 101.597 122.472C101.419 122.223 101.33 122.026 101.33 121.884C101.33 121.741 101.383 121.616 101.49 121.509C101.597 121.402 101.74 121.349 101.918 121.349C102.132 121.349 102.382 121.17 102.667 120.814C102.953 120.457 103.131 119.922 103.203 119.208C103.238 118.78 103.327 118.37 103.47 117.978C103.613 117.55 103.684 117.264 103.684 117.122C103.72 117.014 103.756 116.729 103.791 116.265C103.863 115.766 103.97 115.338 104.112 114.981C104.326 114.054 104.665 112.752 105.129 111.075C105.628 109.363 106.039 108.078 106.36 107.222C106.431 106.58 106.806 105.599 107.483 104.279C108.161 102.46 109.267 99.8738 110.801 96.5205C112.37 93.1673 113.334 91.2588 113.69 90.7951C113.976 90.581 114.332 90.474 114.761 90.474C115.545 90.474 116.17 90.7059 116.633 91.1696C116.74 91.2767 116.883 91.455 117.061 91.7047C117.275 91.9188 117.436 92.1328 117.543 92.3468C117.65 92.5609 117.704 92.7571 117.704 92.9354C117.704 93.2208 117.579 93.5062 117.329 93.7916L115.884 96.0925C115.67 96.7346 115.206 97.8048 114.493 99.303C113.494 101.372 112.674 103.316 112.032 105.135C111.782 105.706 111.514 106.366 111.229 107.115C110.979 107.864 110.801 108.293 110.694 108.4C110.587 108.935 110.391 109.47 110.105 110.005C109.82 110.611 109.606 111.289 109.463 112.038L111.389 110.165C112.852 108.596 114.136 107.436 115.242 106.687C116.348 105.902 117.347 105.51 118.239 105.51C118.988 105.51 119.808 105.795 120.7 106.366C121.592 106.937 122.18 107.561 122.466 108.239C122.751 108.917 122.894 109.755 122.894 110.754C122.894 111.788 122.733 112.841 122.412 113.911C122.091 114.981 121.628 115.909 121.021 116.693C120.664 117.336 120.201 117.978 119.63 118.62C119.095 119.226 118.613 119.69 118.185 120.011C117.222 120.903 116.598 121.456 116.312 121.67C115.92 121.955 115.545 122.205 115.189 122.419C114.868 122.597 114.475 122.758 114.011 122.9C113.334 123.364 112.406 123.739 111.229 124.024C110.087 124.274 108.678 124.506 107.002 124.72ZM108.339 120.653C108.768 120.653 109.285 120.582 109.891 120.439C110.498 120.296 111.051 120.047 111.55 119.69C113.797 118.548 115.474 117.211 116.58 115.677C117.721 114.143 118.292 112.698 118.292 111.343C118.292 110.486 118.042 110.058 117.543 110.058C116.758 110.058 115.331 111.093 113.262 113.162C112.299 114.054 111.3 115.106 110.266 116.319L109.463 117.229C109.32 117.443 109.106 117.728 108.821 118.085C108.536 118.441 108.375 118.727 108.339 118.941C108.197 119.583 108.125 120.029 108.125 120.279C108.125 120.528 108.197 120.653 108.339 120.653Z" stroke="#2E3B38" mask="url(#path-2-outside-1)"/>
<path d="M125.908 124.345C125.801 124.131 125.498 123.846 124.999 123.489C124.499 123.132 124.25 122.918 124.25 122.847C124.25 122.704 124.16 122.508 123.982 122.258C123.839 121.973 123.697 121.723 123.554 121.509C123.269 121.224 123.465 120.296 124.143 118.727C124.82 117.157 125.73 115.302 126.872 113.162C127.086 112.948 127.353 112.573 127.674 112.038C128.031 111.503 128.263 111.2 128.37 111.128C128.37 110.986 128.423 110.861 128.53 110.754C128.637 110.611 128.762 110.54 128.905 110.54L129.333 109.684C129.476 109.363 130.171 108.596 131.42 107.383C132.668 106.17 133.649 105.35 134.363 104.921C135.041 104.458 135.772 104.226 136.557 104.226C137.413 104.226 138.144 104.476 138.751 104.975L140.195 106.206C141.265 107.097 141.872 107.615 142.015 107.757L143.994 109.523L143.085 112.199C142.764 113.162 142.603 114.071 142.603 114.928C142.603 116.283 142.978 117.55 143.727 118.727C143.905 119.119 144.137 119.422 144.422 119.636C144.744 119.85 145.154 119.993 145.653 120.064C146.438 120.207 146.83 120.6 146.83 121.242C146.83 122.026 146.688 122.615 146.402 123.007C146.117 123.4 145.778 123.65 145.386 123.757C144.815 123.828 144.422 123.864 144.208 123.864C143.174 123.864 142.229 123.596 141.372 123.061C140.516 122.526 139.767 121.616 139.125 120.332C138.982 120.118 138.786 119.726 138.536 119.155C138.322 118.584 138.198 118.192 138.162 117.978C137.912 118.334 137.502 118.798 136.931 119.369C133.257 123.079 130.278 124.934 127.995 124.934C127.21 124.934 126.515 124.738 125.908 124.345ZM128.851 119.904C129.422 119.975 130.528 119.333 132.169 117.978C132.347 117.835 132.543 117.674 132.758 117.496C132.972 117.282 133.203 117.068 133.453 116.854C134.452 116.033 135.219 115.356 135.754 114.821C136.325 114.25 136.896 113.572 137.466 112.787L138.644 110.861C138.287 110.076 137.966 109.559 137.68 109.309C137.395 109.024 137.11 108.881 136.824 108.881C136.111 108.881 135.219 109.523 134.149 110.807C133.079 112.056 131.794 113.964 130.296 116.533C129.904 117.175 129.583 117.853 129.333 118.566C129.083 119.244 128.923 119.69 128.851 119.904Z" stroke="#2E3B38" mask="url(#path-2-outside-1)"/>
<path d="M164.129 123.864C163.594 123.864 163.059 123.721 162.524 123.436C161.989 123.15 161.561 122.722 161.24 122.151L160.972 121.616C160.544 120.403 160.33 119.226 160.33 118.085V115.73C160.33 115.338 160.294 115.142 160.223 115.142C159.938 115.142 158.707 116.301 156.531 118.62C154.997 120.225 153.659 121.474 152.518 122.365C151.412 123.222 150.645 123.65 150.217 123.65C150.074 123.65 149.735 123.525 149.2 123.275C148.665 122.99 148.326 122.776 148.184 122.633C147.934 122.383 147.773 122.08 147.702 121.723C147.631 121.367 147.595 120.689 147.595 119.69C147.595 118.548 147.827 117.264 148.291 115.837C148.754 114.375 149.539 112.431 150.645 110.005C150.93 109.505 151.216 108.899 151.501 108.186C152.322 106.331 153.089 105.046 153.802 104.333C154.087 104.333 154.284 104.351 154.391 104.386C154.854 104.422 155.389 104.636 155.996 105.028C156.638 105.421 157.03 105.938 157.173 106.58C157.173 107.187 157.084 107.793 156.906 108.4C156.727 109.006 156.317 109.755 155.675 110.647C155.282 111.182 154.765 112.341 154.123 114.125C153.945 114.41 153.695 114.856 153.374 115.463C153.089 116.033 152.946 116.355 152.946 116.426C152.982 116.462 153.089 116.39 153.267 116.212C153.445 115.998 153.624 115.802 153.802 115.623L155.247 114.179C158.065 111.36 160.241 109.916 161.775 109.844C162.56 109.844 163.255 110.255 163.862 111.075C164.468 111.895 164.771 112.876 164.771 114.018C164.771 114.232 164.736 114.838 164.664 115.837V118.887C165.485 118.673 166.109 118.477 166.537 118.299C167.429 117.978 168.356 117.781 169.32 117.71C169.248 118.317 168.909 119.119 168.303 120.118C167.732 121.117 167.054 121.991 166.27 122.74C165.485 123.489 164.771 123.864 164.129 123.864Z" stroke="#2E3B38" mask="url(#path-2-outside-1)"/>
<path d="M59.2429 173.796C59.0645 173.796 58.8683 173.724 58.6543 173.582C58.4759 173.475 58.3154 173.314 58.1727 173.1C57.8873 172.85 57.6554 172.547 57.4771 172.19C57.2987 171.834 57.2095 171.299 57.2095 170.585C57.2095 169.337 57.6019 167.535 58.3867 165.181C58.6364 164.182 58.904 163.219 59.1894 162.291C59.4391 161.649 59.5639 161.168 59.5639 160.847C59.5639 160.561 59.5996 160.24 59.6709 159.883C59.778 159.491 59.8315 159.223 59.8315 159.081C60.2595 159.081 60.6519 158.349 61.0087 156.887C61.1514 156.352 61.2762 155.906 61.3832 155.549C61.4903 155.157 61.5616 154.854 61.5973 154.64C61.6686 154.533 61.74 154.372 61.8113 154.158C61.9183 153.944 62.0075 153.748 62.0789 153.569C62.3642 152.713 62.7031 151.893 63.0955 151.108C63.5236 149.503 64.023 147.826 64.5938 146.078C65.2002 144.294 65.6996 142.975 66.092 142.118L66.7341 140.513C66.7698 140.406 66.8411 140.21 66.9482 139.925C67.0909 139.604 67.1622 139.372 67.1622 139.229C67.1622 139.086 67.1087 138.979 67.0017 138.908C66.752 138.73 66.6271 138.373 66.6271 137.838C66.6271 136.946 66.966 136.215 67.6438 135.644C68.0362 135.18 68.5534 134.859 69.1955 134.681C69.8733 134.467 70.676 134.36 71.6034 134.36C71.9958 134.36 72.6915 134.395 73.6903 134.467C74.1184 134.502 75.2599 134.52 77.1149 134.52C77.3289 134.627 77.7213 134.788 78.2921 135.002C79.5049 135.501 80.1114 135.804 80.1114 135.911C80.1114 136.09 80.1649 136.215 80.2719 136.286C80.4146 136.357 80.6108 136.411 80.8605 136.446C81.2529 136.446 81.9485 136.928 82.9474 137.891C83.9819 138.854 84.6953 139.746 85.0877 140.567C85.4088 141.209 85.6228 141.708 85.7298 142.065C85.8725 142.422 85.9439 142.868 85.9439 143.403C85.9439 143.617 85.9082 144.009 85.8368 144.58C85.7655 145.151 85.6763 145.704 85.5693 146.239C85.4623 146.774 85.3374 147.113 85.1947 147.255C84.624 147.683 84.3386 148.058 84.3386 148.379C84.3386 148.736 83.8213 149.735 82.7868 151.375C81.7523 153.016 80.8427 154.211 80.0579 154.961C79.1304 156.031 78.0245 156.976 76.7403 157.797C75.2421 158.474 73.5476 159.063 71.657 159.562C69.802 160.062 68.3929 160.294 67.4297 160.258C66.2882 160.436 65.5748 160.597 65.2894 160.74C65.0397 160.847 64.8435 161.132 64.7008 161.596C64.5224 162.095 64.3441 162.595 64.1657 163.094C64.023 163.593 63.9517 163.932 63.9517 164.111C63.7376 164.503 63.2917 165.698 62.6139 167.696C61.9718 169.693 61.5259 171.227 61.2762 172.297C61.1335 172.761 60.8481 173.118 60.4201 173.368C59.992 173.653 59.5996 173.796 59.2429 173.796ZM66.8411 155.924C66.9125 155.995 67.1087 156.031 67.4297 156.031C68.3572 156.031 69.5701 155.745 71.0684 155.175C72.3526 154.747 73.7795 154.051 75.3491 153.088C76.1339 152.553 77.0614 151.607 78.1315 150.252C78.3456 149.895 78.7737 149.057 79.4158 147.737C79.7011 147.237 79.9687 146.595 80.2184 145.811C80.5038 145.026 80.6465 144.33 80.6465 143.724C80.6465 143.438 80.6286 143.224 80.593 143.082C80.2362 141.227 79.2017 139.996 77.4894 139.389C76.3479 139.211 75.5453 139.122 75.0815 139.122C74.8318 139.122 74.4216 139.158 73.8508 139.229C73.2801 139.407 72.8698 139.657 72.6201 139.978C72.4061 140.263 72.085 140.941 71.657 142.011C70.5154 144.187 69.7663 145.757 69.4096 146.72C68.7318 149.146 68.1432 151.019 67.6438 152.339C67.1444 153.623 66.859 154.372 66.7876 154.586V154.8C66.7876 155.014 66.7698 155.228 66.7341 155.442C66.6985 155.656 66.7341 155.817 66.8411 155.924Z" stroke="#2E3B38" mask="url(#path-2-outside-1)"/>
<path d="M85.1701 171.334C85.063 171.37 84.9204 171.388 84.742 171.388C83.9929 171.388 83.3686 170.96 82.8692 170.104C82.3698 169.247 82.1201 168.159 82.1201 166.84C82.1201 166.126 82.1914 165.431 82.3341 164.753C82.7265 163.718 82.9227 162.969 82.9227 162.505C83.0297 161.828 83.3864 160.615 83.9929 158.867C84.635 157.083 85.0452 156.013 85.2236 155.656C85.3663 155.656 85.4911 155.549 85.5981 155.335C85.7052 155.085 85.7587 154.818 85.7587 154.533C85.7587 154.211 85.8122 153.89 85.9192 153.569C86.0619 153.213 86.2046 152.963 86.3473 152.82C86.3473 152.713 86.3829 152.517 86.4543 152.232C86.5613 151.946 86.6148 151.75 86.6148 151.643C86.6148 151.572 86.6505 151.447 86.7218 151.268C86.8288 151.054 86.8824 150.894 86.8824 150.787C87.4531 149.681 88.4519 147.202 89.8789 143.349C91.3058 139.461 92.0192 137.303 92.0192 136.875C92.0192 136.589 92.1262 136.322 92.3403 136.072C92.5543 135.822 92.804 135.697 93.0894 135.697C93.1964 135.59 93.4283 135.519 93.785 135.483C94.1417 135.412 94.4271 135.376 94.6412 135.376L95.4973 136.232C95.8897 136.589 96.1929 136.91 96.4069 137.196C96.621 137.481 96.728 137.82 96.728 138.212C96.728 138.854 96.6031 139.496 96.3534 140.139C96.1394 140.745 95.4795 142.208 94.3736 144.526C94.3023 144.705 94.0169 145.347 93.5175 146.453C93.1607 147.166 92.9824 147.576 92.9824 147.683C92.9824 147.79 92.911 148.022 92.7683 148.379C92.6256 148.7 92.5008 149.039 92.3938 149.396C92.1084 149.966 91.6446 150.983 91.0025 152.446C90.3961 153.873 90.0929 154.657 90.0929 154.8C90.0929 155.192 90.0037 155.478 89.8253 155.656C89.7183 155.656 89.647 155.745 89.6113 155.924C89.5756 156.066 89.5578 156.173 89.5578 156.245C89.5578 156.602 89.2724 157.547 88.7017 159.081L88.2201 160.633C87.5423 162.951 87.0607 164.646 86.7753 165.716C86.5256 166.786 86.4008 167.696 86.4008 168.445C86.4008 169.23 86.2759 169.872 86.0262 170.371C85.7765 170.871 85.4911 171.192 85.1701 171.334Z" stroke="#2E3B38" mask="url(#path-2-outside-1)"/>
<path d="M92.6471 169.622C92.5401 169.408 92.2369 169.123 91.7375 168.766C91.238 168.409 90.9883 168.195 90.9883 168.124C90.9883 167.981 90.8991 167.785 90.7208 167.535C90.5781 167.25 90.4354 167 90.2927 166.786C90.0073 166.501 90.2035 165.573 90.8813 164.004C91.5591 162.434 92.4687 160.579 93.6103 158.439C93.8243 158.225 94.0919 157.85 94.4129 157.315C94.7696 156.78 95.0015 156.477 95.1085 156.405C95.1085 156.263 95.162 156.138 95.269 156.031C95.3761 155.888 95.5009 155.817 95.6436 155.817L96.0717 154.961C96.2144 154.64 96.91 153.873 98.1585 152.66C99.4071 151.447 100.388 150.626 101.102 150.198C101.779 149.735 102.511 149.503 103.295 149.503C104.152 149.503 104.883 149.752 105.489 150.252L106.934 151.483C108.004 152.374 108.611 152.892 108.753 153.034L110.733 154.8L109.823 157.476C109.502 158.439 109.342 159.348 109.342 160.204C109.342 161.56 109.716 162.826 110.466 164.004C110.644 164.396 110.876 164.699 111.161 164.913C111.482 165.127 111.893 165.27 112.392 165.341C113.177 165.484 113.569 165.876 113.569 166.519C113.569 167.303 113.426 167.892 113.141 168.284C112.856 168.677 112.517 168.926 112.124 169.033C111.554 169.105 111.161 169.14 110.947 169.14C109.913 169.14 108.967 168.873 108.111 168.338C107.255 167.803 106.506 166.893 105.864 165.609C105.721 165.395 105.525 165.002 105.275 164.432C105.061 163.861 104.936 163.469 104.901 163.254C104.651 163.611 104.241 164.075 103.67 164.646C99.9957 168.356 97.017 170.211 94.734 170.211C93.9492 170.211 93.2535 170.014 92.6471 169.622ZM95.5901 165.181C96.1609 165.252 97.2667 164.61 98.9077 163.254C99.086 163.112 99.2822 162.951 99.4963 162.773C99.7103 162.559 99.9422 162.345 100.192 162.131C101.191 161.31 101.958 160.633 102.493 160.097C103.064 159.527 103.634 158.849 104.205 158.064L105.382 156.138C105.026 155.353 104.704 154.836 104.419 154.586C104.134 154.301 103.848 154.158 103.563 154.158C102.849 154.158 101.958 154.8 100.887 156.084C99.8173 157.333 98.5331 159.241 97.0348 161.81C96.6424 162.452 96.3214 163.13 96.0717 163.843C95.822 164.521 95.6614 164.967 95.5901 165.181Z" stroke="#2E3B38" mask="url(#path-2-outside-1)"/>
<path d="M134.186 158.225C134.186 158.795 133.9 160.258 133.329 162.612C133.258 162.933 133.098 163.629 132.848 164.699C132.634 165.734 132.509 166.519 132.473 167.054C132.473 167.446 132.545 167.856 132.687 168.284C132.866 168.677 132.955 168.909 132.955 168.98C132.955 169.337 132.794 169.693 132.473 170.05C132.152 170.371 131.742 170.532 131.243 170.532C130.351 170.532 129.584 170.157 128.942 169.408C128.3 168.623 127.979 167.607 127.979 166.358C127.979 165.288 128.371 163.29 129.156 160.365C129.227 159.973 129.281 159.687 129.316 159.509C129.388 159.295 129.423 159.116 129.423 158.974C129.423 158.795 129.37 158.706 129.263 158.706C129.013 158.706 128.656 158.885 128.193 159.241C127.729 159.562 127.229 159.937 126.694 160.365L125.357 161.489C124.786 161.845 123.591 162.826 121.771 164.432C121.522 164.61 120.915 165.109 119.952 165.93C119.025 166.715 118.49 167.107 118.347 167.107C118.204 167.107 117.883 167 117.384 166.786C116.92 166.536 116.474 166.233 116.046 165.876C115.654 165.52 115.457 165.109 115.457 164.646C115.457 164.111 115.778 162.88 116.421 160.954C117.063 159.027 117.83 157.137 118.721 155.282C118.828 154.996 118.953 154.461 119.096 153.676C119.239 152.392 119.471 151.59 119.792 151.268C120.006 150.912 120.309 150.733 120.701 150.733C121.415 150.733 122.075 151.09 122.681 151.804C123.323 152.517 123.644 153.302 123.644 154.158C123.644 154.764 123.466 155.567 123.109 156.566C122.788 157.529 122.556 158.1 122.414 158.278C122.521 158.207 122.735 158.028 123.056 157.743C123.412 157.422 123.876 157.083 124.447 156.726C125.66 155.799 126.569 155.175 127.176 154.854C127.782 154.497 128.21 154.229 128.46 154.051C128.603 153.944 128.71 153.873 128.781 153.837C128.888 153.766 128.96 153.73 128.995 153.73C129.102 153.694 129.298 153.623 129.584 153.516C129.905 153.373 130.155 153.302 130.333 153.302C130.868 153.302 131.421 153.498 131.992 153.89C132.598 154.247 132.901 154.622 132.901 155.014C132.901 155.121 133.026 155.317 133.276 155.603C133.526 155.852 133.74 156.173 133.918 156.566C134.096 156.923 134.186 157.476 134.186 158.225Z" stroke="#2E3B38" mask="url(#path-2-outside-1)"/>
<path d="M142.639 173.956C141.248 173.921 140.249 173.582 139.643 172.94C139.072 172.333 138.786 171.459 138.786 170.318C138.786 170.032 138.822 169.569 138.893 168.926C139.036 168.427 139.143 167.928 139.215 167.428C139.393 166.643 139.571 166.18 139.75 166.037C139.785 166.001 139.821 165.93 139.857 165.823C139.892 165.716 139.857 165.627 139.75 165.555C139.75 165.092 139.91 164.45 140.231 163.629C140.303 163.379 140.392 163.13 140.499 162.88C140.606 162.63 140.677 162.47 140.713 162.398C140.641 162.327 140.606 162.22 140.606 162.077C140.606 161.899 140.695 161.721 140.873 161.542C141.087 161.364 141.23 161.203 141.301 161.061C141.408 160.918 141.408 160.775 141.301 160.633C141.23 160.454 141.569 159.652 142.318 158.225C142.782 157.297 143.032 156.78 143.067 156.673C143.032 156.566 143.281 155.906 143.816 154.693C144.387 153.48 144.833 152.571 145.154 151.964C145.475 151.786 145.35 151.661 144.779 151.59C144.209 151.518 143.513 151.5 142.693 151.536C141.515 151.5 140.606 151.447 139.964 151.375C139.322 151.268 138.804 151.108 138.412 150.894C138.162 150.644 138.037 150.323 138.037 149.931C138.037 149.467 138.198 149.039 138.519 148.647C138.876 148.254 139.304 148.04 139.803 148.004C140.731 147.969 142.158 147.844 144.084 147.63L146.813 147.416L146.973 146.506C147.152 146.185 147.312 145.918 147.455 145.704C147.633 145.454 147.74 145.24 147.776 145.061C147.847 144.883 147.901 144.616 147.937 144.259C148.044 144.116 148.222 143.759 148.472 143.189C148.757 142.618 148.935 142.065 149.007 141.53C149.399 140.852 149.756 140.21 150.077 139.604C150.434 138.961 150.648 138.587 150.719 138.48C151.361 137.517 152.075 137.035 152.859 137.035C153.287 137.035 153.733 137.178 154.197 137.463C154.661 137.784 155.018 138.07 155.267 138.319C155.517 138.569 155.642 138.908 155.642 139.336C155.642 139.657 155.481 140.121 155.16 140.727C155.018 141.013 154.803 141.583 154.518 142.439C154.268 142.761 154.001 143.206 153.715 143.777C153.43 144.312 153.234 144.83 153.127 145.329C153.056 145.507 152.949 145.757 152.806 146.078C152.663 146.363 152.556 146.542 152.485 146.613C152.449 146.649 152.378 146.667 152.271 146.667C152.306 146.881 152.378 147.023 152.485 147.095C152.592 147.166 152.77 147.202 153.02 147.202C153.198 147.202 153.412 147.184 153.662 147.148C153.947 147.113 154.286 147.095 154.679 147.095C155.035 147.059 155.339 147.006 155.588 146.934C155.874 146.863 156.141 146.827 156.391 146.827C156.534 146.827 156.748 146.881 157.033 146.988C157.211 147.202 157.301 147.612 157.301 148.218C157.301 148.682 157.229 149.128 157.087 149.556C156.944 149.949 156.765 150.198 156.551 150.305C156.373 150.341 155.981 150.448 155.374 150.626C154.768 150.805 154.108 150.912 153.394 150.947L150.558 151.215L149.649 153.034C149.399 153.462 149.185 153.873 149.007 154.265C148.828 154.657 148.703 154.889 148.632 154.961C148.632 155.139 148.489 155.496 148.204 156.031C147.919 156.566 147.705 156.994 147.562 157.315C147.384 157.814 147.17 158.314 146.92 158.813C146.67 159.277 146.51 159.58 146.438 159.723C146.331 159.723 146.26 159.759 146.224 159.83C146.224 159.866 146.224 159.937 146.224 160.044L146.331 160.472C146.331 160.65 146.242 160.829 146.064 161.007C145.921 161.078 145.778 161.203 145.636 161.382C145.529 161.56 145.457 161.685 145.422 161.756C145.493 161.828 145.529 161.917 145.529 162.024C145.529 162.273 145.404 162.595 145.154 162.987C145.154 163.593 144.904 164.503 144.405 165.716C144.441 166.358 144.476 166.768 144.512 166.947C144.548 167.125 144.637 167.196 144.779 167.161H145.047L146.224 167.107C146.474 167 146.527 167.268 146.385 167.91C146.278 168.552 145.975 169.533 145.475 170.853C144.94 171.673 144.369 172.387 143.763 172.993C143.192 173.635 142.817 173.956 142.639 173.956Z" stroke="#2E3B38" mask="url(#path-2-outside-1)"/>
<path d="M159.658 171.548C158.802 171.548 157.91 171.37 156.982 171.013C156.091 170.657 155.324 170.228 154.682 169.729C154.075 169.194 153.772 168.712 153.772 168.284C153.772 167.856 153.968 167.589 154.361 167.482L154.628 167.268C154.699 167.232 154.842 167.214 155.056 167.214C155.199 167.178 155.377 167.196 155.591 167.268C155.805 167.303 155.984 167.321 156.126 167.321C156.376 167.393 156.751 167.464 157.25 167.535L158.641 167.696C159.355 167.696 160.015 167.624 160.621 167.482C161.263 167.339 161.584 167.178 161.584 167C161.584 166.893 161.442 166.715 161.156 166.465C160.871 166.215 160.568 166.09 160.247 166.09C160.247 165.948 159.694 165.466 158.588 164.646C157.981 164.182 157.393 163.718 156.822 163.254C156.287 162.791 156.019 162.452 156.019 162.238L156.073 162.131V161.863C155.823 161.863 155.591 161.524 155.377 160.847C155.163 160.169 155.056 159.509 155.056 158.867C155.056 157.654 155.591 156.316 156.661 154.854C157.732 153.391 159.051 152.071 160.621 150.894C162.226 149.717 163.742 148.914 165.169 148.486C165.704 148.236 166.489 148.111 167.524 148.111C168.202 148.111 168.665 148.183 168.915 148.325L169.343 148.218C169.771 148.218 170.324 148.575 171.002 149.289C171.68 150.002 172.108 150.573 172.286 151.001C172.286 152.178 172.25 153.123 172.179 153.837C172.108 154.55 171.929 154.907 171.644 154.907C171.608 154.907 171.555 154.925 171.483 154.961C171.412 154.996 171.376 155.085 171.376 155.228C171.376 155.728 170.93 156.28 170.039 156.887C169.183 157.493 168.398 157.797 167.684 157.797L167.47 157.743C167.256 157.707 166.935 157.493 166.507 157.101C166.115 156.709 165.918 156.316 165.918 155.924C165.918 155.817 166.132 155.531 166.561 155.068C166.989 154.604 167.345 154.158 167.631 153.73C167.952 153.266 168.112 152.785 168.112 152.285C168.112 152.107 168.041 152 167.898 151.964C167.791 151.893 167.559 151.857 167.203 151.857C165.241 152.749 163.832 153.587 162.975 154.372C162.868 154.586 162.761 154.747 162.654 154.854C162.583 154.961 162.476 155.014 162.333 155.014C162.333 154.978 162.316 154.961 162.28 154.961C162.208 154.961 161.977 155.175 161.584 155.603C161.192 155.995 160.817 156.459 160.461 156.994C160.139 157.529 159.943 158.028 159.872 158.492L159.765 158.653V158.92C159.729 158.992 159.711 159.134 159.711 159.348C159.711 159.669 159.854 160.008 160.139 160.365C160.425 160.686 160.996 161.15 161.852 161.756C163.457 162.969 164.545 163.879 165.116 164.485C165.722 165.056 166.097 165.573 166.24 166.037C166.561 166.679 166.721 167.25 166.721 167.749C166.721 168.962 166.079 169.907 164.795 170.585C163.546 171.227 161.834 171.548 159.658 171.548Z" stroke="#2E3B38" mask="url(#path-2-outside-1)"/>
</svg>
