<svg width="10" height="14" viewBox="0 0 10 14" fill="none" xmlns="http://www.w3.org/2000/svg">
<path d="M9.46903 8.76549C9.46903 11.3641 7.83315 13 5.23452 13C2.63588 13 1 11.3641 1 8.76549C1 5.97688 4.03562 2.21228 4.96662 1.12336C4.99975 1.08467 5.04086 1.05362 5.08713 1.03232C5.1334 1.01103 5.18373 1 5.23466 1C5.2856 1 5.33593 1.01103 5.38219 1.03232C5.42846 1.05362 5.46957 1.08467 5.5027 1.12336C6.43341 2.21228 9.46903 5.97688 9.46903 8.76549Z" stroke="#1B6CE5" stroke-miterlimit="10"/>
<path d="M7.82227 9.00073C7.82227 9.56226 7.59921 10.1008 7.20214 10.4979C6.80508 10.8949 6.26655 11.118 5.70502 11.118" stroke="#1B6CE5" stroke-linecap="round" stroke-linejoin="round"/>
</svg>
