<svg width="16" height="18" viewBox="0 0 16 18" fill="none" xmlns="http://www.w3.org/2000/svg">
<path d="M11.3333 13.1667V10.6667H5.5V7.33333H11.3333V4.83333L15.5 9L11.3333 13.1667ZM9.66667 0.666666C10.1087 0.666666 10.5326 0.842261 10.8452 1.15482C11.1577 1.46738 11.3333 1.89131 11.3333 2.33333V4H9.66667V2.33333H2.16667V15.6667H9.66667V14H11.3333V15.6667C11.3333 16.1087 11.1577 16.5326 10.8452 16.8452C10.5326 17.1577 10.1087 17.3333 9.66667 17.3333H2.16667C1.72464 17.3333 1.30072 17.1577 0.988155 16.8452C0.675595 16.5326 0.5 16.1087 0.5 15.6667V2.33333C0.5 1.89131 0.675595 1.46738 0.988155 1.15482C1.30072 0.842261 1.72464 0.666666 2.16667 0.666666H9.66667Z" fill="#5F7A75"/>
</svg>
